<?xml version="1.0" encoding="utf-8"?>
<!-- Generator: Adobe Illustrator 16.0.0, SVG Export Plug-In . SVG Version: 6.00 Build 0)  -->
<!DOCTYPE svg PUBLIC "-//W3C//DTD SVG 1.1//EN" "http://www.w3.org/Graphics/SVG/1.1/DTD/svg11.dtd">
<svg version="1.1" id="Layer_1" xmlns="http://www.w3.org/2000/svg" xmlns:xlink="http://www.w3.org/1999/xlink" x="0px" y="0px"
	 width="230px" height="130px" viewBox="0 0 230 130" enable-background="new 0 0 230 130" xml:space="preserve">
<linearGradient id="SVGID_1_" gradientUnits="userSpaceOnUse" x1="114.6538" y1="1.9604" x2="114.6538" y2="400.8672" gradientTransform="matrix(-1 0 0 1 229.6543 0)">
	<stop  offset="0.0879" style="stop-color:#EFF9FE"/>
	<stop  offset="0.0946" style="stop-color:#ECF8FC"/>
	<stop  offset="0.2055" style="stop-color:#CBEAE5"/>
	<stop  offset="0.3233" style="stop-color:#AFDFD1"/>
	<stop  offset="0.4512" style="stop-color:#9AD6C2"/>
	<stop  offset="0.5922" style="stop-color:#8BD0B8"/>
	<stop  offset="0.7566" style="stop-color:#82CCB1"/>
	<stop  offset="1" style="stop-color:#7FCBAF"/>
</linearGradient>
<path fill="url(#SVGID_1_)" d="M0,60.181c3.751-31.572,43.106-24.555,43.106-24.555C63.73-3.842,100.271,2.307,100.271,2.307
	c36.11,0,45.628,24.224,47.432,30.226c11.828-12.843,27.783-9.692,27.783-9.692c32.104,4.547,24.772,37.244,24.772,37.244
	c13.762-8.17,13.762,9.087,13.762,9.087c12.832-3.632,14.662,7.26,14.662,7.26c6.44,14.537-12.832,20.895-12.832,20.895
	c-11.924,25.437-33.021,3.64-33.021,3.64c-16.51,33.604-54.123,13.612-54.123,13.612c-26.602,31.803-50.449-2.717-50.449-2.717
	C17.714,125.491,19.54,83.703,19.54,83.703C1.196,80.979,0.284,62.81,0.284,62.81c0.018-0.113,0.033-0.221,0.055-0.343
	C0.046,61.07,0,60.181,0,60.181z"/>
</svg>
