<?xml version="1.0" encoding="utf-8"?>
<!-- Generator: Adobe Illustrator 16.0.0, SVG Export Plug-In . SVG Version: 6.00 Build 0)  -->
<!DOCTYPE svg PUBLIC "-//W3C//DTD SVG 1.1//EN" "http://www.w3.org/Graphics/SVG/1.1/DTD/svg11.dtd">
<svg version="1.1" id="Layer_1" xmlns="http://www.w3.org/2000/svg" xmlns:xlink="http://www.w3.org/1999/xlink" x="0px" y="0px"
	 width="110px" height="110px" viewBox="-12.48 -12.48 110 110" enable-background="new -12.48 -12.48 110 110"
	 xml:space="preserve">
<g>
	<path fill="#122B4F" d="M-4.141-10.17c0,0,0.006,0.024,0.016,0.067C-4.13-10.128-4.137-10.149-4.141-10.17z"/>
	<path fill="#844200" d="M34.03,95.001l-2.778-2.552l-1.032,0.917c0.987-0.008,1.893,0.197,2.332,0.549
		C33.191,94.42,33.66,94.753,34.03,95.001z"/>
	<path fill="#844200" d="M54.303,92.553l-0.197,0.162c0.088-0.024,0.188-0.043,0.279-0.063L54.303,92.553z"/>
	<path fill="#560400" d="M25.189,94.592c0.203,0.213,0.499,0.508,0.837,0.813l-0.367-0.899C25.484,94.541,25.32,94.57,25.189,94.592
		z"/>
	<path fill="#FF83BB" d="M81.977-2.049c-1.666,0.638-3.369,0.448-3.369,0.448c1.916,1.258,2.75,2.473,2.943,3.536
		c0.357-0.209,0.711-0.418,1.047-0.666c6.027-4.45,7.338-11.863,7.338-11.863s-2.721,2.498-6.623,4.17
		C84.369-5.007,83.416-2.595,81.977-2.049z"/>
	<path fill="#FF83BB" d="M74.561,0.469c-0.076,1.559-0.383,2.681-0.816,3.481c0.818-0.027,1.609-0.079,2.359-0.184
		C75.135,2.307,74.561,0.469,74.561,0.469z"/>
	<path fill="#FF83BB" d="M34.822,88.555c5.185,0.446,10.512,0.441,15.764-0.039c2.205-2.384,6.275-3.181,10.25-2.097
		c0.332,0.091,0.625,0.204,0.918,0.318c2.631-0.605,5.203-1.329,7.68-2.198c7.031-2.455,12.061-6.473,15.611-11.371
		c-3.76-7.967-10.07-22.798-7.982-28.634c2.926-8.155,14.535-9.529,14.535-9.529c0.025,0.052,0.047,0.1,0.072,0.152
		c-0.15-1.078-0.309-2.139-0.488-3.178c-14.58,9.79-42.834,11.549-45.064-6.231C44.311,11.37,50.76,1.317,67.559,3.584
		c0.189,0.026,0.361,0.037,0.543,0.061c-1.209-2.259,2.65-5.489,2.65-5.489c-1.996,0.426-4.832-0.39-5.438-2.114
		c-0.02-0.004-0.035-0.005-0.053-0.01C48.209-7.287,36.384-7.773,21.248-4.346C0.053,0.449-4.141-10.17-4.141-10.17
		c0.004,0.021,0.011,0.042,0.016,0.065c0.145,0.586,1.355,5.113,5.178,8.8c4.51,4.352,9.084,5.67,15.758,5.189
		c16.855-1.214,23.126,7.508,21.508,21.908C36.313,43.625,8.225,42.171-6.32,32.522c0,0,0.066-0.549,0.209-1.5
		c-0.341,1.495-0.66,3.067-0.947,4.69c1.968,0.198,11.647,1.517,14.67,8.667c2.617,6.208-4.06,23.556-7.164,30.981
		c5.537,5.434,13.742,9.274,23.089,11.437c0.525-0.201,1.101-0.376,1.771-0.487C29.05,85.698,32.722,86.562,34.822,88.555z
		 M39.001,32.864c0,0,0.817-1.311,3.572-1.325c2.314-0.013,3.337,1.289,3.337,1.289s0.422,3.87-3.386,7.674
		c0,0-1.556-1.714-2.597-3.847C38.889,34.519,39.001,32.864,39.001,32.864z M25.168,45.03c24.529-5.23,59.55-5.819,54.126,30.791
		c0,0-5.02,4.992-15.234,7.883C49.281,87.882,23.987,90.025,6.378,75.9C6.378,75.9,0.641,50.27,25.168,45.03z"/>
	<path fill="#FFC2D5" d="M82.598,1.269c-0.336,0.247-0.689,0.457-1.047,0.666c0.418,2.239-2.021,3.794-3.326,3.576
		c-0.824-0.138-1.541-0.875-2.121-1.743c-0.75,0.105-1.541,0.157-2.359,0.184c-1.447,2.666-4.398,1.601-5.557-0.138
		c-0.035-0.054-0.057-0.114-0.086-0.168c-0.182-0.023-0.354-0.035-0.543-0.061C50.76,1.317,44.311,11.37,46.117,25.749
		c2.23,17.78,30.482,16.022,45.064,6.231c0.018-0.011,0.037-0.023,0.057-0.036c0,0-1.279-9.792-5.207-19.988
		c-3.271-8.488,3.971-11.493,3.904-22.548C89.936-10.592,88.625-3.181,82.598,1.269z M79.908,18.047
		c1.771,8.035-1.613,15.823-9.398,18.286c-9.238,2.917-15.895-0.746-20.686-7.196C45.039,22.689,48.807,8.478,58.6,6.28
		c6.795-1.529,12.949,0.994,16.6,3.78c1.316-0.47,3.025-1.516,3.564-3.842c0,0,1.055,2.877-0.689,5.531
		c1.455-0.37,3.355-1.134,4.412-2.691c0,0,0.273,3.759-2.869,5.781c1.4,0.076,3.449-0.048,4.994-1.137
		C84.613,13.702,83.889,17.077,79.908,18.047z"/>
	<path fill="#FFC2D5" d="M38.318,25.791c1.618-14.4-4.653-23.123-21.508-21.908C10.138,4.364,5.563,3.047,1.052-1.306
		c-3.823-3.687-5.034-8.214-5.178-8.8c-0.01-0.042-0.016-0.064-0.016-0.064C-4.206,2.274,1.747,3.942-1.394,12.47
		c-2.895,7.853-4.243,15.435-4.716,18.553c-0.143,0.95-0.209,1.5-0.209,1.5C8.225,42.171,36.313,43.625,38.318,25.791z M2.305,9.058
		c1.057,1.557,2.956,2.321,4.412,2.691C4.972,9.093,6.027,6.218,6.027,6.218c0.467,2.007,1.805,3.062,3.008,3.615
		c3.649-2.843,11.081-5.655,18.706-2.897c9.507,3.442,11.534,18.292,5.965,24.225c-5.574,5.933-12.676,8.817-21.539,4.713
		C5.239,32.669,2.652,25.305,4.495,17.95c-3.64-1.089-4.316-4.245-4.316-4.245c1.545,1.089,3.595,1.213,4.995,1.137
		C2.033,12.817,2.305,9.058,2.305,9.058z"/>
	<path fill="#CE005E" d="M7.612,44.38c-3.021-7.15-12.7-8.469-14.67-8.667c-0.226-0.021-0.376-0.035-0.376-0.035
		c-9.358,21.7,6.396,43.124,6.396,43.124s0.599-1.318,1.487-3.44C3.553,67.934,10.229,50.585,7.612,44.38z"/>
	<path fill="#CE005E" d="M77.062,44.535c-2.088,5.836,4.223,20.667,7.982,28.634c1.494,3.166,2.584,5.252,2.584,5.252
		s14.457-22.163,4.041-43.262c-0.025-0.052-0.047-0.1-0.072-0.151C91.598,35.005,79.984,36.379,77.062,44.535z"/>
	<path fill="#FFC2D5" d="M64.061,83.704c10.215-2.888,15.234-7.883,15.234-7.883C84.717,39.211,49.697,39.8,25.168,45.03
		C0.641,50.27,6.378,75.897,6.378,75.897C23.987,90.025,49.281,87.882,64.061,83.704z M26.48,47.129
		c22.848-4.722,55.467-5.265,50.396,27.682c0,0-4.678,4.494-14.195,7.104c-13.766,3.76-37.324,5.7-53.717-6.998
		C8.966,74.918,3.628,51.852,26.48,47.129z"/>
	<path fill="#FFFFFF" d="M62.682,81.917c9.516-2.611,14.195-7.104,14.195-7.104c5.07-32.948-27.551-32.404-50.396-27.68
		C3.628,51.852,8.966,74.918,8.966,74.918C25.357,87.617,48.918,85.676,62.682,81.917z M59.057,79.889
		c-7.293,0.593-6.359-6.006-6.359-6.006s5.383,3.209,11.127-0.457C63.824,73.426,65.025,79.404,59.057,79.889z M70.984,64.35
		c0,0,1.203,5.969-4.768,6.461c-7.295,0.594-6.359-6.002-6.359-6.002S65.238,68.017,70.984,64.35z M52.436,56.555
		c0,0,5.375,3.208,11.117-0.457c0,0,1.211,5.978-4.762,6.466C51.502,63.154,52.436,56.555,52.436,56.555z M56.777,64.561
		c0,0,1.209,5.982-4.768,6.472c-7.291,0.594-6.357-6.009-6.357-6.009S51.033,68.239,56.777,64.561z M37.45,56.785
		c0,0,5.377,3.208,11.122-0.461c0,0,1.205,5.979-4.768,6.468C36.519,63.384,37.45,56.785,37.45,56.785z M22.461,57.008
		c0,0,5.379,3.215,11.129-0.458c0,0,1.201,5.979-4.768,6.465C21.532,63.614,22.461,57.008,22.461,57.008z M16.461,65.473
		c0,0,5.38,3.206,11.126-0.462c0,0,1.203,5.975-4.768,6.461C15.53,72.067,16.461,65.473,16.461,65.473z M29.089,80.341
		c-7.291,0.604-6.364-6.001-6.364-6.001s5.383,3.21,11.126-0.459C33.852,73.881,35.059,79.858,29.089,80.341z M30.664,65.25
		c0,0,5.385,3.217,11.129-0.459c0,0,1.207,5.98-4.768,6.465C29.737,71.857,30.664,65.25,30.664,65.25z M37.71,74.11
		c0,0,5.38,3.215,11.128-0.454c0,0,1.205,5.97-4.77,6.46C36.787,80.714,37.71,74.11,37.71,74.11z"/>
	<path fill="#FFC2D5" d="M28.824,63.015c5.968-0.485,4.768-6.465,4.768-6.465c-5.75,3.673-11.129,0.458-11.129,0.458
		S21.532,63.614,28.824,63.015z"/>
	<path fill="#FFC2D5" d="M43.805,62.792c5.973-0.489,4.768-6.468,4.768-6.468c-5.745,3.669-11.122,0.461-11.122,0.461
		S36.519,63.384,43.805,62.792z"/>
	<path fill="#FFC2D5" d="M58.791,62.563c5.971-0.49,4.762-6.467,4.762-6.467c-5.74,3.667-11.117,0.459-11.117,0.459
		S51.502,63.154,58.791,62.563z"/>
	<path fill="#FFC2D5" d="M22.725,74.343c0,0-0.926,6.603,6.364,5.998c5.969-0.48,4.762-6.459,4.762-6.459
		C28.108,77.552,22.725,74.343,22.725,74.343z"/>
	<path fill="#FFC2D5" d="M44.068,80.116c5.975-0.49,4.77-6.46,4.77-6.46C43.09,77.325,37.71,74.11,37.71,74.11
		S36.787,80.714,44.068,80.116z"/>
	<path fill="#FFC2D5" d="M52.697,73.883c0,0-0.934,6.599,6.359,6.006c5.969-0.485,4.768-6.463,4.768-6.463
		C58.08,77.094,52.697,73.883,52.697,73.883z"/>
	<path fill="#FFC2D5" d="M41.792,64.792c-5.743,3.678-11.129,0.459-11.129,0.459s-0.926,6.604,6.361,6.006
		C42.999,70.772,41.792,64.792,41.792,64.792z"/>
	<path fill="#FFC2D5" d="M27.586,65.011c-5.746,3.671-11.127,0.462-11.127,0.462s-0.93,6.594,6.359,5.999
		C28.789,70.986,27.586,65.011,27.586,65.011z"/>
	<path fill="#FFC2D5" d="M52.01,71.033c5.973-0.489,4.768-6.472,4.768-6.472c-5.744,3.678-11.125,0.463-11.125,0.463
		S44.723,71.626,52.01,71.033z"/>
	<path fill="#FFC2D5" d="M66.219,70.811c5.969-0.492,4.766-6.461,4.766-6.461c-5.744,3.667-11.125,0.459-11.125,0.459
		S58.924,71.405,66.219,70.811z"/>
	<path fill="#FF83BB" d="M42.524,40.501c3.808-3.803,3.386-7.675,3.386-7.675s-1.023-1.301-3.337-1.288
		c-2.755,0.016-3.572,1.325-3.572,1.325s-0.112,1.654,0.927,3.791C40.968,38.787,42.524,40.501,42.524,40.501z"/>
	<path fill="#FFDA00" d="M19.698,94.075c0.028,0.209,0.056,0.333,0.056,0.333l0.311-0.164l4.519-2.372l1.075,2.635l0.366,0.898
		l0.507,1.236l0.49-0.438l3.196-2.837l1.032-0.917l2.779,2.552l0.523,0.479l0.997,0.918c0.385-0.729,0.628-1.415,0.801-2.08
		c0.026-0.096,0.063-0.199,0.084-0.298c0.18-0.826,0.209-1.599,0.097-2.313c-0.194-1.243-0.813-2.298-1.713-3.152
		c-2.1-1.993-5.771-2.857-9.514-2.244c-0.671,0.111-1.246,0.286-1.771,0.487c-2.495,0.965-3.455,2.836-3.77,4.494
		C19.534,92.485,19.623,93.557,19.698,94.075z"/>
	<path fill="#FFDA00" d="M50.586,88.516c-0.793,0.861-1.332,1.936-1.547,3.198c-0.158,0.95-0.145,2.004,0.117,3.168
		c0.033,0.14,0.08,0.287,0.117,0.43c0.1,0.374,0.203,0.748,0.35,1.14l1.896-1.582l2.586-2.154l0.197-0.162l0.082,0.099l4.199,4.868
		l2.049-4.241l0.369-0.764l4.557,3.184c0,0,0.641-2.165,0.137-4.45c-0.383-1.734-1.438-3.528-3.943-4.511
		c-0.293-0.111-0.584-0.227-0.92-0.318C56.861,85.335,52.791,86.132,50.586,88.516z"/>
	<path fill="#141414" d="M79.617,14.839c3.143-2.021,2.869-5.781,2.869-5.781c-1.057,1.557-2.957,2.321-4.412,2.691
		c1.744-2.656,0.689-5.531,0.689-5.531c-0.539,2.326-2.248,3.371-3.564,3.842c1.607,1.23,2.734,2.508,3.205,3.517
		c0.691,1.481,1.178,2.98,1.504,4.472c3.98-0.97,4.705-4.345,4.705-4.345C83.066,14.791,81.018,14.914,79.617,14.839z"/>
	<path fill="#141414" d="M5.173,14.839c-1.4,0.076-3.45-0.048-4.995-1.137c0,0,0.675,3.156,4.316,4.245
		c0.515-2.059,1.356-4.115,2.57-6.08c0.386-0.625,1.066-1.33,1.97-2.035C7.83,9.279,6.493,8.225,6.026,6.218
		c0,0-1.056,2.877,0.689,5.531c-1.457-0.37-3.355-1.134-4.412-2.691C2.305,9.058,2.033,12.817,5.173,14.839z"/>
	<path fill="#FF83BB" d="M78.404,13.575c-0.471-1.008-1.598-2.287-3.205-3.517c-3.65-2.786-9.805-5.309-16.6-3.779
		c-9.793,2.198-13.561,16.409-8.775,22.857c4.791,6.45,11.451,10.113,20.686,7.196c7.785-2.461,11.17-10.25,9.398-18.286
		C79.582,16.555,79.096,15.057,78.404,13.575z M77.471,29.975c-4.428,5.988-10.1,7.958-18.664,5.269
		c-8.566-2.691-12.439-12.059-8.369-20.803c1.418-3.057,6.668-9.552,18.895-6.504C78.357,10.183,81.896,23.992,77.471,29.975z"/>
	<path fill="#FFFFFF" d="M69.332,7.937c-12.227-3.046-17.477,3.447-18.895,6.504c-4.07,8.745-0.195,18.112,8.369,20.803
		c8.566,2.689,14.236,0.719,18.664-5.269C81.896,23.992,78.357,10.183,69.332,7.937z M72.52,29.781
		c-5.896,5.75-15.1,4.172-18.26-0.432c-3.168-4.604-2.305-13.516,3.307-16.822c5.605-3.312,10.738-1.008,13.084,0.573
		C76.4,16.982,78.416,24.032,72.52,29.781z"/>
	<path fill="#141414" d="M70.65,13.102c-2.346-1.582-7.479-3.884-13.084-0.573c-5.611,3.307-6.475,12.218-3.307,16.822
		c3.16,4.604,12.363,6.182,18.26,0.432C78.416,24.032,76.4,16.982,70.65,13.102z M60.59,23.508
		c-4.152-0.997-5.654-4.861-3.426-7.776c2.23-2.918,6.465-2.663,8.254-0.445C68.82,19.509,64.365,24.412,60.59,23.508z
		 M70.438,29.875c-1.25,1.58-4.273,0.831-3.453-1.728c0.432-1.349,2.049-1.635,2.91-1.131
		C70.762,27.521,71.246,28.849,70.438,29.875z"/>
	<path fill="#FFFFFF" d="M57.164,15.731c-2.229,2.916-0.727,6.779,3.426,7.776c3.775,0.904,8.23-3.999,4.828-8.22
		C63.629,13.068,59.393,12.813,57.164,15.731z"/>
	<path fill="#FFFFFF" d="M69.895,27.016c-0.861-0.504-2.479-0.218-2.91,1.131c-0.82,2.559,2.203,3.308,3.453,1.728
		C71.246,28.849,70.762,27.521,69.895,27.016z"/>
	<path fill="#FF83BB" d="M7.066,11.868c-1.213,1.966-2.055,4.021-2.57,6.08c-1.844,7.356,0.743,14.721,7.673,17.924
		c8.865,4.104,15.967,1.218,21.539-4.713c5.569-5.933,3.541-20.781-5.965-24.225C20.118,4.175,12.687,6.987,9.037,9.831
		C8.132,10.537,7.452,11.242,7.066,11.868z M34.025,14.441c4.07,8.745,0.523,18.331-8.041,21.023
		c-8.565,2.688-14.563,0.5-18.991-5.489c-4.429-5.983-0.89-19.792,8.135-22.038C27.354,4.889,32.606,11.384,34.025,14.441z"/>
	<path fill="#FFFFFF" d="M6.994,29.975c4.428,5.988,10.426,8.177,18.991,5.489c8.564-2.692,12.111-12.278,8.041-21.023
		c-1.419-3.057-6.67-9.552-18.896-6.504C6.104,10.183,2.564,23.992,6.994,29.975z M27.068,13.432c5.752,3.88,7.765,10.93,1.87,16.68
		c-5.898,5.75-15.099,4.17-18.263-0.432c-3.165-4.603-2.302-13.515,3.31-16.822C19.59,9.547,24.719,11.85,27.068,13.432z"/>
	<path fill="#141414" d="M10.675,29.679c3.164,4.602,12.366,6.182,18.263,0.432c5.895-5.75,3.882-12.801-1.87-16.681
		c-2.347-1.582-7.477-3.884-13.083-0.573C8.373,16.164,7.51,25.077,10.675,29.679z M23.402,28.475
		c0.434-1.348,2.05-1.634,2.913-1.129c0.864,0.506,1.35,1.832,0.539,2.858C25.605,31.784,22.582,31.035,23.402,28.475z
		 M21.837,15.617c3.404,4.222-1.053,9.125-4.83,8.219c-4.152-0.996-5.653-4.86-3.424-7.775
		C15.812,13.144,20.045,13.398,21.837,15.617z"/>
	<path fill="#FFFFFF" d="M17.006,23.837c3.777,0.905,8.233-3.999,4.83-8.219c-1.792-2.219-6.026-2.474-8.255,0.444
		C11.354,18.977,12.854,22.841,17.006,23.837z"/>
	<path fill="#FFFFFF" d="M26.854,30.205c0.811-1.027,0.325-2.353-0.539-2.858c-0.863-0.505-2.479-0.219-2.913,1.129
		C22.582,31.035,25.605,31.784,26.854,30.205z"/>
	<path fill="#D8098E" d="M70.752-1.846c0,0-3.859,3.231-2.65,5.489c0.029,0.054,0.051,0.114,0.086,0.168
		c1.158,1.741,4.109,2.805,5.557,0.139c0.434-0.801,0.74-1.923,0.816-3.481c0,0,0.574,1.837,1.543,3.299
		c0.576,0.868,1.297,1.604,2.121,1.743c1.305,0.218,3.746-1.335,3.326-3.576c-0.193-1.063-1.027-2.279-2.943-3.536
		c0,0,1.703,0.19,3.369-0.448c1.439-0.546,2.393-2.958,1.336-4.375c-0.07-0.095-0.123-0.197-0.211-0.281
		c-2.596-2.477-6.449,1.236-6.449,1.236c2.35-4.068,1.271-5.758,0.066-6.495c-2.807-1.723-6.447,1.002-4.582,6.184
		c0,0-3.854-3.92-6.174-0.824c-0.771,1.029-0.904,1.916-0.648,2.644C65.92-2.235,68.756-1.419,70.752-1.846z M74.828-5.494
		c1.494,0.198,2.539,1.569,2.34,3.056c-0.197,1.49-1.566,2.537-3.059,2.339c-1.488-0.198-2.535-1.567-2.336-3.056
		C71.971-4.644,73.338-5.691,74.828-5.494z"/>
	<circle fill="#FFFFFF" cx="74.471" cy="-2.797" r="2.721"/>
	<g>
		<path fill="#8A4E11" d="M37.132,33.801c0,0,3.39,4.187,2.108,6.385c0,0,2.565,0.639,3.848-2.382
			C43.088,37.804,38.321,32.732,37.132,33.801z"/>
		
			<linearGradient id="SVGID_1_" gradientUnits="userSpaceOnUse" x1="64.1328" y1="-50.7319" x2="62.9435" y2="-43.0021" gradientTransform="matrix(1 0 0 -1 -21 -11.46)">
			<stop  offset="0" style="stop-color:#F7B30A"/>
			<stop  offset="1" style="stop-color:#F9E500"/>
		</linearGradient>
		<path fill="url(#SVGID_1_)" d="M37.132,33.801c0,0,8.674,5.009,6.227,8.064c0,0,6.232-0.736,3.912-8.309
			C47.271,33.557,42.629,26.471,37.132,33.801z"/>
	</g>
</g>
</svg>
