<?xml version="1.0" encoding="utf-8"?>
<!-- Generator: Adobe Illustrator 16.0.0, SVG Export Plug-In . SVG Version: 6.00 Build 0)  -->
<!DOCTYPE svg PUBLIC "-//W3C//DTD SVG 1.1//EN" "http://www.w3.org/Graphics/SVG/1.1/DTD/svg11.dtd">
<svg version="1.1" id="Layer_1" xmlns="http://www.w3.org/2000/svg" xmlns:xlink="http://www.w3.org/1999/xlink" x="0px" y="0px"
	 width="155.906px" height="124.725px" viewBox="0 0 155.906 124.725" enable-background="new 0 0 155.906 124.725"
	 xml:space="preserve">
<g>
	<ellipse fill="#FFFFFF" cx="87.317" cy="41.607" rx="15.237" ry="15.23"/>
	<ellipse fill="#FFFFFF" cx="40.389" cy="41.607" rx="15.238" ry="15.231"/>
	<path fill="#122B4F" d="M38.272,115.352c0.543-0.012,1.089-0.02,1.634-0.028l-0.268-0.675L38.272,115.352z"/>
	<path fill="#FF9D00" d="M115.135,53.504c0.033,0.039,0.061,0.079,0.092,0.116c-0.021-0.136-0.043-0.27-0.065-0.403
		c-0.447,0.297-0.905,0.585-1.377,0.869C114.603,53.704,115.135,53.504,115.135,53.504z"/>
	<path fill="#FF9D00" d="M50.804,111.647c8.1,1.196,16.708,1.288,25.036,0.242c2.088-2.458,6.262-3.562,10.502-2.864
		c0.621,0.102,1.158,0.26,1.66,0.438c1.354-0.379,2.693-0.785,4.003-1.235c11.148-3.82,17.6-11.352,21.041-20.256
		c-5.296-7.232-10.986-16.292-10.44-21.215c0.595-5.368,4.9-9.025,8.301-11.115c-16.01,7.885-40.972,7.82-43.012-9.247
		c-1.804-15.099,5.028-25.603,22.646-23.122c6.867,0.967,11.97,0.457,15.8-2.333c6.354-4.636,7.777-12.402,7.777-12.402
		s-3.612,3.283-8.537,4.923c-3.561,1.182-9.798,3.406-17.404,1.876c-6.895-1.383-12.976-2.318-18.758-2.744
		c0.662-1.877,0.706-4.239-1.154-6.836c0,0-0.009,3.34-2.525,6.519c0.16-2.373-0.368-5.349-3.311-7.413c0,0,1.418,3.544-0.524,7.348
		c-0.539-2.114-2.019-4.534-5.743-6.113c0,0,2.239,2.882,2.009,6.334c-5.223,0.254-10.48,0.978-16.192,2.233
		c-20.487,4.508-28.028-3.74-29.109-5.098c0.347,1.217,1.879,5.974,5.574,9.584c4.709,4.597,11.816,4.586,18.823,4.123
		c17.701-1.168,24.23,8.023,22.442,23.122c-2.214,18.693-31.687,16.999-46.896,6.786c0,0,0.073-0.583,0.231-1.585
		c-0.154,0.657-0.305,1.33-0.451,2.016c0.041-0.049,0.077-0.101,0.118-0.146c0,0,11.454,4.435,12.287,13.48
		c0.474,5.136-5.887,14.628-11.484,21.889c1.304,3.222,3.099,6.179,5.505,8.712c4.895,5.146,12.014,9.009,20.253,11.538
		c0.367-0.102,0.75-0.194,1.172-0.26C44.616,108.177,48.707,109.26,50.804,111.647z M67.636,53.819c0,0,0.415,4.067-3.601,8.034
		c0,0-1.623-1.81-2.704-4.053c-1.074-2.245-0.945-3.982-0.945-3.982s0.863-1.368,3.754-1.368
		C66.567,52.45,67.636,53.819,67.636,53.819z M44.33,66.148c26.708-4.857,64.664-4.567,57.83,33.695c0,0-5.562,5.107-16.708,7.874
		c-16.118,4-43.577,5.591-62.283-9.68C23.168,98.038,17.623,71.004,44.33,66.148z"/>
	<path fill="#FF9D00" d="M12.712,9.361c0.029,0.133,0.062,0.253,0.091,0.382c0-0.094-0.007-0.176-0.007-0.269
		C12.74,9.4,12.712,9.361,12.712,9.361z"/>
	<path fill="#FFD283" d="M106.342,20.94c-3.829,2.789-8.933,3.3-15.8,2.333c-17.618-2.48-24.45,8.023-22.646,23.122
		c2.04,17.067,27.001,17.132,43.012,9.247c1.114-0.688,2.12-1.206,2.877-1.556c0.47-0.283,0.93-0.573,1.377-0.869
		c0.019-0.013,0.041-0.024,0.061-0.036c0,0-1.282-10.287-5.345-21.009c-3.38-8.932,4.242-12.038,4.242-23.634
		C114.119,8.537,112.696,16.303,106.342,20.94z M96.096,56.805c-9.406,4.356-16.978,1.377-22.946-4.816
		c-5.961-6.19-3.899-21.784,6.197-25.454c10.095-3.667,19.939,1.758,22.021,5.046C107.337,40.983,105.5,52.448,96.096,56.805z"/>
	<path fill="#FFD283" d="M59.709,46.394c1.788-15.099-4.741-24.291-22.442-23.122c-7.007,0.462-14.114,0.474-18.823-4.123
		c-3.694-3.61-5.227-8.367-5.574-9.584c-0.054-0.188-0.082-0.3-0.082-0.3c0,0.075,0.008,0.136,0.007,0.209
		c0,0.094,0.007,0.177,0.007,0.269c0.082,12.584,8.611,13.612,5.303,22.429c-3.084,8.208-4.546,16.144-5.061,19.422
		c-0.159,1.002-0.232,1.585-0.232,1.585C28.022,63.393,57.494,65.088,59.709,46.394z M32.419,26.535
		c10.094-3.667,19.939,1.758,22.022,5.046c5.965,9.401,4.13,20.867-5.275,25.225c-9.407,4.356-16.977,1.377-22.939-4.816
		C20.26,45.8,22.323,30.205,32.419,26.535z"/>
	<path fill="#FF5B00" d="M25,66.943c-0.834-9.044-12.288-13.479-12.288-13.479c-0.041,0.046-0.077,0.098-0.118,0.145
		C-3.493,72.328,5.41,98.619,5.41,98.619s3.83-4.242,8.105-9.788C19.112,81.571,25.473,72.08,25,66.943z"/>
	<path fill="#FFD283" d="M85.452,107.719c11.146-2.767,16.707-7.874,16.707-7.874c6.834-38.263-31.121-38.552-57.83-33.696
		c-26.708,4.855-21.162,31.89-21.162,31.89C41.875,113.309,69.334,111.719,85.452,107.719z M46.1,68.547
		c24.568-4.308,59.491-4.041,53.217,29.97c0,0-5.118,4.539-15.371,6.995c-14.828,3.552-40.092,4.956-57.304-8.622
		C26.641,96.89,21.528,72.86,46.1,68.547z"/>
	<path fill="#FFFFFF" d="M83.945,105.512c10.252-2.457,15.371-6.995,15.371-6.995c6.274-34.011-28.649-34.278-53.217-29.97
		C21.528,72.86,26.641,96.891,26.641,96.891C43.853,110.469,69.119,109.064,83.945,105.512z M73.853,102.618
		c-9.226,0.542-7.854-7.938-7.854-7.938s6.702,4.308,14.077-0.246C80.076,94.433,81.412,102.175,73.853,102.618z M90.393,82.969
		c0,0,1.34,7.744-6.224,8.188c-9.23,0.537-7.853-7.939-7.853-7.939S83.021,87.523,90.393,82.969z M66.208,72.338
		c0,0,6.698,4.307,14.072-0.247c0,0,1.338,7.743-6.221,8.188C64.826,80.816,66.208,72.338,66.208,72.338z M47.259,72.164
		c0,0,6.701,4.31,14.077-0.246c0,0,1.336,7.743-6.225,8.186C45.88,80.647,47.259,72.164,47.259,72.164z M39.409,82.879
		c0,0,6.7,4.305,14.08-0.245c0,0,1.333,7.738-6.226,8.182C38.03,91.355,39.409,82.879,39.409,82.879z M54.908,102.445
		c-9.232,0.54-7.854-7.936-7.854-7.936s6.701,4.304,14.076-0.246C61.131,94.263,62.466,102.007,54.908,102.445z M57.371,83.041
		c0,0,6.704,4.31,14.076-0.245c0,0,1.338,7.744-6.226,8.184C55.993,91.522,57.371,83.041,57.371,83.041z"/>
	<path fill="#FFD283" d="M55.111,80.103c7.561-0.442,6.225-8.186,6.225-8.186c-7.376,4.556-14.077,0.245-14.077,0.245
		S45.88,80.647,55.111,80.103z"/>
	<path fill="#FFD283" d="M74.057,80.279c7.559-0.445,6.222-8.188,6.222-8.188c-7.375,4.554-14.073,0.247-14.073,0.247
		S64.826,80.816,74.057,80.279z"/>
	<path fill="#FFD283" d="M47.054,94.51c0,0-1.377,8.476,7.854,7.936c7.558-0.438,6.222-8.182,6.222-8.182
		C53.756,98.812,47.054,94.51,47.054,94.51z"/>
	<path fill="#FFD283" d="M65.999,94.679c0,0-1.372,8.48,7.854,7.938c7.559-0.443,6.223-8.185,6.223-8.185
		C72.701,98.988,65.999,94.679,65.999,94.679z"/>
	<path fill="#FFD283" d="M71.447,82.796c-7.372,4.555-14.076,0.245-14.076,0.245s-1.378,8.481,7.85,7.938
		C72.785,90.54,71.447,82.796,71.447,82.796z"/>
	<path fill="#FFD283" d="M53.488,82.634c-7.379,4.549-14.08,0.245-14.08,0.245s-1.379,8.477,7.854,7.937
		C54.821,90.372,53.488,82.634,53.488,82.634z"/>
	<path fill="#FFD283" d="M84.17,91.156c7.562-0.444,6.224-8.188,6.224-8.188c-7.371,4.555-14.076,0.249-14.076,0.249
		S74.939,91.693,84.17,91.156z"/>
	<path fill="#FFDA00" d="M34.542,117.271l3.73-1.918l1.367-0.703l0.268,0.675l1.208,3.032l0.523,1.315l1.11-0.969l3.878-3.386
		l3.88,3.621l0.601,0.56c0.088-0.163,0.143-0.321,0.22-0.482c0.692-1.439,0.96-2.755,0.887-3.935
		c-0.084-1.331-0.581-2.49-1.411-3.435c-2.097-2.386-6.189-3.471-10.359-2.825c-0.422,0.064-0.805,0.157-1.172,0.26
		c-4,1.116-4.79,4.277-4.857,6.33C34.382,116.492,34.542,117.271,34.542,117.271z"/>
	<path fill="#FFDA00" d="M75.841,111.889c-0.626,0.738-1.061,1.598-1.256,2.565c-0.178,0.873-0.144,1.837,0.111,2.88
		c0.177,0.723,0.441,1.474,0.858,2.27l1.087-0.995l3.438-3.145l2.005,1.783l2.938,2.614l1.459-3.547l0.6-1.457l5.066,2.659
		c0,0,0.399-1.786-0.102-3.739c-0.426-1.656-1.522-3.416-4.044-4.315c-0.501-0.179-1.037-0.336-1.659-0.438
		C82.102,108.327,77.929,109.431,75.841,111.889z"/>
	<path fill="#FF9D00" d="M49.166,56.805c9.406-4.356,11.241-15.822,5.275-25.225c-2.083-3.288-11.928-8.713-22.022-5.046
		c-10.096,3.67-12.16,19.264-6.193,25.454C32.189,58.182,39.759,61.162,49.166,56.805z M35.092,27.113
		c9.658-2.146,18,3.982,19.51,7.232c4.33,9.299,1.286,19.546-7.825,22.409c-9.109,2.857-15.666-0.766-20.375-7.133
		C21.693,43.259,25.437,29.265,35.092,27.113z"/>
	<path fill="#FFFFFF" d="M46.777,56.753c9.111-2.862,12.155-13.11,7.825-22.409c-1.508-3.25-9.853-9.378-19.51-7.232
		c-9.655,2.151-13.399,16.146-8.689,22.508C31.111,55.987,37.668,59.609,46.777,56.753z M33.873,32.346
		c5.963-3.519,11.42-1.073,13.916,0.61c6.118,4.127,8.258,11.618,1.989,17.733c-6.272,6.113-16.059,4.432-19.423-0.46
		C26.987,45.336,27.906,35.861,33.873,32.346z"/>
	<path fill="#FF9D00" d="M79.349,26.535C69.251,30.205,67.19,45.8,73.151,51.99c5.967,6.193,13.539,9.173,22.946,4.816
		c9.404-4.356,11.241-15.822,5.271-25.225C99.286,28.294,89.441,22.867,79.349,26.535z M93.706,56.753
		c-9.109,2.857-15.666-0.766-20.375-7.133c-4.709-6.361-0.966-20.355,8.689-22.507c9.657-2.146,17.999,3.982,19.513,7.231
		C105.857,43.643,102.812,53.891,93.706,56.753z"/>
	<path fill="#FFFFFF" d="M82.021,27.113c-9.655,2.151-13.399,16.146-8.69,22.508c4.71,6.366,11.266,9.989,20.375,7.132
		c9.106-2.862,12.151-13.11,7.827-22.409C100.02,31.095,91.677,24.966,82.021,27.113z M96.707,50.69
		c-6.271,6.113-16.058,4.432-19.426-0.46c-3.364-4.895-2.445-14.369,3.521-17.884c5.964-3.519,11.417-1.073,13.917,0.61
		C100.835,37.084,102.975,44.574,96.707,50.69z"/>
	<path fill="#FF9D00" d="M64.453,51.815c-3.371,0-4.378,1.625-4.378,1.625s-0.151,2.062,1.103,4.726
		c1.26,2.665,3.152,4.813,3.152,4.813c4.683-4.71,4.199-9.539,4.199-9.539S67.283,51.815,64.453,51.815z"/>
	<g>
		<path fill="#8A4E11" d="M60.312,55.07c0,0,2.542,3.136,1.581,4.783c0,0,1.922,0.479,2.883-1.783
			C64.776,58.069,61.203,54.27,60.312,55.07z"/>
		
			<linearGradient id="SVGID_1_" gradientUnits="userSpaceOnUse" x1="85.8096" y1="-30.9456" x2="84.9186" y2="-25.1542" gradientTransform="matrix(1 0 0 -1 -21 28.2241)">
			<stop  offset="0" style="stop-color:#F7B30A"/>
			<stop  offset="1" style="stop-color:#F9E500"/>
		</linearGradient>
		<path fill="url(#SVGID_1_)" d="M60.312,55.07c0,0,6.5,3.752,4.669,6.042c0,0,4.67-0.551,2.931-6.225
			C67.912,54.886,64.432,49.578,60.312,55.07z"/>
	</g>
	<path fill="#141414" d="M38.747,49.781c0,0,4.092-9.018,9.671-0.651C48.417,49.13,43.303,45.504,38.747,49.781z"/>
	<path fill="#141414" d="M77.547,48.631c0,0,5.645-8.138,9.632,1.093C87.179,49.724,82.797,45.242,77.547,48.631z"/>
	<path fill="#FF9D00" d="M115.22,53.18c0,0,7.579,15.908-2.174,34.791c-9.755,18.883-12.989-18.404-12.989-18.404l4.488-11.36
		L115.22,53.18z"/>
	<path fill="#FF5B00" d="M104.018,63.654c0.36,0.822,0.893,1.918,1.597,3.132c2.145,3.702,5.896,8.385,11.403,9.036
		c5.052,0.594,14.347-5.6,21.769-11.363c6.198-4.82,1.374-8.76,1.374-8.76s-17.113-10.797-36.62,6.384
		c-0.038,0.035-0.08,0.064-0.119,0.101C103.421,62.181,103.628,62.761,104.018,63.654z"/>
	<g>
		<g>
			<path fill="#E8E6E5" d="M120.941,40.39c0,0,15.904,13.863,18.159,41.471l13.407-4.726c0,0-18.036-23.352-20.174-41.635
				C132.334,35.5,124.328,30.707,120.941,40.39z"/>
			<path fill="#F6F5F5" d="M146.353,77.401c0,0-14.352-34.479-20.35-42.805c-0.004,0.001-0.008,0.003-0.013,0.004
				c-0.079,0.024-0.157,0.051-0.236,0.08c-0.01,0.003-0.021,0.008-0.031,0.012c-0.073,0.026-0.146,0.055-0.219,0.084
				c-0.015,0.005-0.025,0.012-0.038,0.016c-0.072,0.029-0.144,0.06-0.215,0.095c-0.012,0.004-0.024,0.012-0.036,0.019
				c-0.072,0.032-0.145,0.066-0.216,0.105c-0.013,0.006-0.022,0.012-0.034,0.018c-0.072,0.038-0.146,0.08-0.22,0.122
				c-0.009,0.005-0.017,0.011-0.024,0.016c-0.077,0.045-0.152,0.093-0.229,0.142c-0.007,0.003-0.012,0.008-0.018,0.012
				c-0.079,0.049-0.158,0.104-0.235,0.161c-0.004,0.001-0.006,0.004-0.009,0.006c-0.082,0.059-0.163,0.12-0.244,0.184
				c2.916,4.325,15.759,24.084,19.893,42.559L146.353,77.401z"/>
			
				<ellipse transform="matrix(-0.304 -0.9527 0.9527 -0.304 114.4957 242.5049)" fill="#BDBAB7" cx="145.831" cy="79.429" rx="3.472" ry="7.392"/>
			<path fill="#8B8985" d="M139.307,79.571c1.545,0.528,3.939,0.439,6.443-0.358c2.515-0.802,4.521-2.122,5.471-3.451
				c-1.544-0.527-3.939-0.441-6.443,0.358C142.264,76.922,140.257,78.243,139.307,79.571z"/>
		</g>
		<path fill="#9E9C98" d="M141.352,62.303c0,0,0.537-0.182,1.021-0.592c-0.657-1.152-1.316-2.345-1.965-3.565
			c-0.38,0.079-0.805,0.237-1.282,0.505c0,0-2.407,1.504-1.727,3.09C137.399,61.741,138.034,64.07,141.352,62.303z"/>
		<path fill="#E60014" d="M134.19,61.682c0,0,1.543-3.062,6.096-3.647l-0.719-2.205c0,0-4.249,1.023-6.289,3.729L134.19,61.682z"/>
		<path fill="#A24314" d="M135.054,63.443c0,0-1.238,3.17-1.367,5.619l-2.141-2.913c0,0,1.407-1.974,3.042-4.199L135.054,63.443z"/>
		<path fill="#9E9C98" d="M136.938,69.078l2.333-1.072c-1.878-1.708-1.58-9.266-1.58-9.266l-1.068,0.505
			c-0.521,0.708-1.255,1.631-2.018,2.56c0.044,0.115,0.48,1.344,0.524,1.457l1.314-3.116c0.233,1.967,0.069,4.47-0.236,6.348
			C136.464,67.335,136.708,68.196,136.938,69.078z"/>
		<path fill="#E60014" d="M137.691,58.121c0,0-0.298,7.558,1.58,9.266l-3.725,1.714c0,0,1.448-5.527,0.984-9.444
			c0,0-3.025,5.875-3.098,8.93l-1.75-2.83c0,0,3.523-4.425,4.939-7.129L137.691,58.121z"/>
		<path fill="#C45315" d="M141.42,54.767c0,0-1.573-2.576-5.271,0.984c0,0-0.968,0.966,0.256,2.215c0,0,2.956,1.72,4.776-0.803
			C141.182,57.162,142.582,56.097,141.42,54.767z"/>
		<path fill="#FF5B00" d="M141.42,54.767c0,0-1.573-2.576-5.271,0.984c0,0-0.968,0.966,0.256,2.215c0,0,2.956,1.72,4.776-0.803
			C141.182,57.162,142.582,56.097,141.42,54.767z"/>
		<path fill="#E97300" d="M136.31,56.28c3.696-3.561,5.269-0.983,5.269-0.983c0.129,0.148,0.224,0.292,0.298,0.432
			c-0.029-0.294-0.156-0.618-0.455-0.96c0,0-1.573-2.576-5.27,0.984c0,0-0.662,0.662-0.199,1.598
			C135.888,56.702,136.31,56.28,136.31,56.28z"/>
		<g>
			<path fill="#FF5B00" d="M134.953,54.198c0,0-0.822-0.178-1.36-0.716c-0.69-0.695-0.997-1.886,0.616-2.996
				c0,0,4.585-2.181,6.15,1.71C140.357,52.196,141.359,55.268,134.953,54.198z"/>
			<path fill="#FF5B00" d="M134.524,51.065c0,0,3.916-1.86,5.745,0.934c-1.642-3.614-6.062-1.514-6.062-1.514
				c-1.471,1.012-1.343,2.092-0.786,2.801C133.213,52.633,133.414,51.829,134.524,51.065z"/>
		</g>
		<path fill="#FF5B00" d="M142.782,58.55c0,0-1.104-1.755-3.656-0.308c0,0-2.407,1.502-1.727,3.088c0,0,0.635,2.328,3.95,0.561
			C141.352,61.891,144.096,60.972,142.782,58.55z"/>
		<path fill="#E97300" d="M139.286,58.716c2.55-1.446,3.656,0.309,3.656,0.309c0.054,0.1,0.099,0.193,0.138,0.288
			c-0.055-0.235-0.148-0.489-0.297-0.763c0,0-1.104-1.755-3.656-0.308c0,0-2.407,1.502-1.727,3.088c0,0,0.019,0.07,0.064,0.177
			C137.171,60.035,139.286,58.716,139.286,58.716z"/>
		<path fill="#D30E19" d="M135.952,57.349c0,0,0.062,1.247,1.74,1.39l0.532-0.23C138.225,58.509,136.942,58.688,135.952,57.349z"/>
	</g>
</g>
</svg>
