<?xml version="1.0" encoding="utf-8"?>
<!-- Generator: Adobe Illustrator 16.0.0, SVG Export Plug-In . SVG Version: 6.00 Build 0)  -->
<!DOCTYPE svg PUBLIC "-//W3C//DTD SVG 1.1//EN" "http://www.w3.org/Graphics/SVG/1.1/DTD/svg11.dtd">
<svg version="1.1" id="Layer_1" xmlns="http://www.w3.org/2000/svg" xmlns:xlink="http://www.w3.org/1999/xlink" x="0px" y="0px"
	 width="115px" height="110px" viewBox="-14.98 -12.48 115 110" enable-background="new -14.98 -12.48 115 110"
	 xml:space="preserve">
<g>
	<path fill="#844200" d="M68.715,94.368l-4.028-2.115l-1.137,2.761C65.332,94.436,67.049,94.215,68.715,94.368z"/>
	<path fill="#37BA00" d="M91.254,34.128c0.03,0.035,0.058,0.075,0.086,0.108c-0.021-0.127-0.042-0.254-0.062-0.38
		c-0.427,0.283-0.864,0.557-1.312,0.826C90.746,34.319,91.254,34.128,91.254,34.128z"/>
	<path fill="#37BA00" d="M-5.739-7.692c0.027,0.124,0.058,0.237,0.086,0.359c0-0.088-0.007-0.164-0.007-0.254
		C-5.712-7.656-5.739-7.692-5.739-7.692z"/>
	<path fill="#37BA00" d="M30.319,89.196c7.685,1.139,15.839,1.218,23.739,0.223c1.984-2.314,5.925-3.351,9.929-2.691
		c0.581,0.098,1.083,0.242,1.553,0.408c1.287-0.361,2.562-0.736,3.807-1.163c10.559-3.621,16.667-10.753,19.927-19.19
		c-5.016-6.852-10.401-15.435-9.887-20.097c0.565-5.091,4.646-8.552,7.866-10.535c-15.162,7.476-38.807,7.416-40.737-8.756
		C44.808,13.09,51.277,3.137,67.96,5.49c6.503,0.916,11.336,0.43,14.96-2.211c6.021-4.392,7.366-11.75,7.366-11.75
		s-3.42,3.11-8.084,4.663c-3.372,1.122-9.278,3.228-16.483,1.779c-6.53-1.313-12.287-2.196-17.763-2.602
		c0.628-1.777,0.668-4.016-1.092-6.475c0,0-0.011,3.163-2.393,6.176c0.15-2.248-0.348-5.069-3.134-7.023
		c0,0,1.343,3.355-0.495,6.959c-0.511-2-1.913-4.297-5.44-5.794c0,0,2.121,2.733,1.903,6.002c-4.947,0.24-9.926,0.925-15.333,2.116
		C2.575,1.603-4.565-6.214-5.589-7.499c0.329,1.153,1.78,5.658,5.278,9.08c4.46,4.355,11.19,4.345,17.826,3.908
		c16.763-1.108,22.945,7.6,21.252,21.904C36.67,45.1,8.761,43.497-5.644,33.821c0,0,0.07-0.554,0.219-1.509
		c-0.146,0.626-0.288,1.266-0.427,1.915c0.039-0.044,0.075-0.092,0.112-0.138c0,0,10.846,4.202,11.637,12.771
		c0.446,4.866-5.577,13.857-10.876,20.733c1.234,3.055,2.935,5.855,5.213,8.256c4.644,4.884,11.425,8.521,19.245,10.915
		c0.329-0.089,0.668-0.172,1.042-0.229C24.465,85.924,28.329,86.949,30.319,89.196z M46.272,34.427c0,0,0.393,3.853-3.409,7.613
		c0,0-1.536-1.718-2.56-3.842c-1.018-2.126-0.896-3.771-0.896-3.771s0.818-1.297,3.557-1.297
		C45.26,33.13,46.272,34.427,46.272,34.427z M24.203,46.103c25.292-4.598,61.235-4.323,54.764,31.924c0,0-5.269,4.84-15.824,7.461
		c-15.261,3.79-41.265,5.299-58.98-9.169C4.163,76.319-1.088,50.706,24.203,46.103z"/>
	<path fill="#BDE891" d="M82.923,3.276c-3.625,2.642-8.457,3.126-14.96,2.21C51.28,3.136,44.811,13.087,46.518,27.391
		c1.932,16.172,25.576,16.232,40.737,8.756c1.05-0.646,2-1.131,2.713-1.464c0.448-0.269,0.883-0.543,1.312-0.826
		c0.018-0.014,0.035-0.024,0.054-0.036c0,0-1.213-9.745-5.059-19.903c-3.201-8.46,4.018-11.403,4.018-22.392
		C90.292-8.474,88.942-1.116,82.923,3.276z M73.225,37.253c-8.909,4.131-16.079,1.305-21.729-4.562
		c-5.646-5.862-3.692-20.636,5.867-24.113c9.559-3.474,18.883,1.666,20.853,4.779C83.868,22.265,82.128,33.128,73.225,37.253z"/>
	<path fill="#BDE891" d="M38.767,27.391C40.46,13.087,34.278,4.378,17.515,5.487C10.879,5.924,4.149,5.935-0.311,1.58
		c-3.497-3.422-4.95-7.927-5.278-9.08C-5.64-7.679-5.666-7.783-5.666-7.783c0,0.07,0.006,0.128,0.005,0.197
		c0,0.09,0.006,0.167,0.008,0.255C-5.575,4.591,2.5,5.567-0.633,13.919c-2.918,7.772-4.301,15.285-4.792,18.394
		c-0.15,0.955-0.22,1.509-0.22,1.509C8.761,43.497,36.67,45.097,38.767,27.391z M12.924,8.578
		c9.558-3.474,18.883,1.666,20.854,4.779c5.647,8.908,3.911,19.77-4.998,23.897c-8.907,4.131-16.077,1.305-21.722-4.562
		C1.411,26.829,3.363,12.056,12.924,8.578z"/>
	<path fill="#137000" d="M5.899,46.861C5.108,38.291-5.738,34.089-5.738,34.089c-0.039,0.044-0.074,0.092-0.112,0.138
		c-15.234,17.732-6.803,42.641-6.803,42.641s3.626-4.022,7.675-9.273C0.322,60.718,6.345,51.727,5.899,46.861z"/>
	<path fill="#137000" d="M89.965,34.683c-0.712,0.333-1.662,0.818-2.71,1.464c-3.223,1.982-7.302,5.444-7.868,10.536
		c-0.515,4.661,4.873,13.245,9.887,20.097c4.193,5.728,8.121,10.246,8.121,10.246s8.892-24.778-6.055-42.791
		c-0.028-0.034-0.056-0.073-0.086-0.108C91.254,34.128,90.746,34.319,89.965,34.683z"/>
	<path fill="#BDE891" d="M63.143,85.488c10.558-2.62,15.824-7.461,15.824-7.461c6.471-36.248-29.472-36.523-54.764-31.924
		c-25.291,4.601-20.04,30.216-20.04,30.216C21.876,90.787,47.879,89.278,63.143,85.488z M25.879,48.379
		c23.264-4.082,56.335-3.827,50.395,28.392c0,0-4.847,4.301-14.557,6.625c-14.041,3.367-37.967,4.699-54.265-8.166
		C7.451,75.23,2.61,52.463,25.879,48.379z"/>
	<path fill="#FFFFFF" d="M61.718,83.399c9.71-2.327,14.557-6.626,14.557-6.626c5.941-32.22-27.131-32.476-50.395-28.393
		C2.61,52.466,7.453,75.232,7.453,75.232C23.751,88.095,47.677,86.765,61.718,83.399z M52.16,80.657
		c-8.737,0.515-7.438-7.521-7.438-7.521s6.346,4.084,13.33-0.231C58.053,72.905,59.317,80.237,52.16,80.657z M67.82,62.041
		c0,0,1.27,7.336-5.89,7.759c-8.743,0.509-7.438-7.523-7.438-7.523S60.839,66.356,67.82,62.041z M44.919,51.97
		c0,0,6.343,4.079,13.326-0.234c0,0,1.269,7.334-5.89,7.756C43.612,60.005,44.919,51.97,44.919,51.97z M26.976,51.804
		c0,0,6.344,4.085,13.33-0.233c0,0,1.266,7.339-5.895,7.754C25.67,59.841,26.976,51.804,26.976,51.804z M19.542,61.957
		c0,0,6.346,4.078,13.333-0.231c0,0,1.261,7.332-5.896,7.749C18.236,69.99,19.542,61.957,19.542,61.957z M34.221,80.491
		c-8.743,0.515-7.438-7.518-7.438-7.518s6.346,4.08,13.331-0.232C40.113,72.744,41.377,80.079,34.221,80.491z M36.552,62.11
		c0,0,6.348,4.083,13.329-0.232c0,0,1.268,7.335-5.896,7.751C35.247,70.145,36.552,62.11,36.552,62.11z"/>
	<path fill="#BDE891" d="M34.412,59.326c7.159-0.416,5.895-7.755,5.895-7.755c-6.986,4.318-13.33,0.233-13.33,0.233
		S25.67,59.841,34.412,59.326z"/>
	<path fill="#BDE891" d="M52.354,59.493c7.158-0.423,5.889-7.757,5.889-7.757c-6.981,4.313-13.325,0.234-13.325,0.234
		S43.612,60.005,52.354,59.493z"/>
	<path fill="#BDE891" d="M26.783,72.976c0,0-1.305,8.029,7.438,7.517c7.157-0.414,5.893-7.749,5.893-7.749
		C33.128,77.053,26.783,72.976,26.783,72.976z"/>
	<path fill="#BDE891" d="M44.722,73.137c0,0-1.299,8.034,7.438,7.521c7.157-0.422,5.892-7.751,5.892-7.751
		C51.069,77.219,44.722,73.137,44.722,73.137z"/>
	<path fill="#BDE891" d="M49.882,61.877c-6.981,4.314-13.329,0.232-13.329,0.232s-1.305,8.033,7.434,7.52
		C51.148,69.212,49.882,61.877,49.882,61.877z"/>
	<path fill="#BDE891" d="M32.875,61.725c-6.987,4.31-13.333,0.231-13.333,0.231s-1.305,8.03,7.438,7.518
		C34.137,69.057,32.875,61.725,32.875,61.725z"/>
	<path fill="#BDE891" d="M61.931,69.799c7.16-0.423,5.89-7.759,5.89-7.759c-6.981,4.315-13.327,0.235-13.327,0.235
		S53.188,70.308,61.931,69.799z"/>
	<path fill="#FFDA00" d="M14.858,94.016c0.035,0.32,0.076,0.521,0.076,0.521l4.826-2.48l1.895,4.757l4.724-4.123l4.244,3.959
		c0.421-0.784,0.69-1.526,0.864-2.232c0.375-1.533,0.205-2.88-0.368-4.017c-0.216-0.429-0.476-0.836-0.799-1.205
		c-1.99-2.247-5.853-3.271-9.795-2.66c-0.375,0.058-0.714,0.141-1.042,0.229c-1.938,0.526-3.096,1.549-3.769,2.693
		C14.705,91.167,14.759,93.109,14.858,94.016z"/>
	<path fill="#FFDA00" d="M54.059,89.418c-0.557,0.648-0.942,1.402-1.148,2.242c-0.356,1.442-0.152,3.148,0.859,5.09l4.286-3.923
		l3.317,2.953l1.363,1.213l0.815-1.98l1.136-2.761l4.027,2.115l0.771,0.404c0,0,0.023-0.103,0.049-0.282
		c0.063-0.411,0.142-1.229,0.039-2.188c-0.191-1.812-1.067-4.118-4.033-5.167c-0.471-0.166-0.973-0.311-1.554-0.408
		C59.983,86.068,56.043,87.104,54.059,89.418z"/>
	<path fill="#37BA00" d="M28.781,37.253c8.909-4.127,10.645-14.989,4.998-23.897c-1.972-3.113-11.296-8.254-20.854-4.779
		c-9.56,3.477-11.514,18.251-5.864,24.113C12.706,38.559,19.874,41.384,28.781,37.253z M15.455,9.127
		C24.6,7.093,32.5,12.898,33.93,15.976c4.101,8.808,1.217,18.519-7.409,21.227c-8.628,2.709-14.837-0.724-19.295-6.755
		C2.766,24.422,6.312,11.164,15.455,9.127z"/>
	<path fill="#FFFFFF" d="M26.521,37.203c8.626-2.708,11.51-12.421,7.409-21.227C32.5,12.898,24.6,7.093,15.455,9.127
		C6.31,11.165,2.766,24.423,7.226,30.45C11.684,36.479,17.893,39.912,26.521,37.203z M14.3,14.084
		c5.647-3.335,10.814-1.017,13.178,0.576c5.793,3.911,7.819,11.01,1.885,16.801c-5.941,5.792-15.208,4.201-18.395-0.435
		C7.78,26.389,8.648,17.413,14.3,14.084z"/>
	<path fill="#141414" d="M29.363,31.46c5.936-5.792,3.908-12.89-1.885-16.801c-2.364-1.592-7.529-3.911-13.178-0.576
		c-5.651,3.328-6.52,12.306-3.332,16.94C14.153,35.663,23.422,37.252,29.363,31.46z M23.786,29.814
		c0.436-1.357,2.062-1.645,2.933-1.139c0.87,0.508,1.357,1.844,0.542,2.878C26.005,33.143,22.961,32.391,23.786,29.814z
		 M13.897,17.308c2.243-2.937,6.507-2.68,8.312-0.448c3.428,4.254-1.059,9.19-4.865,8.281
		C13.164,24.137,11.651,20.244,13.897,17.308z"/>
	<path fill="#FFFFFF" d="M17.345,25.141c3.804,0.91,8.292-4.026,4.865-8.281c-1.806-2.232-6.069-2.489-8.312,0.448
		C11.651,20.244,13.164,24.137,17.345,25.141z"/>
	<path fill="#FFFFFF" d="M27.262,31.554c0.815-1.035,0.326-2.371-0.542-2.878c-0.871-0.506-2.498-0.218-2.933,1.139
		C22.961,32.391,26.005,33.143,27.262,31.554z"/>
	<path fill="#37BA00" d="M57.362,8.578c-9.56,3.477-11.515,18.251-5.868,24.113c5.651,5.868,12.818,8.693,21.728,4.562
		c8.906-4.127,10.645-14.989,4.992-23.897C76.245,10.245,66.92,5.104,57.362,8.578z M70.959,37.203
		c-8.624,2.709-14.834-0.724-19.293-6.755c-4.461-6.026-0.917-19.285,8.228-21.323c9.146-2.035,17.045,3.771,18.477,6.849
		C82.466,24.784,79.584,34.495,70.959,37.203z"/>
	<path fill="#FFFFFF" d="M59.894,9.127c-9.145,2.038-12.688,15.296-8.228,21.323c4.459,6.03,10.669,9.463,19.293,6.754
		c8.625-2.708,11.507-12.421,7.411-21.227C76.938,12.898,69.039,7.093,59.894,9.127z M73.8,31.46
		c-5.938,5.792-15.204,4.201-18.396-0.435c-3.184-4.636-2.316-13.612,3.335-16.94c5.647-3.335,10.811-1.017,13.177,0.576
		C77.71,18.57,79.737,25.668,73.8,31.46z"/>
	<path fill="#141414" d="M71.917,14.659c-2.365-1.592-7.53-3.911-13.178-0.576c-5.649,3.328-6.519,12.306-3.333,16.94
		c3.189,4.638,12.456,6.228,18.394,0.435C79.739,25.667,77.71,18.57,71.917,14.659z M61.787,25.141
		c-4.188-1.004-5.694-4.897-3.452-7.833c2.245-2.937,6.509-2.68,8.312-0.448C70.076,21.116,65.588,26.051,61.787,25.141z
		 M71.703,31.554c-1.259,1.59-4.302,0.837-3.477-1.739c0.434-1.357,2.061-1.645,2.935-1.139
		C72.027,29.183,72.517,30.519,71.703,31.554z"/>
	<path fill="#FFFFFF" d="M58.335,17.308c-2.242,2.936-0.735,6.829,3.452,7.833c3.803,0.91,8.292-4.026,4.86-8.281
		C64.844,14.628,60.58,14.373,58.335,17.308z"/>
	<path fill="#FFFFFF" d="M71.16,28.675c-0.874-0.506-2.503-0.218-2.936,1.139c-0.823,2.576,2.22,3.33,3.479,1.739
		C72.517,30.519,72.027,29.183,71.16,28.675z"/>
	<path fill="#37BA00" d="M42.964,33.13c-2.739,0-3.557,1.297-3.557,1.297s-0.123,1.645,0.896,3.771
		c1.024,2.124,2.56,3.842,2.56,3.842c3.802-3.76,3.409-7.613,3.409-7.613S45.26,33.13,42.964,33.13z"/>
	<g>
		<path fill="#8A4E11" d="M37.907,37.309c0,0,3.48,4.296,2.165,6.554c0,0,2.632,0.656,3.948-2.446
			C44.02,41.417,39.128,36.211,37.907,37.309z"/>
		
			<linearGradient id="SVGID_1_" gradientUnits="userSpaceOnUse" x1="65.0654" y1="-54.3828" x2="63.8451" y2="-46.4507" gradientTransform="matrix(1 0 0 -1 -21 -11.46)">
			<stop  offset="0" style="stop-color:#F7B30A"/>
			<stop  offset="1" style="stop-color:#F9E500"/>
		</linearGradient>
		<path fill="url(#SVGID_1_)" d="M37.907,37.309c0,0,8.902,5.141,6.394,8.277c0,0,6.396-0.756,4.014-8.528
			C48.314,37.059,43.55,29.786,37.907,37.309z"/>
	</g>
</g>
</svg>
