<?xml version="1.0" encoding="utf-8"?>
<!-- Generator: Adobe Illustrator 16.0.0, SVG Export Plug-In . SVG Version: 6.00 Build 0)  -->
<!DOCTYPE svg PUBLIC "-//W3C//DTD SVG 1.1//EN" "http://www.w3.org/Graphics/SVG/1.1/DTD/svg11.dtd">
<svg version="1.1" id="Capa_2" xmlns="http://www.w3.org/2000/svg" xmlns:xlink="http://www.w3.org/1999/xlink" x="0px" y="0px"
	 width="566.929px" height="113.386px" viewBox="0 0 566.929 113.386" enable-background="new 0 0 566.929 113.386"
	 xml:space="preserve">
<g>
	<g>
		
			<linearGradient id="SVGID_1_" gradientUnits="userSpaceOnUse" x1="547.0132" y1="10.6729" x2="558.1296" y2="2.8891" gradientTransform="matrix(-0.7449 0.6672 0.6672 0.7449 548.6934 -274.2491)">
			<stop  offset="0" style="stop-color:#133118"/>
			<stop  offset="0.3821" style="stop-color:#19602B"/>
			<stop  offset="1" style="stop-color:#24B34C"/>
		</linearGradient>
		<polygon fill-rule="evenodd" clip-rule="evenodd" fill="url(#SVGID_1_)" points="153.718,89.458 154.171,89.979 153.994,90.443 
			154.171,90.758 153.979,90.888 154.578,92.281 154.336,92.371 154.845,93.553 154.619,93.486 155.024,94.765 154.74,94.666 
			154.954,96.2 154.688,96.085 154.555,97.596 154.3,97.357 154.266,98.335 154.111,98.179 153.962,99.333 153.693,99.066 
			153.468,100.417 153.274,100.051 152.714,101.726 152.481,101.244 152.209,102.295 151.999,101.898 151.364,103.581 
			151.075,103.048 150.853,103.977 150.551,103.703 149.876,104.799 149.716,104.112 149.392,104.933 149.271,104.67 
			148.672,105.735 148.415,105.066 147.606,106.514 147.282,106.036 147.046,106.727 146.772,106.36 146.038,107.442 
			145.677,106.756 145.077,107.892 144.71,107.268 144.25,107.893 144.205,107.504 143.322,108.468 143.188,108.137 
			143.081,108.512 142.64,107.804 142.467,108.298 142.364,108.234 141.759,108.912 141.44,108.157 140.554,109.209 
			140.274,108.597 139.335,109.67 139.066,109.028 137.977,109.912 137.635,109.284 136.399,110.093 136.325,109.633 
			135.215,110.475 135.584,108.697 135.124,108.496 135.465,107.517 135.771,107.283 135.065,107.072 135.68,105.941 
			135.956,105.768 135.28,105.424 135.83,104.58 136.177,104.409 135.585,104.148 136.421,103.101 136.189,102.925 136.77,102.537 
			135.966,102.202 136.927,101.349 136.501,101.094 137.066,100.676 136.573,100.417 136.977,100.04 137.256,99.593 137.639,99.333 
			137.004,99.015 137.609,98.144 137.844,97.947 137.632,97.811 138.338,97.456 137.659,97.126 137.545,97.042 138.347,96.409 
			138.295,96.197 138.999,95.861 138.308,95.393 139.271,94.622 138.98,94.367 139.63,94.052 139.109,93.834 140.235,93.187 
			140.028,93.079 140.616,92.917 140.176,92.633 141.54,91.885 141.2,91.721 142.55,91.178 142.166,90.985 143.272,90.376 
			143.645,90.392 143.4,90.091 144.443,89.891 144.179,89.686 145.927,89.267 145.893,89.015 147.151,88.977 146.917,88.728 
			147.957,88.778 147.856,88.498 149.163,88.634 149.091,88.423 149.763,88.589 149.639,88.382 151.383,89.058 151.361,88.803 
			152.802,89.773 152.83,89.611 153.428,89.748 		"/>
		<path fill-rule="evenodd" clip-rule="evenodd" fill="#21AB4B" d="M135.215,110.475c0.331-0.617,0.895-1.422,1.638-2.358
			l-0.112,1.494l0.345-1.787c0.241-0.299,0.498-0.614,0.772-0.937l0.323,2.454l-0.185-2.618c0.207-0.24,0.42-0.493,0.643-0.744
			l0.745,3.011l-0.614-3.164c0.309-0.354,0.631-0.72,0.967-1.09l0.988,3.825l-0.854-3.972c0.348-0.388,0.71-0.785,1.083-1.188
			l1.202,4.689l-1.024-4.882c0.369-0.399,0.75-0.805,1.136-1.214l1.544,5.811l-1.315-6.054c0.458-0.485,0.928-0.978,1.403-1.471
			l2.031,6.304l-1.867-6.472c0.343-0.358,0.69-0.717,1.04-1.076l2.495,6.861l-2.334-7.027c0.238-0.241,0.474-0.485,0.713-0.729
			l2.748,7.308l-2.572-7.488c0.202-0.205,0.402-0.411,0.605-0.613l2.653,7.506l-2.461-7.701c0.313-0.32,0.629-0.637,0.943-0.953
			l2.574,7.574l-2.365-7.781c0.153-0.158,0.307-0.312,0.464-0.465l2.803,7.932l-2.603-8.138c0.249-0.246,0.499-0.492,0.741-0.739
			l2.703,7.699l-2.501-7.899l0.493-0.489l2.55,7.53l-2.343-7.737c0.24-0.237,0.476-0.473,0.71-0.704l2.365,7.07l-2.165-7.266
			l0.516-0.511l2.148,7.127l-1.95-7.324c0.217-0.212,0.429-0.424,0.641-0.63l1.871,6.178l-1.695-6.353l0.452-0.444l1.669,5.36
			l-1.383-5.639l0.614-0.575l-0.488-0.551c-0.229,0.232-0.46,0.502-0.7,0.744l-4.843-1.143l4.577,1.412l-0.293,0.3l-5.78-1.489
			l5.608,1.661l-0.702,0.707l-6.773-1.739l6.573,1.943l-0.576,0.579l-6.968-2.137l6.773,2.337l-0.75,0.76l-6.996-2.146l6.799,2.347
			l-0.607,0.615l-7.504-2.3l7.291,2.512c-0.212,0.217-0.424,0.433-0.636,0.649l-7.592-2.058l7.376,2.277
			c-0.326,0.337-0.657,0.673-0.988,1.01l-7.265-2.227l7.063,2.438c-0.374,0.384-0.748,0.767-1.119,1.152l-6.168-1.891l5.996,2.067
			c-0.414,0.433-0.826,0.863-1.236,1.292l-5.987-1.836l5.825,2.009c-0.302,0.318-0.6,0.634-0.895,0.949l-5.303-1.441l5.154,1.596
			l0.014-0.014c-0.33,0.356-0.659,0.711-0.981,1.06l-5.06-1.375l4.922,1.524c-0.255,0.278-0.507,0.553-0.753,0.827l-4.744-1.301
			l4.619,1.438c-0.188,0.207-0.371,0.414-0.554,0.618l-4.075-1.017l3.912,1.2c-0.377,0.427-0.743,0.848-1.093,1.258l-3.426-0.644
			l3.307,0.784c-0.336,0.398-0.659,0.785-0.967,1.161l-2.908-0.474l2.788,0.626c-0.21,0.259-0.409,0.513-0.598,0.758l-2.239,0.081
			l2.113,0.086c-0.291,0.379-0.56,0.745-0.798,1.092l-1.217,0.299l1.1-0.13C135.83,109.115,135.41,109.875,135.215,110.475z"/>
	</g>
	<g>
		
			<linearGradient id="SVGID_2_" gradientUnits="userSpaceOnUse" x1="567.3569" y1="79.8901" x2="568.0172" y2="67.2919" gradientTransform="matrix(-1 0 0 1 650.8076 0)">
			<stop  offset="0" style="stop-color:#133118"/>
			<stop  offset="0.3821" style="stop-color:#19602B"/>
			<stop  offset="1" style="stop-color:#24B34C"/>
		</linearGradient>
		<polygon fill-rule="evenodd" clip-rule="evenodd" fill="url(#SVGID_2_)" points="90.405,85.418 89.966,85.814 89.605,85.624 
			89.343,85.774 89.252,85.583 88.111,86.069 88.052,85.837 87.085,86.245 87.15,86.039 86.111,86.346 86.208,86.084 84.973,86.2 
			85.078,85.957 83.887,85.748 84.089,85.523 83.315,85.437 83.448,85.298 82.537,85.096 82.767,84.857 81.707,84.573 
			82.006,84.412 80.705,83.794 81.101,83.604 80.282,83.29 80.608,83.114 79.307,82.425 79.746,82.186 79.019,81.924 79.255,81.659 
			78.42,80.966 78.976,80.854 78.341,80.506 78.559,80.406 77.747,79.785 78.292,79.583 77.185,78.745 77.583,78.467 77.046,78.209 
			77.354,77.974 76.535,77.222 77.1,76.922 76.231,76.301 76.747,75.992 76.276,75.527 76.588,75.505 75.871,74.625 76.142,74.517 
			75.849,74.398 76.437,74.024 76.054,73.833 76.109,73.743 75.604,73.137 76.224,72.878 75.437,71.992 75.938,71.764 
			75.137,70.825 75.664,70.608 75.023,69.542 75.54,69.258 74.968,68.053 75.336,68.012 74.729,66.923 76.123,67.369 76.307,66.95 
			77.067,67.324 77.236,67.623 77.443,66.975 78.309,67.612 78.427,67.881 78.741,67.267 79.381,67.833 79.498,68.162 
			79.738,67.626 80.524,68.468 80.677,68.258 80.953,68.824 81.263,68.094 81.889,69.037 82.115,68.656 82.417,69.206 82.649,68.76 
			82.927,69.161 83.267,69.445 83.453,69.815 83.741,69.239 84.397,69.856 84.544,70.084 84.663,69.897 84.904,70.578 85.204,69.96 
			85.28,69.856 85.737,70.645 85.908,70.608 86.137,71.286 86.547,70.665 87.105,71.611 87.325,71.353 87.54,71.977 87.742,71.499 
			88.193,72.59 88.292,72.404 88.387,72.964 88.636,72.565 89.155,73.885 89.305,73.575 89.662,74.873 89.836,74.521 90.257,75.59 
			90.224,75.939 90.478,75.725 90.579,76.712 90.755,76.478 90.991,78.138 91.193,78.12 91.155,79.298 91.365,79.096 91.267,80.065 
			91.497,79.986 91.314,81.202 91.486,81.146 91.314,81.767 91.486,81.662 90.852,83.255 91.055,83.249 90.204,84.546 90.331,84.58 
			90.188,85.133 		"/>
		<path fill-rule="evenodd" clip-rule="evenodd" fill="#21AB4B" d="M74.729,66.923c0.473,0.344,1.08,0.92,1.785,1.665l-1.183-0.188
			l1.401,0.423c0.224,0.243,0.458,0.501,0.702,0.774l-1.971,0.164l2.091-0.026c0.183,0.206,0.367,0.423,0.557,0.644l-2.436,0.532
			l2.549-0.401c0.264,0.311,0.536,0.633,0.812,0.97l-3.094,0.711l3.205-0.58c0.288,0.348,0.584,0.711,0.884,1.081l-3.796,0.86
			l3.938-0.685c0.296,0.37,0.598,0.748,0.903,1.133l-4.707,1.119l4.886-0.891c0.36,0.456,0.724,0.921,1.091,1.396l-5.127,1.549
			l5.251-1.388c0.266,0.34,0.531,0.688,0.798,1.036l-5.594,1.948l5.716-1.791c0.18,0.235,0.359,0.472,0.54,0.706l-5.965,2.167
			l6.099-1.987c0.15,0.199,0.302,0.397,0.454,0.599l-6.117,2.062l6.259-1.87c0.236,0.311,0.473,0.624,0.706,0.935l-6.167,1.986
			l6.321-1.78c0.114,0.153,0.229,0.307,0.343,0.46l-6.465,2.181l6.615-1.979c0.185,0.243,0.365,0.49,0.548,0.733l-6.273,2.099
			l6.42-1.9l0.362,0.49l-6.13,1.964l6.283-1.759c0.176,0.236,0.349,0.472,0.521,0.704l-5.756,1.818l5.901-1.62l0.376,0.512
			l-5.787,1.613l5.932-1.418c0.157,0.213,0.313,0.427,0.467,0.636l-5.017,1.406l5.145-1.23l0.327,0.445l-4.353,1.265l4.56-0.98
			l0.422,0.606l0.465-0.423c-0.174-0.229-0.372-0.461-0.553-0.7l1.179-4.471l-1.379,4.209l-0.219-0.292l1.505-5.327l-1.634,5.155
			l-0.524-0.696l1.764-6.243l-1.914,6.046l-0.429-0.568l2.091-6.405l-2.237,6.21l-0.562-0.744l2.098-6.431l-2.244,6.232
			l-0.457-0.603l2.25-6.895l-2.408,6.686c-0.159-0.21-0.319-0.419-0.479-0.633l2.062-6.995l-2.226,6.782
			c-0.247-0.325-0.497-0.655-0.746-0.984l2.177-6.673l-2.333,6.476c-0.285-0.375-0.569-0.745-0.855-1.115l1.85-5.664l-1.981,5.496
			c-0.319-0.412-0.64-0.823-0.958-1.231l1.795-5.499l-1.922,5.339c-0.236-0.3-0.471-0.599-0.705-0.891l1.441-4.882l-1.557,4.735
			l0.011,0.016c-0.264-0.333-0.526-0.659-0.786-0.98l1.375-4.657l-1.486,4.519c-0.207-0.254-0.412-0.505-0.616-0.748l1.298-4.373
			l-1.402,4.246c-0.155-0.187-0.309-0.37-0.462-0.554l1.038-3.76l-1.174,3.599c-0.319-0.377-0.632-0.744-0.938-1.096l0.702-3.169
			l-0.807,3.049c-0.296-0.336-0.588-0.662-0.869-0.969l0.54-2.697l-0.655,2.574c-0.193-0.21-0.384-0.407-0.569-0.603l0.062-2.099
			l-0.188,1.972c-0.285-0.292-0.561-0.562-0.824-0.809l-0.169-1.151l0.043,1.036C75.774,67.578,75.195,67.14,74.729,66.923z"/>
	</g>
	<g>
		
			<linearGradient id="SVGID_3_" gradientUnits="userSpaceOnUse" x1="449.8755" y1="75.5825" x2="454.6187" y2="87.9389" gradientTransform="matrix(-1 0 0 1 650.8076 0)">
			<stop  offset="0" style="stop-color:#133118"/>
			<stop  offset="0.3821" style="stop-color:#19602B"/>
			<stop  offset="1" style="stop-color:#24B34C"/>
		</linearGradient>
		<polygon fill-rule="evenodd" clip-rule="evenodd" fill="url(#SVGID_3_)" points="196.46,67.322 197.022,67.158 197.281,67.501 
			197.581,67.483 197.593,67.7 198.839,67.771 198.801,68.014 199.858,68.078 199.715,68.238 200.799,68.433 200.61,68.627 
			201.797,69.087 201.604,69.263 202.628,70.003 202.353,70.116 203.039,70.553 202.859,70.618 203.625,71.223 203.321,71.339 
			204.194,72.091 203.853,72.099 204.818,73.27 204.376,73.262 205.013,73.931 204.642,73.943 205.58,75.177 205.08,75.2 
			205.652,75.773 205.328,75.911 205.835,76.936 205.276,76.786 205.73,77.399 205.488,77.392 206,78.338 205.416,78.279 
			206.116,79.558 205.638,79.633 206.035,80.12 205.659,80.198 206.128,81.267 205.487,81.287 206.049,82.263 205.451,82.311 
			205.706,82.958 205.407,82.834 205.731,83.98 205.438,83.954 205.663,84.2 204.975,84.275 205.254,84.626 205.166,84.686 
			205.4,85.48 204.725,85.435 205.111,86.617 204.558,86.598 204.935,87.833 204.361,87.795 204.54,89.079 203.949,89.104 
			204.015,90.481 203.656,90.35 203.794,91.637 202.677,90.586 202.342,90.893 201.784,90.197 201.744,89.841 201.301,90.346 
			200.746,89.359 200.739,89.056 200.211,89.479 199.835,88.667 199.856,88.307 199.427,88.693 199.025,87.556 198.801,87.675 
			198.767,87.024 198.194,87.563 197.981,86.4 197.624,86.65 197.56,86.003 197.169,86.31 197.067,85.813 196.864,85.394 
			196.836,84.963 196.345,85.368 195.974,84.496 195.929,84.215 195.747,84.335 195.786,83.594 195.267,84.029 195.159,84.088 
			195.04,83.149 194.867,83.108 194.919,82.375 194.298,82.76 194.147,81.63 193.843,81.769 193.888,81.092 193.516,81.44 
			193.521,80.22 193.357,80.351 193.488,79.79 193.101,80.041 193.133,78.582 192.875,78.802 193.047,77.437 192.75,77.68 
			192.776,76.498 192.94,76.191 192.623,76.27 192.914,75.312 192.661,75.447 193.088,73.8 192.892,73.726 193.387,72.649 
			193.111,72.742 193.58,71.889 193.336,71.856 193.978,70.816 193.797,70.786 194.199,70.292 193.999,70.31 195.205,69.122 
			195.016,69.036 196.309,68.223 196.202,68.133 196.55,67.689 		"/>
		<path fill-rule="evenodd" clip-rule="evenodd" fill="#21AB4B" d="M203.794,91.637c-0.304-0.535-0.642-1.343-1.005-2.36
			l1.022,0.718l-1.134-1.036c-0.114-0.325-0.231-0.673-0.348-1.04l1.889,0.752l-1.948-0.936c-0.09-0.272-0.178-0.557-0.268-0.849
			l2.464,0.624l-2.517-0.8c-0.124-0.407-0.25-0.83-0.376-1.268l3.145,0.759l-3.196-0.932c-0.131-0.456-0.265-0.924-0.398-1.406
			l3.851,0.938l-3.915-1.167c-0.131-0.475-0.262-0.965-0.396-1.463l4.798,1.119l-4.875-1.411c-0.155-0.587-0.312-1.186-0.467-1.795
			l5.353,0.913l-5.406-1.119c-0.112-0.438-0.226-0.879-0.336-1.324l5.942,0.756l-5.994-0.957c-0.076-0.3-0.15-0.603-0.224-0.902
			l6.368,0.723l-6.423-0.947c-0.064-0.254-0.126-0.509-0.19-0.767l6.472,0.891l-6.53-1.13c-0.096-0.396-0.193-0.797-0.29-1.193
			l6.489,0.983l-6.551-1.241c-0.046-0.195-0.093-0.39-0.14-0.584l6.839,0.939l-6.899-1.194c-0.076-0.313-0.148-0.624-0.221-0.935
			l6.626,0.932l-6.689-1.183l-0.145-0.617l6.447,0.984l-6.509-1.246c-0.069-0.299-0.138-0.595-0.207-0.891l6.041,0.951l-6.099-1.197
			l-0.148-0.647l5.989,1.152l-6.047-1.402c-0.062-0.271-0.125-0.535-0.185-0.802l5.194,0.992l-5.244-1.212l-0.131-0.565l4.525,0.823
			l-4.606-1.179l-0.157-0.756l-0.595,0.18c0.07,0.288,0.167,0.595,0.239,0.898l-2.831,3.603l2.914-3.266l0.091,0.37l-3.467,4.245
			l3.52-4.028l0.214,0.887l-4.062,4.975l4.124-4.721L197.357,71l-4.427,4.979l4.487-4.732l0.231,0.946l-4.442,4.998l4.503-4.747
			l0.188,0.767l-4.763,5.36l4.83-5.095c0.065,0.27,0.131,0.539,0.197,0.809l-4.629,5.536l4.698-5.264
			c0.104,0.416,0.207,0.831,0.311,1.25l-4.613,5.188l4.679-4.931c0.117,0.475,0.238,0.946,0.36,1.422l-3.917,4.403l3.972-4.187
			c0.136,0.527,0.272,1.055,0.41,1.578l-3.801,4.276l3.856-4.066c0.102,0.386,0.205,0.767,0.305,1.148l-3.234,3.86l3.286-3.674
			l-0.005-0.019c0.116,0.427,0.233,0.854,0.348,1.269L197.1,85.76l3.136-3.509c0.093,0.333,0.186,0.658,0.277,0.979l-2.901,3.453
			l2.948-3.288c0.073,0.243,0.142,0.482,0.214,0.722l-2.422,3.008l2.484-2.795c0.148,0.498,0.297,0.98,0.445,1.444l-1.884,2.615
			l1.936-2.458c0.143,0.449,0.286,0.883,0.428,1.295l-1.548,2.252l1.607-2.084c0.098,0.284,0.196,0.558,0.293,0.819l-0.873,1.919
			l0.938-1.743c0.152,0.403,0.302,0.778,0.45,1.126l-0.291,1.145l0.364-0.977C203.08,90.552,203.446,91.222,203.794,91.637z"/>
	</g>
	<g>
		
			<linearGradient id="SVGID_4_" gradientUnits="userSpaceOnUse" x1="484.1011" y1="63.3188" x2="479.0638" y2="56.1249" gradientTransform="matrix(-1 0 0 1 650.8076 0)">
			<stop  offset="0" style="stop-color:#133118"/>
			<stop  offset="0.3821" style="stop-color:#19602B"/>
			<stop  offset="1" style="stop-color:#24B34C"/>
		</linearGradient>
		<polygon fill-rule="evenodd" clip-rule="evenodd" fill="url(#SVGID_4_)" points="168.393,69.733 167.993,69.74 167.875,69.467 
			167.671,69.425 167.697,69.28 166.878,69.006 166.94,68.85 166.247,68.618 166.366,68.536 165.675,68.214 165.832,68.117 
			165.113,67.596 165.266,67.514 164.699,66.841 164.899,66.811 164.511,66.4 164.639,66.388 164.223,65.846 164.444,65.824 
			163.979,65.169 164.206,65.221 163.744,64.271 164.037,64.353 163.714,63.795 163.961,63.856 163.527,62.865 163.863,62.939 
			163.57,62.457 163.806,62.419 163.626,61.649 163.975,61.851 163.768,61.361 163.927,61.406 163.732,60.684 164.111,60.833 
			163.842,59.853 164.171,59.89 163.982,59.494 164.244,59.509 164.096,58.715 164.525,58.817 164.299,58.065 164.706,58.144 
			164.633,57.665 164.812,57.799 164.775,56.984 164.964,57.051 164.854,56.845 165.323,56.92 165.192,56.636 165.257,56.61 
			165.225,56.045 165.666,56.195 165.592,55.338 165.956,55.451 165.896,54.56 166.271,54.691 166.347,53.804 166.744,53.894 
			166.913,52.966 167.129,53.116 167.235,52.237 167.819,53.134 168.088,52.993 168.354,53.557 168.324,53.8 168.697,53.542 
			168.916,54.298 168.873,54.503 169.288,54.317 169.414,54.922 169.345,55.162 169.689,54.983 169.783,55.809 169.95,55.768 
			169.874,56.209 170.336,55.956 170.302,56.767 170.578,56.663 170.521,57.107 170.828,56.973 170.819,57.321 170.891,57.639 
			170.843,57.93 171.232,57.751 171.343,58.398 171.331,58.592 171.47,58.543 171.333,59.03 171.743,58.835 171.826,58.813 
			171.76,59.46 171.867,59.52 171.722,59.996 172.194,59.849 172.122,60.631 172.343,60.594 172.212,61.036 172.512,60.871 
			172.322,61.682 172.451,61.623 172.277,61.974 172.574,61.877 172.329,62.842 172.536,62.745 172.212,63.62 172.446,63.512 
			172.246,64.293 172.091,64.465 172.315,64.469 171.974,65.057 172.164,65.011 171.629,66.033 171.746,66.115 171.253,66.744 
			171.45,66.729 171.008,67.215 171.164,67.279 170.578,67.859 170.695,67.908 170.354,68.166 170.488,68.191 169.503,68.764 
			169.616,68.854 168.633,69.161 168.688,69.239 168.388,69.474 		"/>
		<path fill-rule="evenodd" clip-rule="evenodd" fill="#21AB4B" d="M167.235,52.237c0.121,0.411,0.222,1.01,0.309,1.751
			l-0.571-0.662l0.595,0.891c0.028,0.239,0.052,0.493,0.074,0.755l-1.143-0.838l1.155,0.973c0.014,0.198,0.031,0.4,0.046,0.613
			l-1.544-0.86l1.553,0.984c0.021,0.295,0.038,0.599,0.055,0.912l-1.976-1.069l1.984,1.193c0.018,0.325,0.033,0.662,0.05,1.01
			l-2.42-1.32l2.427,1.481c0.014,0.34,0.027,0.692,0.04,1.043l-3.02-1.604l3.027,1.814c0.014,0.419,0.026,0.846,0.036,1.279
			l-3.42-1.571l3.423,1.717c0.009,0.311,0.016,0.625,0.021,0.943l-3.837-1.575l3.841,1.717c0.003,0.214,0.009,0.427,0.012,0.644
			l-4.125-1.631l4.127,1.788c0.003,0.184,0.007,0.363,0.009,0.543l-4.168-1.755l4.17,1.927c0.003,0.28,0.007,0.564,0.01,0.846
			l-4.165-1.826l4.168,2.009c0,0.139,0.001,0.277,0.003,0.415l-4.407-1.858l4.407,2.038c0.003,0.221,0.003,0.441,0.005,0.658
			l-4.267-1.811l4.269,1.99l0.001,0.438l-4.137-1.817l4.139,2.001c0,0.214,0,0.423,0.001,0.632l-3.874-1.721l3.874,1.896
			l0.002,0.457l-3.81-1.848l3.81,2.023c0,0.19,0,0.382,0,0.568l-3.305-1.597l3.305,1.75v0.4l-2.886-1.361l2.886,1.612l-0.014,0.531
			l0.424-0.011c-0.003-0.207-0.017-0.427-0.021-0.645l2.434-1.885l-2.438,1.649l-0.003-0.266l2.955-2.199l-2.958,2.046l-0.007-0.629
			l3.465-2.577l-3.469,2.398l-0.007-0.513l3.71-2.514l-3.71,2.338l-0.01-0.67l3.72-2.524l-3.722,2.345l-0.007-0.542l3.991-2.708
			l-3.993,2.517c-0.003-0.19-0.007-0.377-0.01-0.571l3.927-2.848l-3.93,2.656c-0.003-0.295-0.011-0.595-0.016-0.891l3.863-2.618
			l-3.867,2.436c-0.007-0.337-0.014-0.674-0.022-1.011l3.281-2.226l-3.284,2.072c-0.009-0.377-0.021-0.751-0.031-1.125l3.184-2.159
			l-3.188,2.009c-0.01-0.272-0.019-0.546-0.029-0.819l2.743-1.986l-2.748,1.855v0.012c-0.011-0.304-0.024-0.606-0.037-0.905
			l2.617-1.897l-2.622,1.77c-0.012-0.235-0.024-0.471-0.036-0.699l2.46-1.777l-2.467,1.658c-0.009-0.176-0.019-0.349-0.029-0.521
			l2.072-1.563l-2.083,1.41c-0.022-0.355-0.048-0.703-0.076-1.04l1.655-1.398L168,56.475c-0.026-0.325-0.055-0.64-0.088-0.939
			l1.376-1.219l-1.388,1.096c-0.022-0.205-0.047-0.403-0.071-0.598l0.875-1.119l-0.891,0.991c-0.04-0.295-0.081-0.572-0.126-0.83
			l0.369-0.711l-0.393,0.587C167.543,53.085,167.402,52.574,167.235,52.237z"/>
	</g>
	<g>
		
			<linearGradient id="SVGID_5_" gradientUnits="userSpaceOnUse" x1="572.0044" y1="46.6802" x2="572.4173" y2="34.8563" gradientTransform="matrix(-1 0 0 1 650.8076 0)">
			<stop  offset="0" style="stop-color:#133118"/>
			<stop  offset="0.3821" style="stop-color:#19602B"/>
			<stop  offset="1" style="stop-color:#24B34C"/>
		</linearGradient>
		<polygon fill-rule="evenodd" clip-rule="evenodd" fill="url(#SVGID_5_)" points="72.58,52.298 73.013,52.631 73.335,52.425 
			73.587,52.545 73.659,52.366 74.749,52.729 74.787,52.511 75.71,52.818 75.636,52.631 76.621,52.837 76.514,52.605 77.666,52.621 
			77.552,52.404 78.645,52.123 78.443,51.928 79.157,51.791 79.024,51.674 79.855,51.419 79.629,51.213 80.594,50.87 80.307,50.747 
			81.472,50.077 81.093,49.927 81.834,49.575 81.52,49.437 82.686,48.704 82.261,48.513 82.92,48.217 82.684,47.99 83.417,47.286 
			82.893,47.222 83.461,46.852 83.251,46.774 83.966,46.141 83.448,45.992 84.423,45.135 84.034,44.907 84.516,44.626 
			84.216,44.431 84.93,43.676 84.385,43.44 85.154,42.797 84.654,42.55 85.061,42.083 84.771,42.086 85.382,41.218 85.123,41.136 
			85.389,41.001 84.82,40.702 85.163,40.497 85.106,40.415 85.537,39.819 84.946,39.625 85.62,38.742 85.14,38.57 85.825,37.638 
			85.323,37.478 85.851,36.438 85.353,36.213 85.809,35.057 85.464,35.046 85.958,33.991 84.694,34.507 84.496,34.129 
			83.816,34.534 83.679,34.825 83.444,34.238 82.682,34.892 82.589,35.151 82.26,34.608 81.701,35.177 81.613,35.491 81.358,35.012 
			80.682,35.85 80.525,35.667 80.307,36.213 79.972,35.554 79.452,36.478 79.219,36.142 78.974,36.673 78.728,36.277 78.497,36.669 
			78.2,36.958 78.05,37.317 77.748,36.804 77.176,37.421 77.055,37.646 76.933,37.481 76.752,38.132 76.435,37.579 76.359,37.489 
			75.983,38.251 75.823,38.229 75.652,38.876 75.235,38.331 74.774,39.25 74.556,39.026 74.395,39.621 74.178,39.195 73.828,40.238 
			73.725,40.07 73.673,40.597 73.415,40.25 73.016,41.51 72.859,41.233 72.609,42.46 72.425,42.15 72.103,43.175 72.152,43.493 
			71.906,43.317 71.873,44.237 71.697,44.032 71.58,45.591 71.394,45.587 71.502,46.68 71.294,46.504 71.446,47.394 71.229,47.342 
			71.473,48.457 71.311,48.416 71.508,48.977 71.342,48.894 72.03,50.328 71.842,50.334 72.711,51.471 72.595,51.513 72.763,52.014 
					"/>
		<path fill-rule="evenodd" clip-rule="evenodd" fill="#21AB4B" d="M85.958,33.991c-0.417,0.355-0.943,0.932-1.548,1.676
			l1.083-0.262l-1.272,0.494c-0.193,0.243-0.393,0.501-0.602,0.774l1.836,0.004l-1.941,0.131c-0.155,0.205-0.314,0.419-0.476,0.636
			l2.293,0.314l-2.389-0.184c-0.226,0.307-0.457,0.629-0.693,0.958l2.915,0.43l-3.008-0.299c-0.245,0.344-0.497,0.703-0.752,1.07
			l3.572,0.516l-3.693-0.345c-0.251,0.363-0.508,0.737-0.767,1.115l4.436,0.692l-4.589-0.468c-0.304,0.453-0.614,0.909-0.924,1.377
			l4.851,1.059l-4.954-0.902c-0.226,0.337-0.452,0.677-0.676,1.021l5.31,1.396l-5.413-1.242c-0.152,0.232-0.304,0.464-0.455,0.7
			l5.665,1.562l-5.778-1.391c-0.128,0.194-0.257,0.393-0.385,0.587l5.803,1.463l-5.923-1.276c-0.198,0.312-0.398,0.617-0.595,0.925
			l5.844,1.384l-5.975-1.182c-0.097,0.149-0.193,0.299-0.29,0.448l6.13,1.545l-6.258-1.347c-0.153,0.243-0.307,0.482-0.462,0.723
			l5.949,1.48l-6.073-1.286l-0.303,0.482l5.808,1.369l-5.937-1.167c-0.146,0.231-0.295,0.46-0.439,0.688l5.451,1.264l-5.572-1.069
			l-0.317,0.501l5.468,1.07l-5.589-0.876c-0.135,0.21-0.266,0.419-0.393,0.625l4.739,0.932l-4.848-0.764l-0.276,0.442l4.115,0.849
			l-4.289-0.572l-0.354,0.595l-0.457-0.359c0.145-0.225,0.315-0.456,0.467-0.688l-1.374-4.06l1.543,3.801l0.185-0.288l-1.728-4.829
			l1.838,4.661l0.441-0.685l-2.027-5.656l2.155,5.462l0.362-0.558l-2.339-5.787l2.464,5.592l0.474-0.732l-2.348-5.802l2.472,5.61
			l0.384-0.591l-2.517-6.229l2.651,6.02c0.135-0.206,0.269-0.412,0.407-0.621l-2.352-6.333l2.488,6.124
			c0.208-0.322,0.42-0.645,0.632-0.966L74.4,39.718l2.569,5.828c0.239-0.362,0.479-0.729,0.722-1.092l-2.07-5.118l2.182,4.949
			c0.269-0.408,0.542-0.812,0.811-1.212l-2.008-4.968l2.119,4.808c0.198-0.296,0.396-0.588,0.596-0.876l-1.643-4.422l1.739,4.276
			l-0.007,0.015c0.222-0.325,0.445-0.647,0.667-0.966l-1.567-4.22l1.662,4.086c0.176-0.251,0.349-0.498,0.522-0.745l-1.478-3.954
			l1.565,3.831c0.133-0.184,0.264-0.366,0.393-0.546l-1.196-3.408l1.313,3.247c0.272-0.374,0.54-0.737,0.802-1.085l-0.85-2.888
			l0.94,2.771c0.253-0.337,0.503-0.658,0.746-0.961l-0.67-2.462l0.767,2.338c0.169-0.209,0.331-0.411,0.493-0.602l-0.19-1.942
			l0.297,1.814c0.247-0.291,0.484-0.564,0.713-0.812l0.083-1.081l0.027,0.966C85.03,34.675,85.541,34.227,85.958,33.991z"/>
	</g>
	<g>
		
			<linearGradient id="SVGID_6_" gradientUnits="userSpaceOnUse" x1="552.3071" y1="79.0269" x2="546.9133" y2="71.6028" gradientTransform="matrix(-1 0 0 1 650.8076 0)">
			<stop  offset="0" style="stop-color:#133118"/>
			<stop  offset="0.3821" style="stop-color:#19602B"/>
			<stop  offset="1" style="stop-color:#24B34C"/>
		</linearGradient>
		<polygon fill-rule="evenodd" clip-rule="evenodd" fill="url(#SVGID_6_)" points="100.221,85.774 99.804,85.782 99.68,85.49 
			99.47,85.445 99.497,85.292 98.646,84.997 98.711,84.835 97.989,84.584 98.115,84.499 97.394,84.155 97.56,84.053 96.811,83.5 
			96.973,83.417 96.387,82.703 96.598,82.677 96.194,82.24 96.329,82.228 95.899,81.66 96.13,81.637 95.649,80.945 95.889,81.004 
			95.415,80.006 95.72,80.096 95.389,79.508 95.649,79.572 95.205,78.529 95.553,78.614 95.253,78.102 95.501,78.068 95.322,77.26 
			95.684,77.473 95.472,76.958 95.637,77.009 95.439,76.254 95.835,76.411 95.563,75.382 95.908,75.423 95.715,75.008 
			95.989,75.031 95.842,74.197 96.291,74.309 96.063,73.519 96.487,73.605 96.418,73.104 96.603,73.247 96.57,72.39 96.77,72.464 
			96.656,72.251 97.146,72.333 97.011,72.035 97.08,72.008 97.051,71.417 97.511,71.578 97.442,70.684 97.821,70.803 97.768,69.872 
			98.159,70.01 98.249,69.086 98.663,69.184 98.849,68.214 99.077,68.375 99.194,67.456 99.797,68.406 100.08,68.259 
			100.351,68.851 100.318,69.105 100.711,68.843 100.932,69.636 100.883,69.849 101.321,69.659 101.445,70.298 101.371,70.542 
			101.735,70.358 101.823,71.23 102,71.189 101.914,71.645 102.4,71.387 102.355,72.233 102.645,72.131 102.581,72.591 
			102.904,72.458 102.892,72.824 102.962,73.153 102.911,73.459 103.317,73.276 103.428,73.954 103.414,74.155 103.562,74.111 
			103.409,74.616 103.841,74.417 103.928,74.394 103.852,75.068 103.965,75.135 103.807,75.633 104.303,75.487 104.217,76.303 
			104.452,76.265 104.307,76.725 104.624,76.557 104.417,77.403 104.552,77.342 104.369,77.708 104.679,77.608 104.414,78.614 
			104.627,78.513 104.279,79.426 104.527,79.318 104.31,80.133 104.146,80.313 104.379,80.32 104.017,80.93 104.217,80.885 
			103.645,81.944 103.767,82.034 103.245,82.684 103.452,82.673 102.983,83.174 103.146,83.246 102.528,83.84 102.648,83.897 
			102.288,84.162 102.43,84.188 101.394,84.776 101.511,84.873 100.476,85.18 100.535,85.265 100.219,85.505 		"/>
		<path fill-rule="evenodd" clip-rule="evenodd" fill="#21AB4B" d="M99.194,67.456c0.124,0.434,0.224,1.059,0.305,1.837l-0.59-0.7
			l0.614,0.943c0.026,0.25,0.046,0.512,0.067,0.789l-1.185-0.891l1.195,1.029c0.017,0.209,0.031,0.423,0.045,0.644l-1.607-0.917
			l1.614,1.048c0.017,0.307,0.034,0.628,0.05,0.953l-2.057-1.145l2.062,1.275c0.016,0.341,0.029,0.696,0.042,1.056l-2.516-1.41
			l2.522,1.582c0.01,0.355,0.021,0.722,0.031,1.092l-3.145-1.721l3.148,1.938c0.01,0.441,0.019,0.886,0.026,1.339l-3.563-1.688
			l3.565,1.841c0.005,0.326,0.01,0.654,0.014,0.983l-4-1.69l4,1.845c0.003,0.22,0.003,0.444,0.005,0.669L95.539,76.4l4.299,1.923
			c0,0.19,0.002,0.382,0.003,0.568l-4.344-1.889l4.344,2.068c0,0.296,0,0.591,0,0.883l-4.337-1.96l4.337,2.154
			c0,0.146,0,0.288,0,0.435l-4.589-1.998l4.589,2.185c0,0.231,0,0.46-0.001,0.692l-4.446-1.949l4.444,2.132l-0.001,0.46
			l-4.308-1.952l4.306,2.144c0,0.225-0.001,0.441-0.003,0.662l-4.034-1.848l4.032,2.03l-0.005,0.479l-3.965-1.982l3.965,2.166
			C99.821,84,99.821,84.2,99.818,84.398l-3.439-1.714l3.439,1.874l-0.005,0.419l-3.003-1.463l3,1.726l-0.019,0.558l0.445-0.012
			c-0.001-0.214-0.016-0.445-0.017-0.67l2.568-1.941l-2.568,1.69l-0.002-0.276l3.115-2.263l-3.115,2.105l-0.001-0.658l3.651-2.656
			l-3.651,2.47l-0.002-0.539l3.905-2.581l-3.906,2.397v-0.703l3.92-2.593l-3.92,2.409l-0.003-0.572l4.203-2.779l-4.203,2.585
			c0-0.202-0.003-0.4-0.003-0.599l4.139-2.933l-4.139,2.728c-0.003-0.307-0.005-0.618-0.009-0.929l4.07-2.693l-4.072,2.503
			c-0.003-0.352-0.007-0.707-0.012-1.059l3.455-2.285l-3.457,2.124c-0.007-0.393-0.014-0.785-0.021-1.178l3.353-2.219l-3.356,2.065
			c-0.007-0.288-0.014-0.576-0.021-0.856l2.89-2.047l-2.893,1.904v0.015c-0.01-0.321-0.021-0.636-0.031-0.95l2.758-1.949
			l-2.762,1.818c-0.01-0.247-0.021-0.493-0.031-0.733l2.593-1.829l-2.596,1.706c-0.01-0.184-0.017-0.366-0.027-0.546l2.184-1.608
			l-2.191,1.447c-0.021-0.374-0.044-0.737-0.069-1.089l1.745-1.443L99.952,71.9c-0.024-0.341-0.052-0.67-0.083-0.984l1.451-1.257
			l-1.463,1.13c-0.021-0.217-0.043-0.423-0.067-0.625l0.928-1.159l-0.943,1.024c-0.038-0.311-0.08-0.602-0.125-0.871l0.395-0.737
			l-0.417,0.606C99.511,68.35,99.368,67.811,99.194,67.456z"/>
	</g>
	<g>
		
			<linearGradient id="SVGID_7_" gradientUnits="userSpaceOnUse" x1="432.1577" y1="71.7681" x2="417.8937" y2="67.6779" gradientTransform="matrix(-1 0 0 1 650.8076 0)">
			<stop  offset="0" style="stop-color:#133118"/>
			<stop  offset="0.3821" style="stop-color:#19602B"/>
			<stop  offset="1" style="stop-color:#24B34C"/>
		</linearGradient>
		<polygon fill-rule="evenodd" clip-rule="evenodd" fill="url(#SVGID_7_)" points="209.481,64.548 209.202,65.297 209.562,65.708 
			209.497,66.12 209.748,66.168 209.645,67.897 209.935,67.882 209.848,69.348 210.059,69.18 210.121,70.699 210.379,70.47 
			210.736,72.176 210.969,71.937 211.683,73.459 211.858,73.1 212.265,74.111 212.369,73.875 212.96,75.023 213.144,74.62 
			213.889,75.936 213.953,75.468 215.175,76.976 215.237,76.367 215.92,77.346 215.992,76.837 217.295,78.319 217.396,77.634 
			217.981,78.51 218.194,78.083 219.316,78.936 219.225,78.143 219.875,78.861 219.902,78.529 220.935,79.377 220.952,78.562 
			222.348,79.721 222.505,79.075 223.015,79.699 223.164,79.191 224.346,79.999 224.463,79.116 225.522,80.043 225.67,79.224 
			226.389,79.673 226.291,79.247 227.582,79.864 227.598,79.456 227.853,79.804 228.046,78.865 228.415,79.306 228.498,79.194 
			229.389,79.635 229.439,78.701 230.766,79.408 230.828,78.644 232.221,79.351 232.261,78.554 233.736,78.997 233.857,78.188 
			235.46,78.483 235.362,77.971 236.848,78.356 235.788,76.654 236.195,76.239 235.467,75.364 235.055,75.254 235.717,74.72 
			234.645,73.807 234.29,73.751 234.866,73.089 233.969,72.45 233.545,72.423 234.062,71.888 232.79,71.159 232.967,70.871 
			232.211,70.725 232.928,70.014 231.599,69.546 231.947,69.09 231.197,68.904 231.616,68.414 231.049,68.196 230.587,67.852 
			230.087,67.748 230.635,67.13 229.67,66.491 229.349,66.385 229.518,66.15 228.642,66.09 229.23,65.443 229.318,65.301 
			228.235,64.998 228.211,64.751 227.346,64.709 227.894,63.913 226.591,63.536 226.799,63.134 226,63.094 226.467,62.633 
			225.038,62.454 225.215,62.252 224.536,62.345 224.891,61.848 223.177,61.672 223.471,61.35 221.847,61.38 222.178,61.006 
			220.787,60.864 220.402,61.043 220.545,60.617 219.376,60.872 219.575,60.542 217.582,60.883 217.523,60.602 216.189,61.119 
			216.34,60.755 215.268,61.272 215.267,60.931 213.948,61.657 213.944,61.403 213.303,61.878 213.353,61.608 211.779,63.09 
			211.707,62.817 210.56,64.474 210.469,64.317 209.893,64.728 		"/>
		<path fill-rule="evenodd" clip-rule="evenodd" fill="#21AB4B" d="M236.848,78.356c-0.581-0.501-1.478-1.089-2.612-1.743
			l0.685,1.515l-1.04-1.717c-0.367-0.209-0.757-0.423-1.164-0.64l0.589,2.72l-0.796-2.828c-0.309-0.165-0.627-0.329-0.955-0.497
			l0.355,3.494l-0.552-3.596c-0.458-0.231-0.936-0.471-1.427-0.71l0.411,4.451l-0.605-4.549c-0.515-0.251-1.044-0.505-1.587-0.763
			l0.515,5.454l-0.774-5.574c-0.538-0.255-1.089-0.513-1.651-0.771l0.579,6.782l-0.912-6.936c-0.664-0.303-1.343-0.609-2.029-0.917
			l0.255,7.52l-0.489-7.624c-0.497-0.221-0.997-0.441-1.5-0.666l-0.019,8.309l-0.212-8.409c-0.339-0.149-0.681-0.3-1.022-0.445
			l-0.119,8.892l-0.136-9.004c-0.288-0.127-0.578-0.251-0.866-0.374l0.057,9.057l-0.331-9.177c-0.452-0.194-0.901-0.389-1.352-0.579
			l0.166,9.094l-0.462-9.221c-0.221-0.094-0.441-0.188-0.662-0.281l0.061,9.572l-0.35-9.695c-0.355-0.149-0.707-0.3-1.059-0.445
			l0.081,9.28l-0.367-9.4l-0.702-0.295l0.174,9.038l-0.469-9.162c-0.341-0.142-0.677-0.284-1.013-0.423l0.195,8.473l-0.478-8.592
			l-0.734-0.304l0.443,8.437l-0.724-8.556c-0.307-0.127-0.612-0.251-0.912-0.374l0.374,7.313l-0.624-7.419l-0.643-0.265l0.277,6.366
			l-0.683-6.531l-0.86-0.329l0.3-0.797c0.33,0.143,0.674,0.321,1.017,0.472l4.651-3.359l-4.269,3.523l0.421,0.18l5.499-4.133
			l-5.254,4.237l1.003,0.435l6.447-4.849l-6.158,4.972l0.819,0.352l6.504-5.35l-6.224,5.47l1.076,0.464l6.526-5.368l-6.244,5.487
			l0.871,0.378l7-5.757l-6.699,5.889c0.304,0.131,0.607,0.262,0.914,0.396l7.189-5.544l-6.878,5.679
			c0.471,0.206,0.945,0.412,1.417,0.617l6.778-5.57l-6.485,5.702c0.536,0.235,1.074,0.471,1.61,0.71l5.754-4.731l-5.51,4.844
			c0.6,0.266,1.197,0.535,1.788,0.805l5.586-4.594l-5.35,4.702c0.436,0.198,0.869,0.396,1.298,0.595l5.017-3.872l-4.805,3.969
			l-0.021-0.007c0.483,0.225,0.962,0.448,1.431,0.673l4.789-3.695l-4.585,3.789c0.372,0.18,0.738,0.355,1.102,0.531l4.487-3.476
			l-4.303,3.569c0.276,0.135,0.548,0.269,0.817,0.399l3.889-2.884l-3.651,3.004c0.559,0.281,1.102,0.558,1.624,0.835l3.351-2.204
			l-3.173,2.297c0.505,0.266,0.991,0.527,1.453,0.785l2.872-1.791l-2.686,1.9c0.317,0.176,0.621,0.355,0.916,0.527l2.377-0.913
			l-2.182,1.033c0.448,0.269,0.865,0.53,1.251,0.789l1.386-0.229l-1.201,0.352C235.686,77.208,236.417,77.814,236.848,78.356z"/>
	</g>
	<g>
		
			<linearGradient id="SVGID_8_" gradientUnits="userSpaceOnUse" x1="484.728" y1="28.96" x2="501.7208" y2="39.1703" gradientTransform="matrix(-0.9855 0.1696 0.1696 0.9855 650.8916 -66.1011)">
			<stop  offset="0" style="stop-color:#1A6A36"/>
			<stop  offset="1" style="stop-color:#54B948"/>
		</linearGradient>
		<polygon fill-rule="evenodd" clip-rule="evenodd" fill="url(#SVGID_8_)" points="185.745,63.178 185.046,63.791 184.488,63.486 
			184.076,63.71 183.934,63.414 182.135,64.151 182.046,63.785 180.523,64.408 180.631,64.084 178.994,64.542 179.15,64.136 
			177.214,64.292 177.383,63.916 175.518,63.561 175.837,63.213 174.624,63.06 174.835,62.851 173.413,62.512 173.775,62.141 
			172.115,61.673 172.589,61.428 170.562,60.433 171.186,60.142 169.907,59.632 170.42,59.366 168.39,58.257 169.084,57.888 
			167.95,57.466 168.326,57.051 167.026,55.95 167.9,55.787 166.909,55.228 167.252,55.073 165.99,54.085 166.849,53.777 
			165.128,52.44 165.757,52.015 164.919,51.598 165.407,51.234 164.135,50.041 165.028,49.585 163.673,48.589 164.49,48.119 
			163.759,47.377 164.247,47.347 163.141,45.953 163.566,45.793 163.109,45.593 164.035,45.025 163.44,44.716 163.528,44.574 
			162.748,43.615 163.722,43.224 162.504,41.817 163.294,41.471 162.053,39.98 162.885,39.65 161.897,37.964 162.713,37.528 
			161.835,35.629 162.413,35.573 161.484,33.854 163.661,34.579 163.958,33.925 165.142,34.526 165.402,35 165.738,33.989 
			167.083,35.006 167.266,35.431 167.769,34.475 168.762,35.371 168.94,35.893 169.326,35.058 170.543,36.393 170.788,36.068 
			171.208,36.961 171.71,35.821 172.674,37.312 173.036,36.719 173.498,37.59 173.87,36.893 174.299,37.525 174.827,37.98 
			175.115,38.569 175.575,37.668 176.594,38.65 176.818,39.013 177.009,38.719 177.378,39.793 177.859,38.831 177.978,38.671 
			178.682,39.916 178.951,39.857 179.295,40.923 179.95,39.959 180.811,41.455 181.161,41.054 181.485,42.038 181.811,41.293 
			182.5,43.016 182.657,42.722 182.796,43.603 183.196,42.986 183.986,45.067 184.226,44.585 184.762,46.623 185.043,46.08 
			185.686,47.766 185.627,48.309 186.029,47.98 186.167,49.53 186.45,49.166 186.789,51.774 187.108,51.749 187.027,53.597 
			187.361,53.281 187.189,54.8 187.551,54.683 187.243,56.585 187.515,56.501 187.234,57.468 187.506,57.311 186.484,59.798 
			186.801,59.792 185.444,61.803 185.643,61.865 185.41,62.724 		"/>
		<path fill-rule="evenodd" clip-rule="evenodd" fill="#8EC74A" d="M161.484,33.854c0.734,0.548,1.676,1.46,2.767,2.647l-1.85-0.321
			l2.191,0.692c0.348,0.387,0.712,0.797,1.084,1.231l-3.089,0.217l3.279,0.002c0.283,0.327,0.57,0.666,0.862,1.018l-3.831,0.783
			l4.006-0.57c0.41,0.488,0.829,1.001,1.257,1.53l-4.865,1.051l5.036-0.841c0.447,0.555,0.902,1.125,1.367,1.715l-5.966,1.273
			l6.185-0.992c0.46,0.583,0.926,1.18,1.396,1.789l-7.399,1.663l7.677-1.301c0.559,0.724,1.12,1.46,1.688,2.213l-8.066,2.321
			l8.261-2.065c0.409,0.542,0.819,1.089,1.231,1.638l-8.809,2.943l8.997-2.69c0.277,0.373,0.557,0.747,0.834,1.12l-9.39,3.272
			l9.597-2.992c0.234,0.317,0.467,0.634,0.704,0.95l-9.632,3.112l9.853-2.812c0.363,0.494,0.729,0.988,1.091,1.481l-9.707,2.989
			l9.943-2.661c0.179,0.243,0.354,0.484,0.533,0.729l-10.178,3.285l10.409-2.968c0.283,0.391,0.565,0.778,0.847,1.166l-9.875,3.157
			l10.103-2.843l0.56,0.772l-9.65,2.955l9.885-2.631c0.269,0.375,0.538,0.746,0.803,1.118l-9.056,2.73l9.28-2.42l0.583,0.811
			l-9.106,2.41l9.328-2.099c0.241,0.337,0.484,0.672,0.721,1.004l-7.892,2.104l8.09-1.825l0.505,0.71l-6.849,1.886l7.168-1.441
			l0.653,0.961l0.736-0.654c-0.267-0.359-0.576-0.73-0.855-1.107l1.927-6.983l-2.234,6.566l-0.341-0.465l2.453-8.319l-2.651,8.053
			l-0.811-1.101l2.875-9.757l-3.106,9.439l-0.664-0.901l3.389-10l-3.615,9.693l-0.869-1.182l3.401-10.037l-3.631,9.727l-0.703-0.954
			l3.648-10.767l-3.895,10.433c-0.245-0.33-0.491-0.663-0.74-1l3.355-10.925l-3.608,10.584c-0.382-0.517-0.767-1.033-1.155-1.553
			l3.532-10.423l-3.77,10.103c-0.44-0.585-0.881-1.171-1.322-1.761l3-8.847l-3.201,8.581c-0.495-0.656-0.991-1.307-1.483-1.948
			l2.912-8.591l-3.108,8.332c-0.366-0.474-0.728-0.945-1.089-1.41l2.344-7.626l-2.522,7.394l0.017,0.023
			c-0.408-0.527-0.817-1.044-1.219-1.553l2.239-7.275l-2.41,7.061c-0.319-0.403-0.638-0.804-0.952-1.192l2.11-6.827l-2.272,6.629
			c-0.238-0.296-0.478-0.59-0.712-0.88l1.691-5.869l-1.903,5.613c-0.495-0.599-0.978-1.178-1.454-1.734l1.157-4.957l-1.317,4.767
			c-0.462-0.536-0.91-1.049-1.348-1.536l0.895-4.22l-1.07,4.023c-0.302-0.333-0.597-0.651-0.886-0.956l0.134-3.292l-0.327,3.088
			c-0.441-0.465-0.869-0.895-1.276-1.283l-0.247-1.812l0.048,1.625C163.111,34.899,162.209,34.201,161.484,33.854z"/>
	</g>
	<g>
		
			<linearGradient id="SVGID_9_" gradientUnits="userSpaceOnUse" x1="585.1392" y1="37.1157" x2="602.652" y2="43.1459" gradientTransform="matrix(-1 0 0 1 650.8076 0)">
			<stop  offset="0" style="stop-color:#1A6A36"/>
			<stop  offset="1" style="stop-color:#54B948"/>
		</linearGradient>
		<polygon fill-rule="evenodd" clip-rule="evenodd" fill="url(#SVGID_9_)" points="66.169,56.208 65.369,56.482 64.979,56.002 
			64.55,56.047 64.522,55.738 62.728,55.708 62.769,55.356 61.25,55.326 61.445,55.086 59.88,54.874 60.144,54.582 58.417,53.994 
			58.682,53.728 57.177,52.726 57.565,52.546 56.56,51.959 56.812,51.854 55.684,51.032 56.115,50.848 54.825,49.819 55.313,49.786 
			53.869,48.166 54.503,48.147 53.555,47.227 54.086,47.186 52.676,45.469 53.393,45.409 52.543,44.62 53.001,44.399 52.222,42.958 
			53.034,43.142 52.352,42.289 52.698,42.286 51.916,40.954 52.758,41.006 51.688,39.207 52.371,39.072 51.776,38.398 
			52.312,38.264 51.588,36.756 52.505,36.693 51.648,35.324 52.505,35.218 52.107,34.306 52.54,34.463 52.021,32.84 52.441,32.859 
			52.107,32.518 53.091,32.369 52.672,31.878 52.794,31.789 52.42,30.667 53.389,30.689 52.779,29.013 53.574,29.009 52.97,27.254 
			53.796,27.277 53.474,25.448 54.32,25.374 54.16,23.398 54.681,23.566 54.417,21.726 56.075,23.17 56.541,22.713 57.377,23.675 
			57.451,24.187 58.063,23.432 58.909,24.816 58.934,25.253 59.671,24.614 60.249,25.758 60.237,26.278 60.835,25.699 
			61.469,27.307 61.785,27.12 61.868,28.051 62.664,27.248 63.026,28.901 63.528,28.519 63.653,29.447 64.198,28.983 64.369,29.694 
			64.683,30.285 64.745,30.902 65.429,30.292 66.003,31.523 66.083,31.923 66.341,31.74 66.319,32.806 67.041,32.151 67.196,32.058 
			67.412,33.397 67.664,33.45 67.625,34.504 68.498,33.914 68.772,35.53 69.199,35.312 69.17,36.289 69.687,35.761 69.742,37.512 
			69.97,37.318 69.812,38.133 70.354,37.748 70.382,39.842 70.741,39.517 70.561,41.485 70.977,41.119 70.998,42.821 70.777,43.269 
			71.229,43.134 70.859,44.53 71.216,44.32 70.686,46.71 70.97,46.804 70.315,48.379 70.705,48.229 70.075,49.483 70.425,49.516 
			69.555,51.05 69.818,51.077 69.268,51.813 69.555,51.776 67.88,53.552 68.158,53.665 66.341,54.907 66.496,55.03 66.021,55.692 		
			"/>
		<path fill-rule="evenodd" clip-rule="evenodd" fill="#8EC74A" d="M54.417,21.726c0.463,0.752,0.991,1.893,1.562,3.329
			l-1.503-0.969l1.681,1.418c0.179,0.467,0.364,0.957,0.552,1.474l-2.75-0.965l2.844,1.227c0.14,0.389,0.281,0.789,0.424,1.205
			l-3.57-0.752l3.656,0.998c0.2,0.58,0.4,1.179,0.605,1.8l-4.554-0.905l4.635,1.148c0.21,0.647,0.426,1.313,0.642,1.997
			l-5.577-1.122l5.68,1.447c0.212,0.678,0.428,1.37,0.642,2.077l-6.942-1.325l7.07,1.74c0.253,0.834,0.509,1.687,0.762,2.548
			l-7.732-0.992l7.818,1.283c0.185,0.625,0.367,1.254,0.55,1.886l-8.571-0.733l8.654,1.021c0.124,0.427,0.247,0.853,0.369,1.283
			l-9.181-0.666l9.272,0.983c0.102,0.363,0.206,0.723,0.309,1.085l-9.338-0.894l9.435,1.237c0.159,0.565,0.317,1.131,0.474,1.695
			l-9.364-1.033l9.468,1.403c0.078,0.277,0.153,0.554,0.231,0.831L52.8,45.54l9.968,1.31c0.122,0.441,0.243,0.883,0.364,1.324
			l-9.564-0.942l9.663,1.302l0.24,0.879l-9.306-1.036l9.407,1.406c0.116,0.427,0.231,0.846,0.343,1.265l-8.72-1.006l8.816,1.361
			l0.249,0.92l-8.661-1.306l8.754,1.657c0.105,0.386,0.207,0.767,0.307,1.141l-7.509-1.118l7.594,1.434l0.214,0.804l-6.539-0.916
			l6.675,1.425l0.26,1.074L66.2,56.22c-0.117-0.412-0.269-0.846-0.39-1.276l3.884-5.338l-4.021,4.859l-0.148-0.527l4.765-6.299
			l-4.851,5.992l-0.354-1.257l5.584-7.389l-5.686,7.025l-0.29-1.024l6.109-7.411l-6.208,7.056l-0.379-1.347l6.13-7.437l-6.23,7.085
			l-0.309-1.093l6.575-7.976l-6.682,7.598c-0.108-0.382-0.217-0.763-0.326-1.145l6.372-8.226l-6.482,7.837
			c-0.169-0.591-0.339-1.187-0.51-1.781l6.365-7.721l-6.47,7.358c-0.195-0.673-0.392-1.351-0.59-2.021l5.405-6.558l-5.494,6.247
			c-0.223-0.752-0.445-1.5-0.669-2.24l5.246-6.367l-5.335,6.067c-0.166-0.546-0.331-1.092-0.497-1.631l4.45-5.738l-4.532,5.473
			l0.009,0.026c-0.188-0.606-0.376-1.208-0.564-1.799l4.246-5.478l-4.327,5.223c-0.148-0.468-0.298-0.932-0.448-1.384l3.995-5.137
			l-4.07,4.9c-0.114-0.344-0.228-0.688-0.341-1.024l3.327-4.463l-3.429,4.16c-0.238-0.704-0.474-1.389-0.71-2.047l2.576-3.868
			l-2.655,3.645c-0.229-0.637-0.457-1.25-0.683-1.833l2.114-3.326L57.466,27.7c-0.155-0.4-0.31-0.785-0.462-1.155l1.159-2.806
			l-1.262,2.555c-0.238-0.569-0.472-1.1-0.702-1.59l0.36-1.661l-0.472,1.426C55.498,23.241,54.938,22.298,54.417,21.726z"/>
	</g>
	<g>
		
			<linearGradient id="SVGID_10_" gradientUnits="userSpaceOnUse" x1="447.1431" y1="21.3618" x2="462.5653" y2="31.7642" gradientTransform="matrix(-1 0 0 1 650.8076 0)">
			<stop  offset="0" style="stop-color:#1A6A36"/>
			<stop  offset="1" style="stop-color:#54B948"/>
		</linearGradient>
		<polygon fill-rule="evenodd" clip-rule="evenodd" fill="url(#SVGID_10_)" points="208.854,39.445 208.148,39.939 207.657,39.591 
			207.254,39.759 207.15,39.467 205.414,39.958 205.368,39.61 203.896,40.021 204.025,39.734 202.465,39.98 202.646,39.621 
			200.835,39.557 201.027,39.228 199.331,38.697 199.66,38.409 198.548,38.135 198.763,37.964 197.474,37.497 197.845,37.193 
			196.348,36.576 196.81,36.404 195.021,35.259 195.626,35.057 194.486,34.444 194.988,34.252 193.207,33.003 193.883,32.742 
			192.869,32.225 193.257,31.881 192.152,30.717 192.979,30.662 192.111,30.037 192.443,29.928 191.363,28.877 192.188,28.683 
			190.714,27.257 191.338,26.932 190.599,26.453 191.083,26.169 190.013,24.927 190.882,24.598 189.72,23.528 190.52,23.176 
			189.909,22.413 190.366,22.439 189.466,21.027 189.876,20.921 189.47,20.69 190.382,20.259 189.858,19.91 189.953,19.787 
			189.316,18.815 190.258,18.557 189.256,17.119 190.02,16.885 189.006,15.369 189.808,15.151 189.047,13.479 189.846,13.166 
			189.204,11.308 189.746,11.317 189.041,9.623 190.994,10.53 191.33,9.958 192.373,10.642 192.569,11.111 192.975,10.208 
			194.129,11.298 194.261,11.711 194.814,10.879 195.653,11.816 195.769,12.321 196.204,11.588 197.21,12.958 197.469,12.682 
			197.777,13.558 198.346,12.551 199.103,14.042 199.493,13.528 199.841,14.386 200.253,13.783 200.592,14.415 201.039,14.893 
			201.251,15.469 201.761,14.686 202.618,15.705 202.792,16.066 202.996,15.814 203.239,16.85 203.773,16.01 203.899,15.874 
			204.437,17.102 204.69,17.082 204.915,18.106 205.609,17.284 206.271,18.763 206.629,18.43 206.843,19.376 207.21,18.722 
			207.695,20.394 207.866,20.138 207.914,20.97 208.343,20.441 208.884,22.455 209.15,22.035 209.46,23.984 209.772,23.509 
			210.212,25.144 210.108,25.641 210.51,25.379 210.498,26.832 210.791,26.525 210.869,28.982 211.164,28.994 210.92,30.699 
			211.26,30.441 210.96,31.829 211.308,31.761 210.846,33.494 211.106,33.445 210.758,34.313 211.025,34.193 209.848,36.389 
			210.143,36.418 208.698,38.14 208.879,38.214 208.583,38.989 		"/>
		<path fill-rule="evenodd" clip-rule="evenodd" fill="#8EC74A" d="M189.041,9.623c0.631,0.589,1.42,1.535,2.326,2.755l-1.688-0.5
			l1.967,0.882c0.288,0.395,0.588,0.815,0.895,1.259l-2.886-0.133l3.041,0.356c0.231,0.335,0.467,0.682,0.707,1.039l-3.625,0.312
			l3.77-0.099c0.333,0.499,0.676,1.02,1.024,1.558l-4.61,0.449l4.748-0.237c0.364,0.561,0.734,1.143,1.11,1.739l-5.649,0.535
			l5.828-0.253c0.373,0.591,0.749,1.197,1.131,1.814l-7.018,0.739l7.242-0.374c0.45,0.731,0.905,1.477,1.362,2.236l-7.697,1.282
			l7.852-1.028c0.33,0.55,0.661,1.1,0.993,1.657l-8.44,1.776l8.59-1.522c0.224,0.374,0.448,0.752,0.672,1.13l-9.013,2.017
			l9.178-1.736c0.189,0.318,0.377,0.636,0.565,0.958l-9.218,1.845l9.396-1.541c0.291,0.497,0.584,0.994,0.874,1.492l-9.278,1.721
			l9.47-1.392c0.141,0.243,0.284,0.486,0.426,0.729l-9.742,1.952l9.928-1.631c0.226,0.393,0.453,0.782,0.677,1.171l-9.449,1.863
			l9.632-1.545l0.448,0.778l-9.223,1.697l9.411-1.368c0.216,0.374,0.431,0.748,0.643,1.118l-8.652,1.557l8.832-1.242l0.465,0.815
			l-8.668,1.249l8.845-0.938c0.195,0.34,0.386,0.677,0.576,1.014l-7.513,1.096l7.671-0.819l0.404,0.711l-6.527,1.014l6.782-0.561
			l0.517,0.957l0.743-0.527c-0.215-0.362-0.467-0.736-0.689-1.118l2.429-6.27l-2.677,5.851l-0.274-0.468l3.041-7.452l-3.2,7.183
			l-0.65-1.11l3.563-8.735l-3.75,8.417l-0.533-0.905l4.062-8.914l-4.244,8.6l-0.697-1.186l4.077-8.944l-4.26,8.63l-0.565-0.962
			l4.372-9.591l-4.568,9.259c-0.198-0.337-0.396-0.674-0.597-1.011l4.115-9.77l-4.316,9.43c-0.309-0.521-0.617-1.044-0.929-1.567
			l4.232-9.286l-4.423,8.964c-0.354-0.591-0.708-1.186-1.065-1.776l3.594-7.883l-3.758,7.613c-0.398-0.662-0.796-1.316-1.195-1.968
			l3.489-7.652l-3.649,7.391c-0.293-0.479-0.588-0.954-0.879-1.425l2.875-6.821l-3.022,6.585l0.014,0.022
			c-0.329-0.53-0.658-1.054-0.986-1.568l2.744-6.509l-2.884,6.288c-0.259-0.408-0.516-0.812-0.772-1.208l2.586-6.104l-2.717,5.903
			c-0.195-0.302-0.388-0.599-0.581-0.892l2.108-5.265l-2.281,5.004c-0.403-0.609-0.8-1.201-1.188-1.768l1.529-4.474l-1.662,4.281
			c-0.378-0.549-0.749-1.074-1.109-1.571l1.217-3.817l-1.364,3.615c-0.248-0.341-0.493-0.669-0.732-0.982l0.427-3.039l-0.586,2.828
			c-0.369-0.479-0.726-0.922-1.069-1.327l-0.061-1.708l-0.105,1.513C190.456,10.769,189.682,10.023,189.041,9.623z"/>
	</g>
	<g>
		
			<linearGradient id="SVGID_11_" gradientUnits="userSpaceOnUse" x1="609.3501" y1="45.9751" x2="618.1179" y2="63.1827" gradientTransform="matrix(-1 0 0 1 650.8076 0)">
			<stop  offset="0" style="stop-color:#1A6A36"/>
			<stop  offset="1" style="stop-color:#54B948"/>
		</linearGradient>
		<polygon fill-rule="evenodd" clip-rule="evenodd" fill="url(#SVGID_11_)" points="54.058,59.176 53.657,59.973 53.07,59.924 
			52.791,60.28 52.572,60.078 51.26,61.406 51.065,61.122 49.954,62.244 49.94,61.925 48.678,62.951 48.68,62.54 47.059,63.418 
			47.083,63.029 45.358,63.441 45.521,63.018 44.423,63.355 44.537,63.089 43.199,63.347 43.391,62.887 41.806,63.123 42.134,62.73 
			40.058,62.648 40.501,62.158 39.231,62.209 39.588,61.78 37.474,61.608 37.954,61.024 36.836,61.095 37.024,60.594 35.543,60.141 
			36.243,59.663 35.206,59.561 35.452,59.299 34.039,58.929 34.68,58.334 32.758,57.844 33.163,57.235 32.302,57.197 32.604,56.696 
			31.116,56.158 31.737,55.417 30.244,55.08 30.794,54.358 29.922,53.999 30.335,53.79 28.922,53.011 29.237,52.708 28.779,52.711 
			29.391,51.863 28.775,51.83 28.805,51.672 27.818,51.145 28.534,50.43 27.021,49.686 27.589,49.083 26.033,48.276 26.641,47.669 
			25.238,46.592 25.802,45.904 24.422,44.606 24.903,44.333 23.537,43.207 25.653,42.993 25.696,42.316 26.915,42.379 27.294,42.69 
			27.253,41.688 28.748,42.047 29.044,42.342 29.165,41.325 30.315,41.718 30.637,42.099 30.698,41.227 32.185,41.913 
			32.291,41.539 32.947,42.148 33.004,40.969 34.325,41.886 34.442,41.235 35.126,41.807 35.221,41.063 35.797,41.445 36.4,41.631 
			36.84,42.032 36.943,41.078 38.145,41.531 38.457,41.758 38.526,41.433 39.193,42.215 39.294,41.202 39.345,41.018 40.358,41.819 
			40.572,41.669 41.22,42.455 41.468,41.37 42.701,42.332 42.87,41.849 43.474,42.574 43.51,41.807 44.668,43.027 44.706,42.712 
			45.115,43.419 45.259,42.731 46.62,44.224 46.669,43.715 47.799,45.267 47.862,44.692 48.967,45.9 49.095,46.39 49.334,45.953 
			49.962,47.236 50.084,46.813 51.233,48.933 51.497,48.792 52.033,50.416 52.217,50.015 52.565,51.392 52.839,51.152 53.195,52.91 
			53.403,52.735 53.477,53.677 53.66,53.434 53.591,55.974 53.863,55.846 53.35,58.106 53.541,58.08 53.621,58.915 		"/>
		<path fill-rule="evenodd" clip-rule="evenodd" fill="#8EC74A" d="M23.537,43.207c0.815,0.19,1.925,0.617,3.254,1.22L25.09,44.86
			l2.117-0.243c0.426,0.198,0.874,0.412,1.339,0.644l-2.596,1.377l2.831-1.261c0.35,0.176,0.708,0.358,1.077,0.546l-3.049,2.15
			l3.27-2.034c0.512,0.265,1.041,0.546,1.586,0.838l-3.856,2.779l4.07-2.663c0.565,0.307,1.146,0.624,1.741,0.953l-4.734,3.394
			l5.013-3.236c0.588,0.325,1.186,0.662,1.791,1.01l-5.842,4.276l6.201-4.073c0.717,0.411,1.445,0.83,2.179,1.26l-6.203,5.11
			l6.453-4.964c0.529,0.311,1.063,0.624,1.598,0.942l-6.639,5.926l6.883-5.784c0.362,0.218,0.724,0.431,1.086,0.647l-7.035,6.438
			l7.306-6.277c0.305,0.184,0.61,0.367,0.915,0.55l-7.292,6.39l7.582-6.214c0.478,0.284,0.951,0.572,1.425,0.86l-7.399,6.312
			l7.711-6.124c0.233,0.142,0.464,0.284,0.697,0.427l-7.708,6.752l8.011-6.569c0.373,0.229,0.743,0.456,1.11,0.681l-7.487,6.524
			l7.787-6.341l0.736,0.452l-7.361,6.263l7.671-6.071c0.355,0.217,0.707,0.438,1.057,0.65l-6.921,5.847l7.218-5.663l0.767,0.479
			l-7.07,5.581l7.363-5.402c0.321,0.198,0.638,0.396,0.95,0.591l-6.122,4.853l6.384-4.688l0.669,0.415l-5.294,4.265l5.714-3.999
			l0.876,0.576l0.422-0.849c-0.348-0.21-0.736-0.408-1.098-0.625l-0.621-6.771l0.217,6.527l-0.445-0.27l-0.602-8.121l0.343,7.968
			l-1.06-0.64l-0.707-9.524l0.404,9.341l-0.866-0.523l-0.345-9.936l0.048,9.756l-1.134-0.685l-0.347-9.97l0.048,9.79l-0.92-0.554
			l-0.373-10.69l0.052,10.5c-0.321-0.191-0.643-0.386-0.965-0.58l-0.678-10.717l0.349,10.522c-0.5-0.299-1.002-0.599-1.505-0.897
			l-0.358-10.352l0.048,10.168c-0.571-0.337-1.143-0.674-1.715-1.011l-0.305-8.786l0.042,8.634c-0.64-0.374-1.279-0.745-1.916-1.111
			l-0.294-8.533l0.04,8.387c-0.469-0.269-0.936-0.534-1.4-0.8l-0.469-7.481l0.239,7.351l0.021,0.015
			c-0.522-0.295-1.043-0.587-1.557-0.872l-0.447-7.141l0.228,7.021c-0.407-0.225-0.81-0.445-1.21-0.662l-0.409-6.703l0.205,6.595
			c-0.303-0.165-0.605-0.326-0.903-0.482l-0.458-5.72l0.193,5.577c-0.623-0.325-1.231-0.64-1.821-0.938l-0.622-4.722l0.42,4.62
			c-0.572-0.284-1.129-0.554-1.665-0.808l-0.607-3.984l0.39,3.884c-0.367-0.173-0.726-0.334-1.074-0.483l-0.962-2.896l0.729,2.791
			c-0.536-0.229-1.045-0.434-1.522-0.613l-0.805-1.471l0.572,1.384C25.285,43.483,24.278,43.225,23.537,43.207z"/>
	</g>
	<g>
		
			<linearGradient id="SVGID_12_" gradientUnits="userSpaceOnUse" x1="620.3315" y1="-13.6421" x2="611.9419" y2="2.8235" gradientTransform="matrix(-0.8371 0.5471 0.5471 0.8371 584.1844 -249.9816)">
			<stop  offset="0" style="stop-color:#1A6A36"/>
			<stop  offset="1" style="stop-color:#54B948"/>
		</linearGradient>
		<polygon fill-rule="evenodd" clip-rule="evenodd" fill="url(#SVGID_12_)" points="70.601,64.742 71.313,65.215 71.235,65.847 
			71.549,66.169 71.351,66.396 72.506,67.887 72.235,68.083 73.211,69.348 72.916,69.343 73.793,70.767 73.418,70.744 
			74.142,72.545 73.785,72.499 74.073,74.39 73.692,74.191 73.945,75.397 73.706,75.258 73.873,76.721 73.461,76.492 73.592,78.221 
			73.249,77.844 73.068,80.09 72.637,79.583 72.62,80.961 72.244,80.553 71.971,82.833 71.461,82.285 71.468,83.499 71.016,83.271 
			70.525,84.852 70.12,84.067 69.972,85.186 69.744,84.906 69.331,86.418 68.817,85.693 68.263,87.751 67.726,87.28 67.645,88.209 
			67.198,87.855 66.627,89.44 65.978,88.729 65.588,90.328 64.954,89.698 64.578,90.625 64.403,90.164 63.614,91.652 63.352,91.296 
			63.334,91.792 62.584,91.086 62.519,91.75 62.375,91.708 61.84,92.75 61.221,91.941 60.454,93.54 59.932,92.891 59.104,94.538 
			58.58,93.845 57.518,95.309 56.913,94.666 55.643,96.088 55.417,95.556 54.31,96.976 54.226,94.671 53.603,94.59 53.726,93.275 
			54.031,92.879 53.105,92.871 53.515,91.271 53.803,90.966 52.872,90.782 53.291,89.556 53.662,89.227 52.865,89.116 53.57,87.54 
			53.231,87.404 53.826,86.727 52.743,86.602 53.658,85.22 53.065,85.06 53.627,84.349 52.946,84.205 53.327,83.601 53.534,82.958 
			53.924,82.502 53.051,82.339 53.529,81.062 53.755,80.737 53.458,80.643 54.215,79.963 53.286,79.8 53.119,79.735 53.91,78.678 
			53.784,78.442 54.541,77.779 53.557,77.454 54.501,76.167 54.07,75.959 54.769,75.344 54.063,75.262 55.246,74.072 54.96,74.014 
			55.632,73.61 55.008,73.417 56.449,72.019 55.987,71.941 57.473,70.798 56.946,70.698 58.115,69.565 58.573,69.45 58.184,69.167 
			59.396,68.554 59.015,68.4 61.026,67.267 60.907,66.972 62.431,66.476 62.069,66.254 63.355,65.952 63.15,65.641 64.792,65.349 
			64.636,65.115 65.508,65.083 65.293,64.872 67.629,65.08 67.525,64.778 69.579,65.453 69.565,65.244 70.337,65.201 		"/>
		<path fill-rule="evenodd" clip-rule="evenodd" fill="#8EC74A" d="M54.31,96.976c0.221-0.871,0.669-2.052,1.293-3.46l0.312,1.865
			l-0.116-2.308c0.205-0.45,0.428-0.926,0.662-1.418l1.133,2.885l-1.012-3.131c0.178-0.372,0.364-0.75,0.56-1.139l1.819,3.415
			l-1.703-3.649c0.272-0.541,0.557-1.102,0.855-1.674l2.356,4.321l-2.239-4.548c0.312-0.597,0.635-1.209,0.967-1.834l2.875,5.303
			l-2.715-5.6c0.331-0.619,0.672-1.249,1.022-1.888l3.634,6.555l-3.427-6.934c0.415-0.755,0.841-1.521,1.274-2.292l4.378,6.985
			l-4.232-7.252c0.313-0.556,0.629-1.12,0.95-1.682l5.11,7.503l-4.963-7.76c0.217-0.381,0.433-0.763,0.65-1.145l5.56,7.959
			l-5.397-8.244c0.186-0.32,0.369-0.642,0.553-0.964l5.503,8.236l-5.327-8.541c0.29-0.5,0.579-0.998,0.869-1.5l5.422,8.346
			l-5.232-8.672c0.143-0.245,0.285-0.488,0.426-0.731l5.812,8.7l-5.624-9.021c0.228-0.394,0.455-0.783,0.683-1.167l5.615,8.451
			l-5.43-8.765l0.455-0.775l5.38,8.3l-5.189-8.626c0.219-0.375,0.438-0.745,0.657-1.11l5.017,7.803L68.67,69.66l0.478-0.804
			l4.77,7.946l-4.587-8.259c0.2-0.334,0.398-0.667,0.593-0.997l4.146,6.886l-3.98-7.16l0.419-0.703l3.649,5.957l-3.386-6.399
			l0.576-0.922l-0.76-0.499c-0.21,0.365-0.412,0.775-0.632,1.155l-6.261,0.32l6.018,0.107l-0.271,0.465l-7.51,0.229l7.351,0.044
			l-0.642,1.115l-8.802,0.267l8.618,0.053l-0.526,0.909l-9.163-0.143l8.983,0.458l-0.691,1.191l-9.194-0.145l9.015,0.459
			l-0.559,0.968l-9.859-0.153l9.666,0.491c-0.191,0.337-0.386,0.676-0.583,1.016l-9.9,0.175l9.704,0.172
			c-0.3,0.525-0.604,1.053-0.905,1.583l-9.543-0.148l9.361,0.476c-0.341,0.6-0.683,1.204-1.022,1.807l-8.104-0.13l7.949,0.404
			c-0.377,0.675-0.753,1.349-1.12,2.021l-7.87-0.127l7.72,0.395c-0.272,0.495-0.541,0.987-0.809,1.476l-6.909,0.118l6.78,0.126
			l0.012-0.022c-0.3,0.552-0.595,1.097-0.882,1.639l-6.598,0.111l6.474,0.121c-0.228,0.429-0.45,0.855-0.671,1.275l-6.19,0.096
			l6.077,0.118c-0.164,0.323-0.328,0.641-0.489,0.956l-5.286,0.199l5.142,0.081c-0.333,0.656-0.653,1.299-0.958,1.922l-4.378,0.429
			l4.277-0.213c-0.295,0.605-0.572,1.191-0.833,1.761l-3.7,0.45l3.594-0.22c-0.176,0.389-0.343,0.77-0.501,1.138l-2.711,0.891
			l2.606-0.642c-0.24,0.567-0.457,1.106-0.646,1.616l-1.395,0.796l1.303-0.549C54.656,95.1,54.369,96.174,54.31,96.976z"/>
	</g>
	<g>
		
			<linearGradient id="SVGID_13_" gradientUnits="userSpaceOnUse" x1="471.4673" y1="91.2603" x2="453.5642" y2="92.5122" gradientTransform="matrix(-1 0 0 1 650.8076 0)">
			<stop  offset="0" style="stop-color:#1A6A36"/>
			<stop  offset="1" style="stop-color:#54B948"/>
		</linearGradient>
		<polygon fill-rule="evenodd" clip-rule="evenodd" fill="url(#SVGID_13_)" points="185.56,73.282 186.395,73.364 186.585,73.962 
			186.998,74.101 186.913,74.4 188.558,75.175 188.397,75.482 189.791,76.139 189.527,76.282 190.896,77.127 190.549,77.292 
			191.937,78.552 191.599,78.683 192.633,80.236 192.212,80.244 192.933,81.201 192.664,81.194 193.416,82.42 192.95,82.414 
			193.781,83.898 193.319,83.726 194.078,85.825 193.486,85.578 194.037,86.824 193.533,86.636 194.228,88.81 193.543,88.567 
			194.05,89.652 193.55,89.663 193.761,91.316 193.076,90.811 193.405,91.881 193.085,91.743 193.336,93.295 192.578,92.899 
			192.93,95.005 192.252,94.844 192.562,95.715 192.02,95.619 192.157,97.309 191.285,96.988 191.595,98.607 190.766,98.349 
			190.813,99.359 190.468,99.034 190.375,100.748 189.992,100.556 190.18,101.009 189.218,100.739 189.434,101.365 189.289,101.398 
			189.237,102.591 188.349,102.165 188.322,103.967 187.585,103.639 187.523,105.512 186.769,105.146 186.42,106.971 
			185.613,106.688 185.063,108.577 184.641,108.21 184.236,110.017 183.214,107.997 182.621,108.225 182.19,106.987 182.3,106.485 
			181.469,106.927 181.178,105.295 181.311,104.88 180.402,105.168 180.273,103.867 180.466,103.396 179.709,103.679 
			179.692,101.929 179.335,101.974 179.586,101.076 178.568,101.488 178.816,99.808 178.22,99.954 178.432,99.045 177.763,99.247 
			177.856,98.521 177.775,97.844 177.935,97.25 177.09,97.526 176.994,96.149 177.06,95.75 176.756,95.813 177.152,94.833 
			176.256,95.139 176.08,95.162 176.353,93.834 176.142,93.68 176.545,92.722 175.532,92.906 175.853,91.301 175.377,91.324 
			175.749,90.433 175.087,90.703 175.656,89.065 175.377,89.15 175.811,88.462 175.17,88.593 175.887,86.644 175.439,86.797 
			176.301,85.058 175.787,85.222 176.37,83.64 176.732,83.319 176.266,83.255 177.101,82.118 176.697,82.163 178.032,80.176 
			177.804,79.97 178.964,78.792 178.549,78.766 179.576,77.872 179.263,77.692 180.609,76.637 180.376,76.502 181.143,76.054 
			180.866,75.968 183.04,75.021 182.824,74.804 184.938,74.412 184.839,74.232 185.513,73.82 		"/>
		<path fill-rule="evenodd" clip-rule="evenodd" fill="#8EC74A" d="M184.236,110.017c-0.164-0.887-0.246-2.159-0.267-3.727
			l1.045,1.522l-1.05-2.009c-0.001-0.505,0.002-1.036,0.011-1.59l2.198,2.031l-2.193-2.312c0.007-0.419,0.018-0.849,0.033-1.29
			l3.033,2.177l-3.024-2.443c0.021-0.613,0.045-1.253,0.076-1.911l3.886,2.728l-3.874-2.985c0.033-0.685,0.071-1.392,0.112-2.114
			l4.754,3.355l-4.734-3.695c0.042-0.715,0.088-1.444,0.138-2.185l5.948,4.107l-5.917-4.545c0.06-0.875,0.126-1.77,0.196-2.671
			l6.791,4.134l-6.768-4.441c0.05-0.65,0.104-1.305,0.157-1.967l7.659,4.241l-7.633-4.541c0.036-0.445,0.074-0.89,0.112-1.339
			l8.247,4.433l-8.218-4.766c0.033-0.378,0.065-0.752,0.098-1.13l8.31,4.706l-8.277-5.065c0.052-0.587,0.105-1.175,0.159-1.762
			l8.287,4.845l-8.251-5.23c0.028-0.287,0.052-0.572,0.08-0.86l8.782,4.976l-8.746-5.353c0.043-0.46,0.088-0.921,0.131-1.377
			l8.5,4.848l-8.464-5.218l0.09-0.913l8.23,4.825l-8.194-5.207c0.043-0.441,0.088-0.879,0.129-1.312l7.701,4.552l-7.663-4.919
			l0.096-0.954l7.539,4.808l-7.502-5.174c0.04-0.396,0.081-0.789,0.121-1.182l6.542,4.159l-6.509-4.481l0.086-0.834l5.717,3.564
			l-5.662-4.088l0.138-1.1l-0.886-0.083c-0.038,0.431-0.052,0.895-0.09,1.343l-5.475,3.314l5.431-2.816l-0.048,0.55l-6.627,3.838
			l6.598-3.521l-0.117,1.31l-7.767,4.5l7.733-4.126l-0.096,1.07l-8.261,4.306l8.227-3.936l-0.124,1.399l-8.289,4.32l8.254-3.95
			l-0.1,1.134l-8.889,4.635l8.854-4.238c-0.035,0.396-0.069,0.793-0.104,1.193l-8.789,4.945l8.754-4.541
			c-0.053,0.613-0.106,1.234-0.158,1.854l-8.606,4.485l8.575-4.104c-0.059,0.703-0.114,1.406-0.169,2.11l-7.306,3.808l7.28-3.486
			c-0.06,0.786-0.119,1.571-0.174,2.349l-7.092,3.7l7.068-3.386c-0.04,0.573-0.079,1.146-0.115,1.71l-6.136,3.453l6.117-3.173
			l0.003-0.026c-0.042,0.641-0.08,1.272-0.116,1.896l-5.856,3.292l5.84-3.025c-0.027,0.497-0.051,0.987-0.076,1.47l-5.502,3.078
			l5.49-2.831c-0.015,0.366-0.033,0.729-0.046,1.089l-4.651,2.737l4.637-2.416c-0.028,0.748-0.052,1.478-0.065,2.185l-3.745,2.503
			l3.738-2.26c-0.014,0.681-0.019,1.343-0.018,1.976l-3.125,2.195l3.125-1.938c0.003,0.434,0.009,0.856,0.019,1.265l-2.06,2.105
			l2.067-1.837c0.019,0.625,0.047,1.213,0.088,1.763l-0.92,1.384l0.941-1.119C183.772,108.168,183.958,109.272,184.236,110.017z"/>
	</g>
	<g>
		
			<linearGradient id="SVGID_14_" gradientUnits="userSpaceOnUse" x1="438.3911" y1="-65.9805" x2="437.9827" y2="-89.3797" gradientTransform="matrix(-0.5147 0.8574 0.8574 0.5147 520.4142 -318.0699)">
			<stop  offset="0" style="stop-color:#1A6A36"/>
			<stop  offset="1" style="stop-color:#54B948"/>
		</linearGradient>
		<polygon fill-rule="evenodd" clip-rule="evenodd" fill="url(#SVGID_14_)" points="220.852,40.045 219.971,39.393 220.1,38.593 
			219.718,38.164 219.983,37.887 218.592,35.917 218.945,35.685 217.771,34.014 218.147,34.039 217.104,32.173 217.583,32.223 
			216.758,29.885 217.209,29.963 216.942,27.538 217.416,27.817 217.159,26.262 217.454,26.453 217.318,24.577 217.832,24.898 
			217.756,22.688 218.175,23.189 218.524,20.34 219.043,21.014 219.14,19.256 219.599,19.801 220.064,16.912 220.688,17.644 
			220.74,16.098 221.305,16.418 222.016,14.436 222.49,15.457 222.736,14.043 223.014,14.414 223.619,12.513 224.236,13.468 
			225.05,10.886 225.713,11.518 225.863,10.337 226.413,10.814 227.227,8.834 228.015,9.78 228.594,7.766 229.368,8.611 
			229.896,7.454 230.092,8.051 231.176,6.203 231.494,6.674 231.543,6.04 232.461,6.991 232.578,6.146 232.757,6.208 233.497,4.917 
			234.243,5.987 235.303,3.997 235.935,4.856 237.074,2.81 237.707,3.725 239.139,1.925 239.875,2.784 241.566,1.049 241.827,1.742 
			243.309,0 243.293,2.942 244.083,3.085 243.859,4.754 243.449,5.237 244.628,5.307 244.021,7.321 243.638,7.691 244.811,7.984 
			244.216,9.519 243.726,9.917 244.735,10.107 243.754,12.068 244.178,12.261 243.387,13.089 244.757,13.316 243.518,15.018 
			244.268,15.261 243.511,16.128 244.372,16.355 243.852,17.102 243.559,17.91 243.039,18.464 244.14,18.724 243.462,20.323 
			243.156,20.723 243.532,20.859 242.53,21.681 243.706,21.946 243.913,22.038 242.849,23.333 242.999,23.645 241.999,24.443 
			243.235,24.917 241.961,26.495 242.502,26.788 241.582,27.53 242.472,27.672 240.904,29.118 241.265,29.208 240.387,29.683 
			241.173,29.968 239.263,31.657 239.851,31.786 237.893,33.151 238.56,33.311 237.01,34.681 236.422,34.798 236.903,35.18 
			235.326,35.885 235.803,36.107 233.18,37.424 233.316,37.805 231.349,38.341 231.797,38.646 230.142,38.954 230.39,39.364 
			228.286,39.634 228.47,39.942 227.356,39.927 227.618,40.208 224.655,39.8 224.771,40.189 222.191,39.203 222.2,39.47 
			221.21,39.477 		"/>
		<path fill-rule="evenodd" clip-rule="evenodd" fill="#8EC74A" d="M243.309,0c-0.322,1.1-0.958,2.574-1.829,4.331l-0.298-2.398
			l0.024,2.944c-0.284,0.564-0.591,1.155-0.917,1.767L239,2.898l1.122,4.056c-0.246,0.46-0.503,0.933-0.772,1.412l-2.136-4.462
			l1.974,4.754c-0.373,0.674-0.766,1.368-1.176,2.079l-2.774-5.655l2.612,5.935c-0.426,0.742-0.872,1.504-1.329,2.279l-3.384-6.936
			l3.166,7.304c-0.457,0.767-0.926,1.548-1.403,2.34l-4.281-8.574l3.996,9.043c-0.569,0.935-1.15,1.883-1.741,2.844l-5.208-9.173
			l5.005,9.496c-0.428,0.692-0.862,1.39-1.3,2.087l-6.11-9.875l5.913,10.195c-0.296,0.47-0.595,0.941-0.891,1.413l-6.658-10.483
			l6.435,10.836c-0.253,0.398-0.505,0.795-0.757,1.191l-6.569-10.829l6.332,11.209c-0.395,0.619-0.79,1.239-1.188,1.855
			l-6.465-10.971l6.209,11.376c-0.196,0.304-0.391,0.604-0.583,0.907l-6.946-11.447l6.69,11.843
			c-0.312,0.483-0.622,0.966-0.933,1.444l-6.706-11.116l6.455,11.506l-0.621,0.957l-6.415-10.91l6.154,11.313
			c-0.3,0.463-0.602,0.919-0.896,1.375l-5.977-10.255l5.729,10.639l-0.653,0.997l-5.652-10.424l5.404,10.807
			c-0.274,0.415-0.543,0.828-0.812,1.234l-4.913-9.028l4.692,9.369l-0.571,0.866l-4.333-7.816l3.974,8.366l-0.786,1.135l0.945,0.685
			c0.286-0.452,0.565-0.963,0.865-1.435l7.996-0.015l-7.661-0.509l0.369-0.58l9.575,0.176l-9.359-0.512l0.875-1.381l11.226,0.205
			l-10.974-0.603l0.719-1.124l11.662,0.754l-11.416-1.144l0.943-1.477l11.7,0.759l-11.454-1.146l0.76-1.198l12.553,0.815
			l-12.288-1.231c0.264-0.418,0.528-0.839,0.793-1.259l12.621,0.396l-12.347-0.826c0.407-0.649,0.82-1.304,1.232-1.96l12.152,0.787
			l-11.898-1.191c0.467-0.744,0.931-1.49,1.395-2.239l10.317,0.67l-10.105-1.01c0.517-0.834,1.029-1.671,1.536-2.501l10.016,0.648
			l-9.811-0.981c0.371-0.612,0.739-1.223,1.108-1.829l8.808,0.282l-8.628-0.584l-0.017,0.029c0.41-0.683,0.813-1.362,1.212-2.035
			l8.404,0.269l-8.237-0.557c0.314-0.531,0.623-1.061,0.922-1.582l7.89,0.268l-7.733-0.535c0.228-0.397,0.454-0.791,0.674-1.184
			l6.746,0.077l-6.549-0.425c0.46-0.817,0.902-1.616,1.324-2.393l5.603-0.271l-5.46,0.005c0.403-0.753,0.788-1.483,1.151-2.19
			l4.732-0.342l-4.586,0.057c0.243-0.485,0.479-0.961,0.7-1.419l3.501-0.966l-3.354,0.656c0.334-0.707,0.64-1.382,0.908-2.02
			l1.819-0.926l-1.691,0.615C242.771,2.375,243.196,1.019,243.309,0z"/>
	</g>
	<g>
		
			<linearGradient id="SVGID_15_" gradientUnits="userSpaceOnUse" x1="585.8286" y1="-64.6587" x2="593.6334" y2="-59.1937" gradientTransform="matrix(-0.5012 0.8654 0.8654 0.5012 440.6204 -381.154)">
			<stop  offset="0" style="stop-color:#1A6A36"/>
			<stop  offset="1" style="stop-color:#54B948"/>
		</linearGradient>
		<polygon fill-rule="evenodd" clip-rule="evenodd" fill="url(#SVGID_15_)" points="99.487,95.387 99.511,95.829 99.256,95.971 
			99.223,96.196 99.088,96.173 98.859,97.086 98.713,97.025 98.52,97.797 98.437,97.668 98.159,98.444 98.063,98.273 97.603,99.089 
			97.521,98.92 96.903,99.571 96.874,99.352 96.501,99.796 96.485,99.655 95.994,100.134 95.963,99.891 95.363,100.428 
			95.406,100.174 94.529,100.719 94.598,100.393 94.086,100.768 94.132,100.493 93.219,101.01 93.275,100.635 92.834,100.976 
			92.793,100.718 92.076,100.943 92.25,100.549 91.798,100.797 91.838,100.619 91.167,100.861 91.292,100.436 90.379,100.768 
			90.403,100.404 90.04,100.629 90.045,100.336 89.304,100.53 89.386,100.053 88.69,100.33 88.747,99.878 88.302,99.972 
			88.423,99.771 87.656,99.843 87.712,99.63 87.524,99.76 87.578,99.241 87.316,99.396 87.292,99.322 86.759,99.381 86.885,98.887 
			86.085,99.001 86.175,98.592 85.344,98.693 85.449,98.273 84.615,98.22 84.685,97.778 83.81,97.625 83.94,97.379 83.113,97.296 
			83.937,96.62 83.794,96.328 84.311,96.013 84.542,96.038 84.287,95.634 84.989,95.366 85.182,95.406 84.989,94.953 85.556,94.793 
			85.78,94.861 85.601,94.487 86.376,94.354 86.332,94.169 86.745,94.238 86.49,93.737 87.25,93.745 87.149,93.447 87.566,93.493 
			87.426,93.157 87.755,93.153 88.05,93.064 88.326,93.105 88.142,92.682 88.745,92.535 88.93,92.544 88.879,92.39 89.34,92.527 
			89.142,92.079 89.121,91.991 89.728,92.04 89.781,91.918 90.234,92.061 90.081,91.544 90.814,91.597 90.772,91.353 91.191,91.484 
			91.026,91.155 91.793,91.337 91.732,91.196 92.07,91.375 91.967,91.049 92.879,91.286 92.779,91.063 93.613,91.389 93.501,91.134 
			94.244,91.327 94.415,91.493 94.41,91.248 94.972,91.599 94.923,91.39 95.897,91.948 95.974,91.813 96.579,92.335 96.558,92.119 
			97.028,92.589 97.087,92.416 97.651,93.042 97.694,92.912 97.947,93.28 97.964,93.129 98.539,94.196 98.62,94.068 98.94,95.143 
			99.016,95.078 99.246,95.401 		"/>
		<path fill-rule="evenodd" clip-rule="evenodd" fill="#8EC74A" d="M83.113,97.296c0.381-0.146,0.939-0.281,1.63-0.404l-0.596,0.654
			l0.815-0.691c0.222-0.037,0.457-0.072,0.702-0.106L84.92,98.04l0.869-1.309c0.189-0.023,0.377-0.049,0.576-0.075l-0.75,1.739
			l0.867-1.752c0.278-0.032,0.561-0.064,0.852-0.096l-0.929,2.221l1.048-2.232c0.305-0.032,0.619-0.062,0.945-0.09l-1.152,2.718
			l1.303-2.732c0.321-0.027,0.646-0.057,0.978-0.082l-1.398,3.393l1.595-3.407c0.393-0.032,0.793-0.059,1.198-0.088l-1.353,3.835
			l1.491-3.845c0.292-0.02,0.584-0.037,0.883-0.057l-1.338,4.296l1.472-4.303c0.2-0.015,0.402-0.025,0.602-0.038l-1.381,4.617
			l1.529-4.624c0.169-0.01,0.341-0.02,0.508-0.028l-1.5,4.667l1.662-4.678c0.266-0.012,0.528-0.026,0.79-0.041l-1.558,4.667
			l1.734-4.674c0.128-0.008,0.257-0.015,0.386-0.022l-1.583,4.935l1.751-4.94c0.205-0.011,0.414-0.02,0.619-0.029l-1.546,4.778
			l1.713-4.786l0.41-0.018l-1.557,4.635l1.731-4.644c0.198-0.008,0.395-0.016,0.591-0.025l-1.472,4.342l1.638-4.348l0.427-0.017
			l-1.596,4.273l1.764-4.279c0.178-0.009,0.354-0.015,0.529-0.021l-1.379,3.708l1.526-3.716l0.374-0.013l-1.174,3.235l1.412-3.242
			l0.499-0.006l-0.029-0.47c-0.191,0.01-0.396,0.037-0.599,0.049l-1.856-2.621l1.631,2.633l-0.248,0.014l-2.167-3.186l2.023,3.193
			l-0.586,0.033l-2.544-3.734l2.372,3.74l-0.479,0.025l-2.491-4.003l2.327,4.015l-0.631,0.03l-2.501-4.018l2.338,4.027l-0.514,0.028
			l-2.681-4.309l2.505,4.318c-0.176,0.01-0.355,0.021-0.534,0.029l-2.815-4.234l2.634,4.245c-0.279,0.015-0.555,0.032-0.836,0.052
			l-2.596-4.175l2.425,4.182c-0.313,0.021-0.632,0.042-0.946,0.063l-2.207-3.542l2.062,3.551c-0.352,0.025-0.703,0.05-1.055,0.074
			l-2.138-3.438l2,3.45c-0.257,0.019-0.515,0.038-0.769,0.06l-1.964-2.957l1.838,2.967l0.014-0.001
			c-0.284,0.024-0.569,0.049-0.85,0.075l-1.873-2.822l1.755,2.834c-0.22,0.018-0.441,0.04-0.655,0.063l-1.757-2.653l1.646,2.664
			c-0.166,0.018-0.329,0.034-0.49,0.052l-1.541-2.231l1.4,2.249c-0.334,0.037-0.659,0.078-0.976,0.119l-1.374-1.777l1.267,1.79
			c-0.302,0.044-0.597,0.086-0.878,0.131l-1.194-1.475l1.081,1.492c-0.193,0.033-0.378,0.065-0.557,0.102L84.43,95.62l0.96,0.948
			c-0.272,0.056-0.532,0.11-0.772,0.171l-0.681-0.384l0.565,0.413C83.897,96.922,83.423,97.097,83.113,97.296z"/>
	</g>
	<g>
		
			<linearGradient id="SVGID_16_" gradientUnits="userSpaceOnUse" x1="633.5112" y1="65.7856" x2="625.86" y2="86.8073" gradientTransform="matrix(-1 0 0 1 650.8076 0)">
			<stop  offset="0" style="stop-color:#5B8E3F"/>
			<stop  offset="1" style="stop-color:#88C540"/>
		</linearGradient>
		<polygon fill-rule="evenodd" clip-rule="evenodd" fill="url(#SVGID_16_)" points="36.602,69.789 36.499,70.764 35.895,70.974 
			35.747,71.453 35.45,71.348 34.637,73.259 34.337,73.061 33.644,74.68 33.509,74.367 32.63,75.953 32.479,75.542 31.182,77.139 
			31.061,76.738 29.486,77.917 29.489,77.419 28.517,78.243 28.531,77.928 27.286,78.777 27.307,78.235 25.803,79.169 
			25.986,78.631 23.876,79.469 24.135,78.781 22.879,79.398 23.076,78.807 20.894,79.57 21.152,78.773 20.059,79.342 20.059,78.754 
			18.408,78.957 18.928,78.167 17.849,78.526 17.998,78.152 16.442,78.411 16.86,77.528 14.75,77.887 14.925,77.097 14.05,77.438 
			14.16,76.802 12.471,76.921 12.812,75.908 11.188,76.23 11.467,75.26 10.46,75.291 10.795,74.894 9.085,74.741 9.288,74.299 
			8.83,74.505 9.123,73.386 8.495,73.623 8.464,73.45 7.278,73.361 7.727,72.328 5.927,72.25 6.271,71.397 4.406,71.273 
			4.789,70.398 2.979,69.941 3.282,68.999 1.41,68.306 1.789,67.82 0,67.3 2.041,66.148 1.827,65.449 3.072,64.973 3.568,65.116 
			3.151,64.128 4.786,63.829 5.192,63.994 4.93,62.919 6.23,62.803 6.699,63.043 6.434,62.146 8.182,62.171 8.144,61.749 
			9.03,62.067 8.647,60.863 10.316,61.195 10.188,60.492 11.088,60.765 10.905,59.976 11.626,60.099 12.302,60.024 12.891,60.226 
			12.636,59.228 14.012,59.149 14.408,59.239 14.353,58.879 15.318,59.37 15.039,58.307 15.022,58.102 16.339,58.457 16.494,58.209 
			17.442,58.711 17.284,57.514 18.876,57.929 18.866,57.376 19.746,57.835 19.494,57.05 21.111,57.757 21.032,57.428 21.708,57.956 
			21.594,57.204 23.521,58.094 23.376,57.563 25.093,58.618 24.941,58.012 26.503,58.734 26.817,59.167 26.893,58.625 
			28.003,59.631 27.969,59.157 29.917,60.772 30.127,60.51 31.275,61.903 31.31,61.419 32.175,62.643 32.361,62.284 33.382,63.888 
			33.52,63.62 33.951,64.532 34.04,64.21 34.93,66.784 35.154,66.537 35.488,69.029 35.671,68.917 36.064,69.716 		"/>
		<path fill-rule="evenodd" clip-rule="evenodd" fill="#DBE120" d="M0,67.3c0.886-0.172,2.158-0.235,3.72-0.221l-1.545,1.189
			l2.031-1.183c0.503,0.012,1.031,0.026,1.586,0.053l-2.086,2.529l2.365-2.519c0.417,0.023,0.845,0.046,1.286,0.072l-2.248,3.509
			l2.51-3.49c0.614,0.037,1.251,0.086,1.907,0.138l-2.82,4.493l3.079-4.475c0.683,0.057,1.383,0.12,2.103,0.188L8.419,73.08
			l3.81-5.462c0.71,0.067,1.435,0.139,2.172,0.218l-4.244,6.879l4.682-6.835c0.872,0.095,1.758,0.195,2.658,0.3l-4.296,7.867
			l4.599-7.833c0.648,0.078,1.303,0.156,1.958,0.235l-4.423,8.885l4.723-8.848c0.441,0.057,0.886,0.112,1.331,0.169l-4.63,9.564
			l4.961-9.523c0.376,0.048,0.751,0.097,1.127,0.146l-4.906,9.633l5.261-9.588c0.586,0.075,1.169,0.153,1.751,0.232l-5.041,9.606
			l5.427-9.555c0.286,0.038,0.572,0.079,0.855,0.116l-5.182,10.183l5.558-10.13c0.458,0.06,0.914,0.123,1.369,0.187l-5.051,9.857
			l5.42-9.805l0.907,0.127l-5.02,9.539l5.403-9.483c0.441,0.061,0.875,0.124,1.307,0.184l-4.737,8.926l5.103-8.873l0.948,0.138
			l-4.985,8.728l5.347-8.675c0.396,0.057,0.79,0.116,1.176,0.172l-4.313,7.575l4.637-7.529l0.824,0.123l-3.7,6.621l4.224-6.547
			l1.096,0.191l0.1-1.036c-0.427-0.057-0.89-0.082-1.334-0.139l-3.168-6.513l2.672,6.445l-0.545-0.071l-3.662-7.874l3.341,7.833
			l-1.3-0.172l-4.292-9.232l3.917,9.184l-1.062-0.139l-4.086-9.808l3.72,9.759l-1.396-0.183l-4.096-9.843l3.73,9.794l-1.131-0.146
			l-4.396-10.558l4.003,10.505c-0.393-0.049-0.79-0.101-1.186-0.149l-4.713-10.444l4.31,10.392
			c-0.614-0.078-1.228-0.157-1.845-0.231l-4.258-10.217l3.875,10.168c-0.696-0.082-1.399-0.168-2.1-0.251l-3.613-8.675l3.292,8.638
			c-0.782-0.094-1.562-0.18-2.337-0.266l-3.506-8.421l3.196,8.388c-0.572-0.063-1.141-0.124-1.707-0.18l-3.282-7.295l3.003,7.265
			l0.028,0.004c-0.635-0.067-1.266-0.128-1.89-0.184l-3.134-6.961l2.868,6.935c-0.489-0.045-0.979-0.086-1.461-0.127l-2.931-6.539
			l2.686,6.521c-0.365-0.03-0.728-0.056-1.086-0.083L9.137,61.36l2.292,5.507c-0.745-0.057-1.472-0.102-2.175-0.135l-2.403-4.459
			l2.162,4.443c-0.683-0.029-1.341-0.056-1.972-0.071l-2.11-3.726l1.855,3.723C6.351,66.63,5.93,66.63,5.523,66.63l-2.052-2.473
			l1.779,2.473c-0.621,0.008-1.21,0.026-1.755,0.061l-1.362-1.119l1.096,1.134C1.855,66.803,0.748,66.994,0,67.3z"/>
		<polygon fill-rule="evenodd" clip-rule="evenodd" fill="#DBE120" points="37.071,69.859 36.602,69.754 36.499,70.764 
			36.895,70.832 		"/>
	</g>
	<g>
		
			<linearGradient id="SVGID_17_" gradientUnits="userSpaceOnUse" x1="535.6577" y1="-23.6709" x2="526.1553" y2="-8.4639" gradientTransform="matrix(-0.5841 0.8117 0.8117 0.5841 491.6223 -322.6948)">
			<stop  offset="0" style="stop-color:#5B8E3F"/>
			<stop  offset="1" style="stop-color:#88C540"/>
		</linearGradient>
		<polygon fill-rule="evenodd" clip-rule="evenodd" fill="url(#SVGID_17_)" points="169.072,83.468 169.734,83.891 169.678,84.471 
			169.969,84.761 169.792,84.972 170.877,86.318 170.633,86.502 171.551,87.64 171.281,87.644 172.11,88.929 171.764,88.915 
			172.462,90.553 172.132,90.518 172.431,92.246 172.077,92.073 172.333,93.174 172.112,93.053 172.291,94.39 171.907,94.189 
			172.062,95.773 171.739,95.434 171.612,97.496 171.208,97.042 171.217,98.309 170.865,97.942 170.657,100.039 170.179,99.547 
			170.207,100.658 169.788,100.458 169.366,101.919 168.979,101.209 168.866,102.239 168.65,101.987 168.298,103.382 
			167.812,102.727 167.342,104.625 166.838,104.207 166.783,105.059 166.37,104.748 165.87,106.211 165.264,105.575 
			164.937,107.049 164.34,106.481 164.015,107.338 163.847,106.922 163.151,108.307 162.903,107.983 162.892,108.44 
			162.196,107.807 162.147,108.417 162.013,108.384 161.541,109.351 160.96,108.62 160.286,110.104 159.792,109.52 159.065,111.046 
			158.57,110.422 157.621,111.79 157.055,111.21 155.916,112.543 155.697,112.058 154.71,113.386 154.59,111.274 154.019,111.214 
			154.105,110.001 154.379,109.633 153.53,109.645 153.876,108.168 154.135,107.881 153.281,107.734 153.642,106.601 
			153.973,106.289 153.242,106.206 153.859,104.743 153.549,104.628 154.08,103.993 153.086,103.903 153.898,102.615 
			153.351,102.479 153.855,101.815 153.228,101.698 153.566,101.136 153.744,100.542 154.093,100.117 153.29,99.985 153.707,98.803 
			153.909,98.5 153.635,98.421 154.316,97.778 153.461,97.651 153.307,97.594 154.012,96.608 153.892,96.392 154.574,95.768 
			153.666,95.492 154.511,94.292 154.111,94.111 154.74,93.531 154.092,93.472 155.155,92.356 154.893,92.308 155.502,91.922 
			154.926,91.758 156.223,90.446 155.795,90.383 157.14,89.304 156.655,89.223 157.708,88.159 158.124,88.044 157.764,87.794 
			158.863,87.205 158.51,87.071 160.335,85.992 160.222,85.722 161.61,85.235 161.275,85.041 162.449,84.733 162.254,84.455 
			163.752,84.149 163.608,83.94 164.409,83.891 164.209,83.704 166.352,83.842 166.254,83.569 168.148,84.143 168.131,83.952 
			168.84,83.897 		"/>
		<path fill-rule="evenodd" clip-rule="evenodd" fill="#DBE120" d="M154.71,113.386c0.185-0.805,0.574-1.896,1.123-3.204
			l0.319,1.705l-0.146-2.111c0.181-0.419,0.374-0.86,0.583-1.315l1.089,2.623l-0.982-2.854c0.155-0.344,0.321-0.694,0.491-1.056
			l1.732,3.096l-1.631-3.312c0.24-0.503,0.492-1.022,0.753-1.553l2.241,3.915l-2.136-4.124c0.274-0.556,0.56-1.126,0.855-1.706
			l2.734,4.805l-2.594-5.081c0.293-0.574,0.596-1.159,0.905-1.753l3.45,5.935l-3.267-6.287c0.365-0.699,0.745-1.411,1.127-2.129
			l4.141,6.314l-4.012-6.561c0.279-0.518,0.557-1.04,0.841-1.564l4.824,6.774l-4.694-7.014c0.191-0.354,0.384-0.708,0.578-1.062
			l5.241,7.182l-5.096-7.446c0.161-0.299,0.324-0.597,0.488-0.896l5.196,7.437l-5.041-7.721c0.257-0.465,0.514-0.929,0.771-1.392
			l5.125,7.54l-4.958-7.845c0.126-0.229,0.251-0.456,0.379-0.681l5.489,7.857l-5.325-8.156c0.204-0.365,0.405-0.726,0.607-1.087
			l5.304,7.636l-5.141-7.928l0.403-0.719l5.086,7.501l-4.917-7.805c0.195-0.348,0.39-0.691,0.583-1.033l4.744,7.053l-4.582-7.341
			l0.424-0.751l4.52,7.193l-4.358-7.481c0.178-0.312,0.354-0.622,0.527-0.929l3.925,6.229l-3.782-6.483l0.375-0.652l3.455,5.389
			l-3.22-5.8l0.512-0.857l-0.708-0.444c-0.185,0.343-0.362,0.722-0.557,1.078l-5.739,0.424l5.521-0.032l-0.238,0.437l-6.885,0.369
			l6.747-0.116l-0.572,1.035l-8.069,0.434l7.906-0.137l-0.467,0.846l-8.406,0.064l8.247,0.228l-0.61,1.109l-8.437,0.062l8.274,0.229
			l-0.491,0.902l-9.049,0.064l8.875,0.247c-0.169,0.314-0.34,0.63-0.516,0.944l-9.076,0.371l8.902-0.051
			c-0.265,0.491-0.531,0.982-0.8,1.476l-8.761,0.061l8.599,0.243c-0.302,0.557-0.606,1.117-0.905,1.677l-7.439,0.054l7.303,0.203
			c-0.334,0.627-0.669,1.251-0.993,1.875l-7.221,0.052l7.09,0.198c-0.241,0.46-0.481,0.917-0.717,1.369l-6.337,0.256l6.22-0.029
			l0.012-0.023c-0.264,0.513-0.526,1.021-0.779,1.526l-6.049,0.243l5.941-0.029c-0.202,0.401-0.398,0.796-0.595,1.187l-5.677,0.215
			l5.581-0.017c-0.148,0.3-0.292,0.593-0.435,0.885l-4.844,0.296l4.718-0.035c-0.294,0.609-0.576,1.207-0.845,1.785l-4.01,0.485
			l3.92-0.286c-0.26,0.561-0.503,1.105-0.731,1.633l-3.384,0.492l3.291-0.279c-0.155,0.361-0.3,0.715-0.441,1.055l-2.47,0.875
			l2.377-0.645c-0.208,0.525-0.396,1.026-0.562,1.495l-1.266,0.761l1.188-0.53C154.992,111.655,154.749,112.649,154.71,113.386z"/>
		<polygon fill-rule="evenodd" clip-rule="evenodd" fill="#DBE120" points="169.285,83.098 169.048,83.459 169.734,83.891 
			169.919,83.582 		"/>
	</g>
	<g>
		
			<linearGradient id="SVGID_18_" gradientUnits="userSpaceOnUse" x1="411.228" y1="107.5591" x2="395.8582" y2="120.0053" gradientTransform="matrix(-0.6973 -0.7168 -0.7168 0.6973 513.2456 280.6396)">
			<stop  offset="0" style="stop-color:#5B8E3F"/>
			<stop  offset="1" style="stop-color:#88C540"/>
		</linearGradient>
		<polygon fill-rule="evenodd" clip-rule="evenodd" fill="url(#SVGID_18_)" points="164.966,68.835 164.678,69.645 164.12,69.676 
			163.897,70.051 163.665,69.889 162.58,71.324 162.365,71.083 161.446,72.295 161.396,71.994 160.322,73.134 160.275,72.75 
			158.846,73.8 158.824,73.427 157.243,74.052 157.348,73.631 156.35,74.096 156.428,73.833 155.193,74.259 155.321,73.8 
			153.85,74.237 154.116,73.82 152.144,74.03 152.506,73.505 151.314,73.726 151.601,73.274 149.583,73.395 149.966,72.782 
			148.922,73 149.042,72.501 147.591,72.279 148.196,71.729 147.205,71.777 147.406,71.492 146.029,71.339 146.565,70.688 
			144.691,70.488 145.001,69.857 144.188,69.936 144.412,69.424 142.945,69.119 143.445,68.335 141.997,68.22 142.433,67.463 
			141.567,67.243 141.933,66.987 140.507,66.448 140.769,66.119 140.338,66.185 140.816,65.301 140.233,65.348 140.242,65.197 
			139.25,64.835 139.842,64.064 138.327,63.566 138.793,62.921 137.23,62.368 137.733,61.712 136.284,60.889 136.737,60.161 
			135.286,59.121 135.706,58.796 134.284,57.922 136.258,57.433 136.222,56.786 137.378,56.681 137.773,56.922 137.62,55.978 
			139.071,56.116 139.385,56.354 139.381,55.375 140.512,55.589 140.862,55.906 140.817,55.077 142.304,55.516 142.36,55.15 
			143.05,55.635 142.967,54.513 144.321,55.202 144.355,54.569 145.069,55.016 145.072,54.301 145.662,54.583 146.253,54.679 
			146.713,54.994 146.701,54.081 147.887,54.341 148.208,54.517 148.235,54.198 148.958,54.848 148.936,53.873 148.961,53.693 
			150.011,54.312 150.196,54.142 150.897,54.796 151.009,53.74 152.283,54.475 152.387,54 153.042,54.601 152.985,53.873 
			154.221,54.865 154.223,54.566 154.688,55.177 154.747,54.507 156.207,55.727 156.191,55.244 157.439,56.556 157.433,56 
			158.617,56.994 158.793,57.439 158.97,56.992 159.711,58.119 159.777,57.704 161.108,59.548 161.341,59.378 162.034,60.838 
			162.163,60.435 162.651,61.686 162.884,61.421 163.423,63.037 163.599,62.84 163.778,63.721 163.921,63.468 164.151,65.876 
			164.394,65.718 164.171,67.922 164.349,67.873 164.521,68.65 		"/>
		<path fill-rule="evenodd" clip-rule="evenodd" fill="#DBE120" d="M134.284,57.922c0.792,0.067,1.89,0.317,3.217,0.708l-1.557,0.64
			l1.969-0.518c0.428,0.128,0.874,0.272,1.341,0.428l-2.294,1.653l2.529-1.579c0.352,0.118,0.712,0.242,1.081,0.369l-2.631,2.447
			l2.852-2.367c0.515,0.182,1.048,0.374,1.598,0.573l-3.322,3.152l3.534-3.069c0.574,0.21,1.158,0.433,1.758,0.661l-4.081,3.852
			l4.362-3.742c0.595,0.229,1.196,0.466,1.81,0.71l-5.023,4.839l5.384-4.693c0.726,0.289,1.462,0.584,2.203,0.89l-5.265,5.674
			l5.52-5.571c0.536,0.223,1.076,0.445,1.617,0.672l-5.581,6.507l5.831-6.405c0.365,0.156,0.734,0.31,1.1,0.466l-5.896,7.04
			l6.171-6.927c0.311,0.131,0.619,0.262,0.929,0.393l-6.147,7.033l6.44-6.904c0.483,0.206,0.966,0.41,1.448,0.616l-6.259,6.974
			l6.573-6.836c0.236,0.101,0.47,0.202,0.707,0.304l-6.496,7.429l6.803-7.294c0.379,0.164,0.755,0.325,1.131,0.487l-6.316,7.188
			l6.62-7.054l0.748,0.325l-6.227,6.922l6.541-6.782c0.36,0.157,0.719,0.315,1.076,0.471l-5.858,6.465l6.156-6.33l0.779,0.344
			l-6.027,6.238l6.327-6.109c0.326,0.145,0.648,0.289,0.967,0.431l-5.22,5.417l5.484-5.299l0.681,0.302l-4.504,4.752l4.936-4.562
			l0.891,0.426l0.302-0.86c-0.355-0.147-0.741-0.283-1.11-0.438l-1.372-6.31l0.96,6.136l-0.448-0.194l-1.512-7.589l1.25,7.479
			l-1.076-0.459l-1.772-8.898l1.463,8.768l-0.877-0.379l-1.479-9.336l1.177,9.21l-1.151-0.491l-1.484-9.369l1.184,9.238
			l-0.936-0.396l-1.589-10.049l1.267,9.91c-0.326-0.138-0.652-0.276-0.981-0.411l-1.884-10.03l1.55,9.887
			c-0.505-0.214-1.014-0.428-1.525-0.639l-1.54-9.729l1.228,9.594c-0.581-0.238-1.161-0.478-1.74-0.717l-1.307-8.26l1.04,8.15
			c-0.646-0.267-1.293-0.53-1.938-0.788l-1.269-8.019l1.012,7.914c-0.474-0.19-0.947-0.379-1.416-0.563l-1.31-7.004l1.077,6.911
			l0.021,0.012c-0.528-0.208-1.052-0.412-1.571-0.609l-1.25-6.685l1.029,6.599c-0.41-0.156-0.817-0.31-1.22-0.459l-1.164-6.275
			l0.96,6.199c-0.307-0.112-0.61-0.225-0.908-0.332l-1.098-5.34l0.829,5.242c-0.624-0.224-1.234-0.438-1.829-0.638l-1.136-4.374
			l0.933,4.308c-0.57-0.192-1.125-0.372-1.664-0.536l-1.036-3.682l0.817,3.615c-0.366-0.109-0.724-0.213-1.071-0.311l-1.241-2.603
			l1.01,2.539c-0.533-0.143-1.034-0.27-1.508-0.375l-0.931-1.278l0.7,1.23C135.966,57.945,134.987,57.839,134.284,57.922z"/>
		<polygon fill-rule="evenodd" clip-rule="evenodd" fill="#DBE120" points="165.349,69.01 164.971,68.807 164.678,69.645 
			165,69.795 		"/>
	</g>
	<g>
		
			<linearGradient id="SVGID_19_" gradientUnits="userSpaceOnUse" x1="637.1089" y1="-11.3794" x2="628.8921" y2="-4.9598" gradientTransform="matrix(-0.8285 0.56 0.56 0.8285 576.1853 -262.2272)">
			<stop  offset="0" style="stop-color:#5B8E3F"/>
			<stop  offset="1" style="stop-color:#88C540"/>
		</linearGradient>
		<polygon fill-rule="evenodd" clip-rule="evenodd" fill="url(#SVGID_19_)" points="47.554,76.38 47.945,76.634 47.909,76.978 
			48.083,77.149 47.975,77.272 48.616,78.071 48.471,78.182 49.011,78.856 48.852,78.861 49.34,79.623 49.136,79.614 49.543,80.583 
			49.349,80.563 49.522,81.587 49.314,81.482 49.46,82.134 49.33,82.062 49.435,82.858 49.207,82.735 49.295,83.674 49.102,83.472 
			49.026,84.694 48.787,84.421 48.79,85.172 48.582,84.952 48.454,86.196 48.171,85.902 48.185,86.561 47.937,86.439 47.683,87.302 
			47.458,86.881 47.388,87.492 47.259,87.342 47.049,88.166 46.764,87.78 46.481,88.903 46.184,88.652 46.149,89.156 45.902,88.969 
			45.604,89.834 45.248,89.456 45.049,90.328 44.699,89.994 44.504,90.499 44.406,90.25 43.989,91.069 43.844,90.878 43.837,91.149 
			43.423,90.771 43.394,91.131 43.315,91.112 43.032,91.68 42.692,91.249 42.289,92.123 41.998,91.776 41.563,92.682 41.272,92.308 
			40.707,93.116 40.374,92.769 39.696,93.559 39.569,93.268 38.979,94.053 38.916,92.799 38.576,92.763 38.629,92.046 
			38.793,91.828 38.29,91.835 38.498,90.961 38.655,90.792 38.148,90.702 38.366,90.033 38.562,89.848 38.126,89.797 38.497,88.934 
			38.312,88.866 38.631,88.488 38.042,88.432 38.526,87.671 38.202,87.593 38.501,87.201 38.133,87.128 38.333,86.796 
			38.439,86.447 38.646,86.196 38.172,86.116 38.422,85.417 38.54,85.237 38.379,85.192 38.783,84.814 38.279,84.732 38.188,84.7 
			38.607,84.116 38.536,83.988 38.941,83.624 38.405,83.457 38.909,82.75 38.669,82.639 39.046,82.3 38.662,82.26 39.294,81.602 
			39.138,81.573 39.5,81.348 39.16,81.25 39.931,80.476 39.677,80.437 40.476,79.802 40.188,79.75 40.813,79.125 41.062,79.06 
			40.848,78.91 41.501,78.566 41.292,78.485 42.375,77.849 42.308,77.69 43.132,77.407 42.936,77.29 43.63,77.114 43.515,76.945 
			44.404,76.772 44.318,76.645 44.792,76.618 44.673,76.506 45.942,76.596 45.883,76.431 47.006,76.779 46.996,76.664 
			47.414,76.633 		"/>
		<path fill-rule="evenodd" clip-rule="evenodd" fill="#DBE120" d="M38.979,94.053c0.112-0.476,0.347-1.122,0.672-1.895l0.187,1.012
			l-0.083-1.254c0.109-0.246,0.224-0.508,0.35-0.775l0.64,1.555l-0.58-1.69c0.093-0.204,0.193-0.411,0.295-0.622l1.019,1.836
			l-0.958-1.966c0.145-0.296,0.294-0.604,0.452-0.918l1.317,2.326l-1.255-2.449c0.166-0.327,0.334-0.664,0.512-1.007l1.605,2.85
			l-1.524-3.013c0.176-0.341,0.355-0.686,0.542-1.034l2.027,3.521l-1.919-3.731c0.219-0.413,0.445-0.83,0.672-1.256l2.438,3.748
			l-2.36-3.895c0.166-0.307,0.333-0.615,0.5-0.923l2.839,4.022l-2.76-4.162c0.114-0.209,0.228-0.42,0.343-0.63l3.084,4.267
			l-2.998-4.421c0.098-0.175,0.194-0.354,0.293-0.53l3.056,4.418l-2.965-4.584c0.153-0.275,0.307-0.55,0.458-0.824l3.017,4.479
			l-2.917-4.657c0.076-0.137,0.151-0.269,0.226-0.404l3.232,4.67l-3.134-4.846c0.123-0.211,0.242-0.426,0.36-0.639l3.122,4.532
			l-3.022-4.705l0.24-0.425l2.993,4.457l-2.891-4.636c0.116-0.205,0.233-0.408,0.348-0.61l2.791,4.188l-2.696-4.357l0.253-0.443
			l2.656,4.27l-2.56-4.438c0.105-0.187,0.212-0.368,0.315-0.549l2.309,3.699l-2.224-3.852l0.223-0.384l2.031,3.197l-1.891-3.439
			l0.305-0.509l-0.417-0.264c-0.108,0.203-0.217,0.428-0.334,0.634l-3.396,0.238l3.269-0.004l-0.141,0.258l-4.077,0.2l3.993-0.053
			l-0.34,0.614l-4.779,0.232l4.682-0.058l-0.279,0.499l-4.977,0.015l4.882,0.159l-0.364,0.654l-4.996,0.012l4.899,0.158
			l-0.295,0.532l-5.356,0.014l5.255,0.17c-0.102,0.188-0.206,0.372-0.307,0.56l-5.375,0.194l5.27-0.005
			c-0.161,0.288-0.319,0.577-0.478,0.87l-5.186,0.014l5.089,0.164c-0.181,0.331-0.36,0.662-0.54,0.992l-4.405,0.011l4.322,0.141
			c-0.199,0.37-0.397,0.737-0.591,1.107l-4.275,0.009l4.196,0.139c-0.143,0.271-0.286,0.539-0.426,0.81l-3.753,0.133h3.682
			l0.007-0.015c-0.157,0.305-0.312,0.604-0.465,0.901l-3.579,0.128h3.515c-0.119,0.237-0.24,0.469-0.354,0.698l-3.363,0.114
			l3.305,0.005c-0.086,0.176-0.174,0.35-0.26,0.525l-2.869,0.157l2.792-0.003c-0.174,0.358-0.345,0.709-0.505,1.052l-2.375,0.275
			l2.324-0.159c-0.155,0.334-0.3,0.653-0.436,0.965l-2.005,0.282l1.948-0.155c-0.093,0.212-0.179,0.421-0.262,0.622l-1.467,0.512
			l1.41-0.376c-0.123,0.312-0.238,0.607-0.336,0.884l-0.75,0.446l0.703-0.308C39.153,93.027,39.003,93.615,38.979,94.053z"/>
		<polygon fill-rule="evenodd" clip-rule="evenodd" fill="#DBE120" points="47.68,76.167 47.542,76.376 47.945,76.634 48.056,76.45 
					"/>
	</g>
	<path fill="#150608" d="M295.383,71.399c-34.362,0.073,29.406-2.176-89.119-18.17c-11.83-3.906-25.373-3.722-38.45-4.21
		c-18.741-0.694-37.931-1.235-57.177,1.654c-8.994,1.351-18.01,3.796-26.896,6.564c-19.487,6.071-36.163,15.501-52.828,27.208
		l-1.54-2.451c12.117-9.967,23.754-13.917,36.894-22.242c-3.557-1.176-8.372-0.981-12.426-0.692
		c1.012-0.643,2.522-2.745,3.021-4.202c21.552,1.762,40.486-11.96,62.021-14.754c18.993-2.333,35.482,0.349,53.214-0.613
		c-11.407-1.332,49.187,1.952,64.912,4.545c121.933,18.224-6.818-0.38,108.081,13.038c3.044,0.354,24.29,22.842,24.29,22.842
		L295.383,71.399z"/>
	<path fill="#150608" d="M194.971,56.901c-13.117,4.534,11.276-2.974-33.596,19.649c-4.42,3.246-9.597,4.964-14.576,6.913
		c-7.137,2.787-14.453,5.576-21.871,6.891c-3.465,0.615-6.964,0.762-10.426,0.752c-7.583-0.014-14.179-1.848-20.825-4.657
		l-0.522,1.254c4.865,2.672,9.399,2.817,14.615,4.646c-1.331,0.977-3.172,1.536-4.73,1.948c0.407,0.142,1.031,0.844,1.262,1.403
		c8.185-3.618,15.743-0.242,24.028-1.904c7.304-1.52,13.534-4.862,20.33-6.811c-4.325,2.09,18.73-7.371,24.674-10.575
		c46.118-24.029-2.587,1.068,40.952-19.961c1.157-0.558,7.239-3.368,8.102-3.782l0.623-9.252L194.971,56.901z"/>
	<polygon fill="#150608" points="546.411,54.528 345.089,57.074 369.379,79.916 566.929,83.098 	"/>
</g>
</svg>
