<?xml version="1.0" encoding="utf-8"?>
<!-- Generator: Adobe Illustrator 16.0.0, SVG Export Plug-In . SVG Version: 6.00 Build 0)  -->
<!DOCTYPE svg PUBLIC "-//W3C//DTD SVG 1.1//EN" "http://www.w3.org/Graphics/SVG/1.1/DTD/svg11.dtd">
<svg version="1.1" id="Capa_2" xmlns="http://www.w3.org/2000/svg" xmlns:xlink="http://www.w3.org/1999/xlink" x="0px" y="0px"
	 width="212.598px" height="62.362px" viewBox="0 0 212.598 62.362" enable-background="new 0 0 212.598 62.362"
	 xml:space="preserve">
<g>
	<g>
		
			<linearGradient id="SVGID_1_" gradientUnits="userSpaceOnUse" x1="209.686" y1="103.231" x2="216.0589" y2="98.7687" gradientTransform="matrix(0.7449 0.6672 -0.6672 0.7449 39.898 -162.5526)">
			<stop  offset="0" style="stop-color:#133118"/>
			<stop  offset="0.3821" style="stop-color:#19602B"/>
			<stop  offset="1" style="stop-color:#24B34C"/>
		</linearGradient>
		<polygon fill-rule="evenodd" clip-rule="evenodd" fill="url(#SVGID_1_)" points="124.125,49.201 123.865,49.488 123.966,49.743 
			123.865,49.917 123.974,49.988 123.63,50.754 123.769,50.803 123.476,51.454 123.606,51.417 123.374,52.121 123.537,52.065 
			123.414,52.91 123.567,52.847 123.643,53.678 123.79,53.546 123.81,54.083 123.899,53.999 123.985,54.632 124.139,54.486 
			124.269,55.228 124.38,55.028 124.703,55.949 124.836,55.683 124.994,56.262 125.115,56.043 125.48,56.969 125.646,56.676 
			125.774,57.187 125.948,57.036 126.336,57.639 126.428,57.261 126.615,57.712 126.684,57.568 127.03,58.154 127.177,57.786 
			127.643,58.583 127.83,58.319 127.965,58.7 128.123,58.498 128.545,59.092 128.753,58.716 129.098,59.34 129.31,58.997 
			129.575,59.34 129.6,59.127 130.108,59.657 130.186,59.475 130.248,59.681 130.501,59.292 130.6,59.564 130.66,59.529 
			131.008,59.902 131.192,59.486 131.702,60.065 131.863,59.728 132.403,60.319 132.558,59.965 133.185,60.452 133.381,60.106 
			134.093,60.551 134.135,60.298 134.775,60.76 134.562,59.783 134.828,59.671 134.63,59.134 134.455,59.005 134.861,58.889 
			134.506,58.267 134.348,58.172 134.737,57.984 134.42,57.518 134.221,57.424 134.561,57.282 134.081,56.706 134.214,56.609 
			133.879,56.394 134.342,56.211 133.79,55.742 134.035,55.602 133.709,55.372 133.993,55.229 133.76,55.022 133.6,54.776 
			133.379,54.632 133.745,54.458 133.397,53.979 133.261,53.871 133.383,53.795 132.977,53.6 133.368,53.419 133.433,53.373 
			132.972,53.024 133.001,52.909 132.597,52.723 132.995,52.465 132.44,52.042 132.608,51.901 132.234,51.728 132.534,51.609 
			131.885,51.252 132.004,51.193 131.667,51.104 131.919,50.948 131.134,50.537 131.33,50.447 130.553,50.148 130.774,50.041 
			130.137,49.707 129.922,49.715 130.064,49.549 129.463,49.44 129.615,49.327 128.609,49.096 128.629,48.958 127.905,48.937 
			128.04,48.8 127.441,48.828 127.499,48.673 126.747,48.749 126.789,48.632 126.402,48.723 126.473,48.61 125.469,48.981 
			125.482,48.841 124.652,49.375 124.636,49.286 124.292,49.361 		"/>
		<path fill-rule="evenodd" clip-rule="evenodd" fill="#21AB4B" d="M134.775,60.76c-0.19-0.339-0.516-0.781-0.942-1.297l0.064,0.822
			l-0.199-0.983c-0.139-0.164-0.286-0.337-0.444-0.515l-0.186,1.35l0.106-1.44c-0.119-0.132-0.242-0.271-0.37-0.409l-0.429,1.656
			l0.354-1.739c-0.178-0.195-0.363-0.396-0.557-0.601l-0.568,2.104l0.49-2.185c-0.2-0.213-0.408-0.432-0.623-0.653l-0.691,2.579
			l0.59-2.685c-0.213-0.22-0.432-0.442-0.654-0.668l-0.889,3.196l0.757-3.33c-0.264-0.267-0.534-0.537-0.808-0.809l-1.169,3.467
			l1.075-3.56c-0.198-0.196-0.397-0.394-0.599-0.592l-1.436,3.774l1.343-3.865c-0.137-0.133-0.272-0.268-0.41-0.401l-1.582,4.02
			l1.48-4.119c-0.116-0.112-0.231-0.226-0.348-0.337l-1.527,4.129l1.417-4.236c-0.181-0.176-0.362-0.351-0.543-0.523l-1.481,4.166
			l1.361-4.281c-0.088-0.086-0.177-0.171-0.267-0.255l-1.613,4.362l1.498-4.476c-0.143-0.135-0.287-0.271-0.427-0.407l-1.556,4.235
			l1.439-4.345l-0.284-0.27l-1.467,4.143l1.349-4.256c-0.139-0.131-0.274-0.26-0.409-0.388l-1.361,3.89l1.246-3.997l-0.297-0.28
			l-1.236,3.92l1.123-4.029c-0.126-0.116-0.248-0.232-0.369-0.346l-1.077,3.397l0.976-3.494l-0.26-0.244l-0.961,2.948l0.796-3.102
			l-0.354-0.316l0.281-0.303c0.132,0.128,0.265,0.276,0.402,0.41l2.787-0.629l-2.634,0.776l0.169,0.165l3.326-0.819L124.952,50
			l0.404,0.39l3.898-0.956l-3.783,1.068l0.331,0.318l4.011-1.176l-3.898,1.286l0.432,0.417l4.026-1.181l-3.913,1.291l0.349,0.339
			l4.319-1.265l-4.196,1.381c0.122,0.119,0.244,0.238,0.366,0.357l4.37-1.132l-4.246,1.253c0.188,0.185,0.378,0.37,0.568,0.555
			l4.182-1.225l-4.065,1.341c0.216,0.211,0.431,0.422,0.645,0.634l3.55-1.04l-3.451,1.138c0.238,0.237,0.476,0.475,0.712,0.71
			l3.445-1.01l-3.353,1.105c0.174,0.175,0.346,0.348,0.515,0.522l3.053-0.793l-2.967,0.877l-0.008-0.008
			c0.189,0.196,0.379,0.392,0.564,0.583l2.912-0.756l-2.833,0.838c0.146,0.153,0.292,0.305,0.434,0.455l2.73-0.715l-2.658,0.791
			c0.108,0.113,0.214,0.228,0.318,0.34l2.346-0.559l-2.251,0.659c0.217,0.234,0.428,0.467,0.629,0.692l1.972-0.354l-1.903,0.431
			c0.193,0.219,0.379,0.432,0.557,0.639l1.674-0.26l-1.604,0.344c0.121,0.143,0.235,0.281,0.345,0.416l1.289,0.045l-1.217,0.048
			c0.168,0.208,0.322,0.409,0.459,0.6l0.701,0.164l-0.633-0.07C134.42,60.012,134.663,60.43,134.775,60.76z"/>
	</g>
	<g>
		<linearGradient id="SVGID_2_" gradientUnits="userSpaceOnUse" x1="164.5767" y1="43.938" x2="164.9403" y2="36.9992">
			<stop  offset="0" style="stop-color:#133118"/>
			<stop  offset="0.3821" style="stop-color:#19602B"/>
			<stop  offset="1" style="stop-color:#24B34C"/>
		</linearGradient>
		<polygon fill-rule="evenodd" clip-rule="evenodd" fill="url(#SVGID_2_)" points="160.565,46.98 160.818,47.198 161.026,47.093 
			161.176,47.175 161.229,47.07 161.886,47.337 161.919,47.209 162.476,47.434 162.438,47.321 163.037,47.49 162.981,47.345 
			163.692,47.41 163.631,47.276 164.317,47.161 164.201,47.038 164.646,46.99 164.57,46.914 165.093,46.803 164.961,46.67 
			165.572,46.515 165.399,46.426 166.148,46.086 165.92,45.982 166.391,45.809 166.204,45.712 166.953,45.333 166.7,45.202 
			167.119,45.058 166.983,44.912 167.463,44.532 167.143,44.469 167.508,44.278 167.383,44.222 167.851,43.881 167.538,43.77 
			168.174,43.309 167.945,43.157 168.253,43.015 168.077,42.885 168.548,42.472 168.223,42.307 168.723,41.965 168.426,41.795 
			168.698,41.54 168.518,41.527 168.93,41.043 168.775,40.984 168.944,40.918 168.605,40.712 168.826,40.608 168.793,40.558 
			169.084,40.225 168.727,40.083 169.18,39.595 168.892,39.47 169.353,38.954 169.049,38.833 169.418,38.248 169.121,38.091 
			169.451,37.429 169.238,37.407 169.587,36.807 168.786,37.052 168.679,36.822 168.242,37.028 168.145,37.192 168.026,36.836 
			167.528,37.186 167.459,37.334 167.279,36.997 166.911,37.307 166.843,37.489 166.705,37.194 166.252,37.658 166.165,37.542 
			166.005,37.853 165.827,37.452 165.466,37.97 165.336,37.76 165.163,38.062 165.029,37.818 164.87,38.039 164.674,38.194 
			164.567,38.398 164.401,38.082 164.023,38.42 163.939,38.545 163.871,38.443 163.731,38.818 163.559,38.478 163.515,38.42 
			163.252,38.855 163.154,38.833 163.022,39.207 162.786,38.865 162.464,39.385 162.338,39.244 162.214,39.587 162.098,39.324 
			161.838,39.924 161.782,39.822 161.727,40.13 161.583,39.911 161.285,40.636 161.198,40.465 160.993,41.179 160.893,40.986 
			160.651,41.575 160.669,41.766 160.524,41.649 160.465,42.192 160.364,42.062 160.228,42.975 160.112,42.965 160.133,43.614 
			160.012,43.502 160.069,44.035 159.937,43.992 160.042,44.661 159.943,44.63 160.042,44.972 159.943,44.914 160.308,45.791 
			160.191,45.787 160.681,46.5 160.608,46.519 160.69,46.823 		"/>
		<path fill-rule="evenodd" clip-rule="evenodd" fill="#21AB4B" d="M169.587,36.807c-0.272,0.189-0.621,0.507-1.027,0.916
			l0.681-0.103l-0.807,0.232c-0.129,0.134-0.264,0.275-0.403,0.426l1.134,0.091l-1.203-0.015c-0.105,0.113-0.212,0.232-0.321,0.354
			l1.402,0.293l-1.468-0.221c-0.151,0.171-0.309,0.348-0.467,0.532l1.781,0.392l-1.845-0.319c-0.166,0.191-0.337,0.392-0.509,0.595
			l2.185,0.474l-2.267-0.377c-0.17,0.204-0.344,0.412-0.52,0.623l2.709,0.616l-2.812-0.49c-0.207,0.251-0.416,0.506-0.628,0.768
			l2.951,0.852l-3.022-0.764c-0.153,0.188-0.306,0.379-0.459,0.57l3.22,1.072l-3.291-0.985c-0.103,0.13-0.206,0.259-0.311,0.389
			l3.434,1.191l-3.511-1.093c-0.086,0.108-0.174,0.218-0.261,0.329l3.521,1.134l-3.603-1.029c-0.137,0.172-0.272,0.344-0.406,0.515
			l3.549,1.093l-3.638-0.979c-0.065,0.084-0.133,0.169-0.198,0.253l3.721,1.199l-3.807-1.088c-0.106,0.134-0.21,0.27-0.315,0.403
			l3.61,1.154l-3.694-1.046l-0.209,0.27l3.528,1.081l-3.616-0.968c-0.102,0.13-0.2,0.26-0.3,0.387l3.312,1l-3.396-0.891
			l-0.217,0.282l3.331,0.887l-3.414-0.779c-0.091,0.116-0.181,0.234-0.27,0.349l2.888,0.774l-2.961-0.678l-0.188,0.245l2.506,0.695
			l-2.625-0.539l-0.243,0.333l-0.268-0.231c0.101-0.126,0.214-0.254,0.318-0.385l-0.679-2.459l0.794,2.314l0.126-0.16l-0.866-2.931
			l0.94,2.836l0.302-0.383l-1.015-3.434l1.101,3.324l0.247-0.312l-1.203-3.522l1.288,3.415l0.323-0.408l-1.207-3.538l1.291,3.429
			l0.264-0.331l-1.295-3.792l1.386,3.676c0.092-0.114,0.184-0.23,0.276-0.348l-1.188-3.847l1.281,3.729
			c0.142-0.179,0.286-0.359,0.43-0.541l-1.253-3.67l1.342,3.561c0.164-0.205,0.328-0.409,0.492-0.613l-1.064-3.114l1.141,3.022
			c0.184-0.227,0.368-0.453,0.552-0.677l-1.033-3.024l1.106,2.936c0.136-0.164,0.271-0.329,0.405-0.489l-0.829-2.686l0.896,2.605
			l-0.006,0.008c0.152-0.184,0.303-0.362,0.453-0.539l-0.792-2.562l0.855,2.485c0.119-0.14,0.236-0.278,0.354-0.411l-0.747-2.405
			l0.807,2.335c0.09-0.103,0.178-0.203,0.267-0.305l-0.598-2.067l0.676,1.979c0.184-0.208,0.364-0.41,0.54-0.604l-0.404-1.742
			l0.465,1.677c0.17-0.186,0.338-0.364,0.5-0.533l-0.311-1.483l0.377,1.416c0.11-0.115,0.221-0.225,0.327-0.331l-0.036-1.154
			l0.108,1.084c0.164-0.16,0.322-0.309,0.475-0.444l0.097-0.634l-0.024,0.57C168.986,37.167,169.32,36.927,169.587,36.807z"/>
	</g>
	<g>
		<linearGradient id="SVGID_3_" gradientUnits="userSpaceOnUse" x1="97.0015" y1="41.5415" x2="99.6041" y2="48.3216">
			<stop  offset="0" style="stop-color:#133118"/>
			<stop  offset="0.3821" style="stop-color:#19602B"/>
			<stop  offset="1" style="stop-color:#24B34C"/>
		</linearGradient>
		<polygon fill-rule="evenodd" clip-rule="evenodd" fill="url(#SVGID_3_)" points="99.525,37.027 99.201,36.936 99.052,37.125 
			98.879,37.115 98.873,37.235 98.155,37.274 98.177,37.408 97.569,37.442 97.651,37.531 97.027,37.637 97.136,37.745 
			96.453,37.998 96.564,38.094 95.974,38.501 96.133,38.564 95.738,38.804 95.841,38.839 95.401,39.172 95.576,39.237 95.074,39.65 
			95.27,39.654 94.714,40.298 94.968,40.294 94.602,40.662 94.816,40.668 94.276,41.347 94.563,41.36 94.234,41.674 94.42,41.75 
			94.128,42.314 94.451,42.232 94.189,42.57 94.329,42.566 94.034,43.085 94.37,43.053 93.967,43.756 94.242,43.797 94.014,44.065 
			94.23,44.109 93.96,44.697 94.33,44.707 94.006,45.244 94.35,45.271 94.204,45.626 94.375,45.559 94.188,46.188 94.357,46.174 
			94.228,46.31 94.624,46.351 94.463,46.544 94.514,46.578 94.379,47.013 94.768,46.989 94.545,47.639 94.864,47.628 94.647,48.307 
			94.977,48.288 94.874,48.993 95.214,49.007 95.176,49.764 95.383,49.693 95.303,50.4 95.947,49.822 96.139,49.991 96.46,49.608 
			96.483,49.413 96.739,49.69 97.058,49.147 97.062,48.98 97.366,49.213 97.582,48.766 97.57,48.569 97.817,48.781 98.048,48.156 
			98.177,48.221 98.197,47.864 98.526,48.16 98.649,47.52 98.855,47.658 98.891,47.301 99.117,47.47 99.175,47.197 99.292,46.966 
			99.308,46.729 99.591,46.952 99.804,46.472 99.831,46.318 99.935,46.384 99.913,45.977 100.211,46.215 100.274,46.248 
			100.342,45.732 100.441,45.708 100.412,45.306 100.769,45.518 100.856,44.896 101.031,44.973 101.004,44.6 101.219,44.792 
			101.216,44.121 101.31,44.193 101.235,43.884 101.458,44.022 101.44,43.219 101.588,43.341 101.489,42.589 101.66,42.724 
			101.645,42.074 101.55,41.905 101.733,41.948 101.566,41.421 101.711,41.496 101.465,40.59 101.579,40.549 101.293,39.957 
			101.453,40.008 101.182,39.539 101.323,39.52 100.954,38.949 101.057,38.931 100.827,38.661 100.941,38.67 100.247,38.016 
			100.356,37.968 99.612,37.523 99.673,37.473 99.473,37.228 		"/>
		<path fill-rule="evenodd" clip-rule="evenodd" fill="#21AB4B" d="M95.303,50.4c0.175-0.294,0.369-0.738,0.579-1.298l-0.589,0.395
			l0.653-0.569c0.065-0.18,0.133-0.371,0.2-0.572l-1.088,0.414l1.122-0.515c0.051-0.15,0.102-0.307,0.153-0.468l-1.418,0.344
			l1.449-0.44c0.071-0.224,0.144-0.456,0.216-0.697l-1.81,0.418l1.84-0.512c0.075-0.252,0.152-0.509,0.229-0.774l-2.217,0.517
			L96.877,46c0.075-0.262,0.15-0.531,0.229-0.805l-2.762,0.615l2.806-0.775c0.09-0.323,0.18-0.652,0.27-0.988l-3.081,0.502
			l3.111-0.615c0.064-0.24,0.13-0.483,0.193-0.729l-3.42,0.416l3.45-0.526c0.043-0.165,0.086-0.331,0.129-0.496l-3.665,0.397
			l3.696-0.521c0.037-0.141,0.072-0.28,0.109-0.422l-3.725,0.489l3.759-0.621c0.055-0.218,0.11-0.438,0.166-0.656l-3.734,0.541
			l3.771-0.683c0.026-0.107,0.054-0.215,0.08-0.321l-3.936,0.517l3.971-0.657c0.043-0.172,0.085-0.343,0.127-0.514l-3.814,0.512
			l3.85-0.649l0.084-0.34l-3.711,0.541l3.746-0.685c0.04-0.165,0.08-0.327,0.119-0.49l-3.477,0.522l3.511-0.658l0.085-0.356
			l-3.447,0.634l3.481-0.771c0.035-0.147,0.071-0.294,0.105-0.44l-2.989,0.546l3.019-0.666l0.075-0.312l-2.604,0.453l2.651-0.648
			l0.09-0.416l0.343,0.1c-0.041,0.158-0.097,0.326-0.138,0.493l1.629,1.981l-1.677-1.796l-0.053,0.203l1.995,2.336l-2.026-2.216
			l-0.123,0.487l2.338,2.736l-2.373-2.597l-0.102,0.397l2.548,2.738l-2.582-2.603l-0.133,0.521l2.557,2.749l-2.592-2.611
			l-0.108,0.422l2.742,2.948l-2.78-2.802c-0.038,0.147-0.076,0.296-0.113,0.443l2.664,3.046l-2.704-2.896
			c-0.06,0.229-0.119,0.457-0.179,0.688l2.655,2.854l-2.692-2.711c-0.067,0.261-0.138,0.52-0.208,0.781l2.255,2.422l-2.286-2.303
			c-0.078,0.29-0.157,0.58-0.236,0.868l2.188,2.352l-2.219-2.235c-0.059,0.211-0.118,0.421-0.176,0.631l1.861,2.123l-1.892-2.021
			l0.003-0.01c-0.066,0.234-0.134,0.469-0.2,0.697l1.776,2.026l-1.805-1.93c-0.054,0.184-0.107,0.362-0.16,0.539l1.67,1.899
			l-1.697-1.809c-0.041,0.134-0.081,0.266-0.122,0.397l1.394,1.653l-1.43-1.537c-0.085,0.274-0.171,0.539-0.256,0.795l1.084,1.438
			l-1.114-1.352c-0.082,0.247-0.164,0.485-0.246,0.712l0.892,1.239l-0.925-1.146c-0.057,0.156-0.113,0.307-0.169,0.45l0.502,1.056
			l-0.54-0.959c-0.087,0.223-0.173,0.429-0.259,0.619l0.168,0.63l-0.209-0.537C95.714,49.803,95.504,50.172,95.303,50.4z"/>
	</g>
	<g>
		<linearGradient id="SVGID_4_" gradientUnits="userSpaceOnUse" x1="116.6108" y1="34.8599" x2="113.8323" y2="30.8917">
			<stop  offset="0" style="stop-color:#133118"/>
			<stop  offset="0.3821" style="stop-color:#19602B"/>
			<stop  offset="1" style="stop-color:#24B34C"/>
		</linearGradient>
		<polygon fill-rule="evenodd" clip-rule="evenodd" fill="url(#SVGID_4_)" points="115.678,38.352 115.909,38.357 115.977,38.207 
			116.094,38.184 116.08,38.104 116.551,37.954 116.515,37.867 116.914,37.74 116.845,37.695 117.244,37.517 117.153,37.464 
			117.567,37.178 117.479,37.132 117.805,36.762 117.69,36.746 117.914,36.519 117.839,36.513 118.079,36.215 117.952,36.203 
			118.219,35.842 118.088,35.872 118.355,35.349 118.186,35.394 118.372,35.087 118.23,35.121 118.48,34.576 118.287,34.617 
			118.455,34.351 118.319,34.331 118.422,33.907 118.221,34.017 118.34,33.749 118.25,33.773 118.362,33.375 118.143,33.458 
			118.298,32.918 118.109,32.94 118.217,32.721 118.067,32.73 118.152,32.293 117.905,32.349 118.036,31.936 117.801,31.979 
			117.842,31.715 117.74,31.79 117.761,31.341 117.652,31.377 117.715,31.265 117.446,31.306 117.521,31.15 117.484,31.135 
			117.502,30.825 117.249,30.907 117.291,30.436 117.082,30.498 117.117,30.007 116.9,30.08 116.856,29.591 116.628,29.641 
			116.531,29.131 116.406,29.213 116.345,28.73 116.009,29.224 115.854,29.146 115.702,29.457 115.718,29.589 115.504,29.448 
			115.378,29.864 115.403,29.976 115.164,29.874 115.091,30.208 115.131,30.339 114.932,30.241 114.879,30.695 114.783,30.672 
			114.827,30.916 114.56,30.775 114.581,31.221 114.421,31.164 114.455,31.409 114.278,31.334 114.283,31.526 114.241,31.701 
			114.269,31.861 114.044,31.762 113.981,32.119 113.988,32.226 113.908,32.199 113.987,32.466 113.75,32.36 113.704,32.347 
			113.741,32.703 113.679,32.736 113.762,32.998 113.491,32.917 113.533,33.346 113.406,33.327 113.481,33.569 113.308,33.479 
			113.417,33.924 113.343,33.892 113.443,34.085 113.273,34.032 113.414,34.563 113.294,34.509 113.481,34.991 113.346,34.931 
			113.461,35.361 113.55,35.456 113.421,35.458 113.618,35.781 113.508,35.756 113.816,36.318 113.749,36.363 114.033,36.708 
			113.919,36.701 114.173,36.968 114.084,37.002 114.421,37.322 114.354,37.348 114.55,37.491 114.473,37.505 115.04,37.82 
			114.975,37.869 115.541,38.039 115.509,38.082 115.682,38.21 		"/>
		<path fill-rule="evenodd" clip-rule="evenodd" fill="#21AB4B" d="M116.345,28.73c-0.069,0.227-0.128,0.556-0.178,0.963
			l0.329-0.364l-0.343,0.49c-0.016,0.132-0.029,0.271-0.043,0.415l0.658-0.461l-0.665,0.535c-0.008,0.108-0.018,0.221-0.026,0.337
			l0.889-0.473l-0.894,0.541c-0.012,0.162-0.022,0.329-0.032,0.502l1.138-0.588l-1.143,0.655c-0.01,0.18-0.019,0.365-0.028,0.556
			l1.393-0.726l-1.396,0.814c-0.008,0.188-0.017,0.381-0.023,0.574l1.738-0.883l-1.742,0.998c-0.008,0.23-0.015,0.465-0.021,0.704
			l1.969-0.864l-1.971,0.943c-0.005,0.171-0.009,0.344-0.012,0.519l2.208-0.866l-2.21,0.945c-0.002,0.116-0.005,0.234-0.007,0.354
			l2.374-0.897l-2.375,0.983c-0.002,0.102-0.005,0.2-0.006,0.299l2.399-0.965l-2.4,1.06c-0.002,0.153-0.004,0.311-0.006,0.465
			l2.397-1.004l-2.399,1.104c0,0.076-0.001,0.152-0.002,0.229l2.536-1.022l-2.536,1.121c-0.002,0.121-0.002,0.243-0.003,0.362
			l2.456-0.996l-2.457,1.095l-0.001,0.24l2.382-0.999l-2.383,1.101c0,0.117,0,0.232-0.001,0.348l2.229-0.946l-2.229,1.043
			l-0.001,0.251l2.193-1.017l-2.193,1.113c0,0.104,0,0.21,0,0.312l1.902-0.878l-1.902,0.963v0.22l1.661-0.749l-1.661,0.887
			l0.008,0.292l-0.244-0.006c0.002-0.113,0.011-0.234,0.013-0.354l-1.401-1.037l1.403,0.907l0.002-0.146l-1.701-1.21l1.703,1.126
			l0.004-0.346l-1.995-1.418l1.997,1.319l0.004-0.282l-2.136-1.382l2.136,1.285l0.006-0.368l-2.142-1.389l2.143,1.29l0.004-0.299
			l-2.297-1.489l2.298,1.385c0.002-0.105,0.004-0.208,0.006-0.314l-2.26-1.566l2.262,1.461c0.002-0.163,0.006-0.327,0.009-0.489
			l-2.224-1.44l2.226,1.339c0.004-0.185,0.008-0.37,0.013-0.555l-1.888-1.225l1.891,1.14c0.005-0.207,0.012-0.413,0.018-0.619
			l-1.833-1.187l1.835,1.104c0.006-0.15,0.011-0.301,0.017-0.451l-1.578-1.092l1.581,1.021v0.006
			c0.006-0.167,0.014-0.333,0.021-0.498l-1.506-1.043l1.51,0.974c0.007-0.13,0.014-0.26,0.021-0.385l-1.416-0.978l1.42,0.911
			c0.005-0.097,0.011-0.191,0.017-0.286l-1.192-0.859l1.198,0.775c0.014-0.195,0.028-0.387,0.044-0.572l-0.952-0.77l0.957,0.708
			c0.015-0.179,0.032-0.352,0.051-0.517l-0.792-0.671l0.799,0.604c0.013-0.113,0.026-0.223,0.041-0.329l-0.504-0.615l0.513,0.545
			c0.022-0.162,0.047-0.314,0.072-0.457l-0.212-0.391l0.226,0.323C116.167,29.197,116.25,28.915,116.345,28.73z"/>
	</g>
	<g>
		<linearGradient id="SVGID_5_" gradientUnits="userSpaceOnUse" x1="167.2476" y1="25.6748" x2="167.4745" y2="19.1774">
			<stop  offset="0" style="stop-color:#133118"/>
			<stop  offset="0.3821" style="stop-color:#19602B"/>
			<stop  offset="1" style="stop-color:#24B34C"/>
		</linearGradient>
		<polygon fill-rule="evenodd" clip-rule="evenodd" fill="url(#SVGID_5_)" points="170.825,28.764 170.576,28.947 170.39,28.833 
			170.246,28.9 170.204,28.801 169.577,29 169.554,28.881 169.023,29.05 169.065,28.947 168.499,29.06 168.56,28.933 
			167.898,28.941 167.963,28.821 167.334,28.667 167.45,28.56 167.04,28.484 167.116,28.42 166.637,28.281 166.767,28.167 
			166.211,27.978 166.377,27.91 165.707,27.542 165.925,27.459 165.499,27.266 165.679,27.19 165.008,26.787 165.252,26.682 
			164.874,26.519 165.009,26.394 164.587,26.007 164.889,25.972 164.562,25.768 164.683,25.725 164.271,25.377 164.57,25.295 
			164.008,24.824 164.232,24.699 163.955,24.543 164.127,24.437 163.716,24.021 164.03,23.892 163.587,23.538 163.875,23.402 
			163.641,23.145 163.808,23.147 163.457,22.669 163.605,22.625 163.453,22.55 163.78,22.386 163.583,22.273 163.615,22.227 
			163.367,21.9 163.708,21.793 163.32,21.307 163.595,21.213 163.202,20.701 163.49,20.613 163.187,20.041 163.473,19.917 
			163.21,19.281 163.409,19.275 163.125,18.695 163.852,18.979 163.966,18.771 164.357,18.993 164.437,19.154 164.572,18.831 
			165.01,19.191 165.064,19.333 165.253,19.035 165.575,19.347 165.625,19.52 165.772,19.256 166.162,19.717 166.251,19.617 
			166.377,19.917 166.57,19.555 166.87,20.063 167.003,19.877 167.144,20.169 167.287,19.952 167.419,20.167 167.59,20.327 
			167.676,20.524 167.85,20.242 168.179,20.582 168.249,20.705 168.319,20.615 168.423,20.972 168.606,20.668 168.65,20.619 
			168.866,21.039 168.958,21.026 169.056,21.382 169.296,21.082 169.561,21.587 169.688,21.464 169.78,21.792 169.905,21.556 
			170.106,22.13 170.166,22.038 170.196,22.328 170.344,22.136 170.574,22.831 170.664,22.678 170.808,23.353 170.914,23.182 
			171.099,23.746 171.071,23.92 171.212,23.824 171.231,24.331 171.333,24.217 171.4,25.075 171.507,25.073 171.445,25.673 
			171.565,25.577 171.477,26.067 171.602,26.038 171.461,26.651 171.555,26.628 171.442,26.937 171.537,26.891 171.141,27.679 
			171.25,27.684 170.75,28.309 170.816,28.332 170.719,28.608 		"/>
		<path fill-rule="evenodd" clip-rule="evenodd" fill="#21AB4B" d="M163.125,18.695c0.239,0.195,0.542,0.512,0.891,0.922
			l-0.623-0.145l0.732,0.272c0.111,0.133,0.226,0.275,0.346,0.425l-1.057,0.003l1.117,0.071c0.09,0.113,0.181,0.23,0.274,0.35
			l-1.32,0.174l1.376-0.102c0.13,0.169,0.263,0.346,0.398,0.527l-1.678,0.236l1.731-0.165c0.141,0.189,0.286,0.387,0.433,0.589
			l-2.056,0.283l2.125-0.188c0.145,0.199,0.293,0.405,0.441,0.613l-2.553,0.38l2.642-0.257c0.174,0.249,0.353,0.5,0.531,0.757
			l-2.792,0.583l2.852-0.496c0.13,0.185,0.26,0.372,0.389,0.562l-3.056,0.768l3.115-0.683c0.088,0.127,0.175,0.255,0.263,0.385
			l-3.261,0.859l3.326-0.766c0.073,0.107,0.147,0.216,0.221,0.323l-3.34,0.805l3.409-0.702c0.114,0.171,0.229,0.34,0.343,0.509
			l-3.363,0.761l3.438-0.65c0.056,0.083,0.111,0.165,0.167,0.247l-3.528,0.85l3.602-0.74c0.088,0.134,0.177,0.266,0.266,0.397
			l-3.424,0.814l3.495-0.708l0.175,0.266l-3.343,0.753l3.417-0.642c0.085,0.128,0.17,0.253,0.253,0.379l-3.137,0.694l3.207-0.588
			l0.183,0.275l-3.147,0.589l3.217-0.481c0.077,0.115,0.152,0.23,0.226,0.343l-2.728,0.513l2.79-0.42l0.159,0.243l-2.368,0.467
			l2.469-0.314l0.203,0.327l0.263-0.197c-0.083-0.124-0.182-0.251-0.269-0.379l0.79-2.232l-0.888,2.09l-0.106-0.157l0.994-2.656
			l-1.058,2.563l-0.254-0.377l1.167-3.11l-1.24,3.004l-0.208-0.307l1.347-3.184l-1.418,3.076l-0.273-0.403l1.352-3.19l-1.423,3.086
			l-0.222-0.325l1.449-3.426l-1.526,3.311c-0.077-0.113-0.154-0.227-0.234-0.342l1.354-3.483l-1.432,3.368
			c-0.12-0.177-0.242-0.354-0.364-0.531l1.403-3.314l-1.479,3.206c-0.138-0.199-0.275-0.401-0.416-0.601l1.192-2.814l-1.257,2.722
			c-0.154-0.225-0.312-0.446-0.466-0.667l1.155-2.731l-1.219,2.644c-0.114-0.163-0.229-0.323-0.344-0.481l0.946-2.433l-1.002,2.352
			l0.004,0.009c-0.128-0.179-0.256-0.355-0.384-0.531l0.902-2.32l-0.957,2.247c-0.101-0.138-0.2-0.274-0.301-0.41l0.851-2.175
			l-0.9,2.107c-0.077-0.101-0.152-0.202-0.227-0.301l0.688-1.874l-0.756,1.786c-0.157-0.206-0.311-0.406-0.462-0.598l0.489-1.588
			l-0.54,1.524c-0.146-0.185-0.29-0.362-0.43-0.528l0.386-1.354l-0.441,1.285c-0.098-0.115-0.19-0.226-0.284-0.331l0.109-1.067
			l-0.171,0.997c-0.142-0.16-0.278-0.31-0.41-0.446l-0.048-0.594l-0.016,0.53C163.659,19.072,163.365,18.825,163.125,18.695z"/>
	</g>
	<g>
		<linearGradient id="SVGID_6_" gradientUnits="userSpaceOnUse" x1="155.8667" y1="43.5024" x2="152.8903" y2="39.4058">
			<stop  offset="0" style="stop-color:#133118"/>
			<stop  offset="0.3821" style="stop-color:#19602B"/>
			<stop  offset="1" style="stop-color:#24B34C"/>
		</linearGradient>
		<polygon fill-rule="evenodd" clip-rule="evenodd" fill="url(#SVGID_6_)" points="154.916,47.175 155.156,47.179 155.227,47.019 
			155.348,46.995 155.333,46.911 155.823,46.748 155.785,46.659 156.201,46.521 156.128,46.474 156.542,46.285 156.448,46.229 
			156.878,45.924 156.785,45.879 157.123,45.487 157.001,45.472 157.233,45.231 157.156,45.225 157.403,44.913 157.27,44.9 
			157.546,44.519 157.409,44.552 157.682,44.002 157.506,44.052 157.697,43.729 157.546,43.764 157.803,43.19 157.602,43.238 
			157.775,42.956 157.632,42.937 157.736,42.493 157.527,42.61 157.649,42.326 157.554,42.355 157.667,41.939 157.44,42.026 
			157.596,41.459 157.398,41.483 157.509,41.254 157.351,41.266 157.436,40.808 157.178,40.87 157.309,40.435 157.065,40.483 
			157.104,40.207 156.999,40.286 157.017,39.814 156.902,39.855 156.967,39.738 156.686,39.783 156.763,39.619 156.723,39.604 
			156.74,39.279 156.475,39.368 156.515,38.875 156.296,38.942 156.328,38.429 156.102,38.505 156.05,37.998 155.812,38.05 
			155.706,37.518 155.575,37.606 155.507,37.1 155.16,37.623 154.997,37.542 154.841,37.868 154.86,38.007 154.633,37.864 
			154.506,38.3 154.535,38.417 154.283,38.312 154.211,38.664 154.253,38.797 154.044,38.697 153.994,39.176 153.891,39.154 
			153.941,39.405 153.662,39.263 153.687,39.727 153.52,39.671 153.557,39.925 153.372,39.851 153.378,40.052 153.338,40.234 
			153.368,40.402 153.133,40.301 153.07,40.674 153.078,40.785 152.993,40.76 153.081,41.039 152.832,40.929 152.783,40.917 
			152.826,41.288 152.76,41.324 152.852,41.597 152.566,41.517 152.616,41.966 152.481,41.946 152.564,42.199 152.381,42.106 
			152.5,42.571 152.423,42.539 152.528,42.74 152.35,42.684 152.502,43.238 152.379,43.182 152.58,43.684 152.437,43.625 
			152.562,44.073 152.657,44.171 152.522,44.176 152.731,44.511 152.616,44.486 152.945,45.069 152.875,45.118 153.175,45.476 
			153.056,45.47 153.326,45.746 153.232,45.785 153.588,46.112 153.518,46.143 153.726,46.289 153.644,46.303 154.241,46.626 
			154.173,46.68 154.769,46.848 154.735,46.895 154.917,47.028 		"/>
		<path fill-rule="evenodd" clip-rule="evenodd" fill="#21AB4B" d="M155.507,37.1c-0.072,0.239-0.13,0.583-0.176,1.011l0.339-0.385
			l-0.354,0.518c-0.015,0.138-0.026,0.282-0.038,0.435l0.682-0.49l-0.688,0.566c-0.01,0.115-0.019,0.232-0.026,0.354l0.925-0.504
			l-0.929,0.576c-0.01,0.169-0.02,0.346-0.028,0.524l1.184-0.629l-1.187,0.701c-0.009,0.188-0.018,0.383-0.024,0.58l1.448-0.775
			l-1.452,0.87c-0.006,0.195-0.012,0.397-0.018,0.601l1.81-0.946l-1.812,1.065c-0.006,0.243-0.011,0.488-0.015,0.737l2.051-0.929
			l-2.052,1.013c-0.003,0.179-0.006,0.36-0.008,0.541l2.302-0.93l-2.302,1.014c-0.002,0.122-0.002,0.245-0.003,0.369l2.473-0.967
			l-2.474,1.058c0,0.104-0.001,0.209-0.002,0.312l2.5-1.039l-2.5,1.138c0,0.162,0,0.324,0,0.485l2.496-1.078l-2.496,1.186
			c0,0.08,0,0.158,0,0.238l2.641-1.099l-2.641,1.201c0,0.128,0,0.253,0.001,0.381l2.559-1.072l-2.558,1.173l0.001,0.253l2.479-1.073
			l-2.479,1.179c0,0.123,0.001,0.242,0.002,0.364l2.321-1.017l-2.32,1.117l0.003,0.264l2.282-1.091l-2.282,1.191
			c0.002,0.109,0.002,0.218,0.004,0.327l1.979-0.942l-1.979,1.03l0.003,0.231l1.729-0.806l-1.727,0.949l0.011,0.307l-0.256-0.007
			c0.001-0.116,0.009-0.244,0.01-0.368l-1.479-1.067l1.479,0.93l0.001-0.152l-1.793-1.244l1.793,1.158l0.001-0.362l-2.102-1.461
			l2.102,1.358l0.001-0.297l-2.247-1.419l2.248,1.318v-0.387l-2.256-1.426l2.256,1.325l0.002-0.315l-2.419-1.528l2.419,1.422
			c0-0.111,0.002-0.221,0.002-0.329l-2.382-1.613l2.382,1.5c0.002-0.169,0.003-0.34,0.005-0.511l-2.343-1.481l2.344,1.377
			c0.002-0.193,0.004-0.389,0.007-0.582l-1.988-1.257l1.989,1.168c0.004-0.216,0.009-0.432,0.013-0.647l-1.931-1.221l1.933,1.136
			c0.004-0.158,0.008-0.317,0.012-0.471l-1.663-1.126l1.665,1.047v0.009c0.006-0.177,0.012-0.35,0.018-0.522l-1.588-1.072l1.59,1
			c0.006-0.136,0.012-0.271,0.018-0.403l-1.492-1.006l1.494,0.938c0.007-0.102,0.011-0.202,0.017-0.301l-1.258-0.885l1.262,0.796
			c0.012-0.205,0.025-0.404,0.039-0.598l-1.004-0.795l1.009,0.729c0.014-0.188,0.029-0.368,0.047-0.541l-0.835-0.691l0.842,0.621
			c0.013-0.119,0.025-0.232,0.039-0.343l-0.534-0.639l0.543,0.563c0.021-0.17,0.046-0.331,0.071-0.479l-0.227-0.405l0.239,0.333
			C155.325,37.592,155.407,37.295,155.507,37.1z"/>
	</g>
	<g>
		<linearGradient id="SVGID_7_" gradientUnits="userSpaceOnUse" x1="86.729" y1="39.519" x2="78.4865" y2="37.1555">
			<stop  offset="0" style="stop-color:#133118"/>
			<stop  offset="0.3821" style="stop-color:#19602B"/>
			<stop  offset="1" style="stop-color:#24B34C"/>
		</linearGradient>
		<polygon fill-rule="evenodd" clip-rule="evenodd" fill="url(#SVGID_7_)" points="92.031,35.501 92.191,35.913 91.984,36.139 
			92.021,36.366 91.876,36.392 91.936,37.343 91.769,37.334 91.819,38.141 91.698,38.048 91.663,38.884 91.513,38.758 
			91.308,39.697 91.174,39.565 90.763,40.402 90.663,40.205 90.428,40.76 90.369,40.63 90.028,41.262 89.922,41.041 89.494,41.764 
			89.457,41.507 88.753,42.336 88.717,42.001 88.325,42.541 88.283,42.26 87.533,43.075 87.475,42.699 87.138,43.18 87.016,42.945 
			86.37,43.415 86.422,42.978 86.048,43.374 86.033,43.19 85.438,43.658 85.428,43.208 84.625,43.847 84.535,43.491 84.241,43.834 
			84.155,43.554 83.474,43.999 83.407,43.513 82.798,44.024 82.712,43.573 82.298,43.82 82.355,43.585 81.612,43.924 81.603,43.701 
			81.457,43.892 81.345,43.375 81.133,43.618 81.085,43.556 80.573,43.799 80.543,43.285 79.78,43.673 79.744,43.254 78.942,43.643 
			78.919,43.205 78.07,43.448 78,43.002 77.078,43.166 77.134,42.884 76.279,43.095 76.889,42.16 76.655,41.931 77.074,41.45 
			77.311,41.39 76.93,41.096 77.547,40.593 77.751,40.563 77.42,40.199 77.936,39.847 78.18,39.833 77.882,39.539 78.615,39.137 
			78.512,38.979 78.948,38.898 78.536,38.507 79.3,38.25 79.1,38 79.532,37.896 79.291,37.627 79.617,37.507 79.882,37.318 
			80.17,37.26 79.855,36.921 80.411,36.57 80.595,36.512 80.498,36.382 81.002,36.349 80.664,35.994 80.613,35.915 81.236,35.749 
			81.25,35.613 81.749,35.59 81.432,35.152 82.183,34.944 82.063,34.724 82.523,34.702 82.254,34.449 83.077,34.349 82.974,34.238 
			83.366,34.29 83.161,34.016 84.147,33.919 83.979,33.743 84.914,33.758 84.723,33.553 85.524,33.475 85.745,33.574 85.663,33.339 
			86.335,33.479 86.221,33.298 87.368,33.486 87.402,33.331 88.169,33.615 88.083,33.416 88.7,33.699 88.701,33.512 89.459,33.911 
			89.461,33.771 89.831,34.033 89.802,33.884 90.708,34.7 90.75,34.549 91.41,35.46 91.461,35.375 91.793,35.6 		"/>
		<path fill-rule="evenodd" clip-rule="evenodd" fill="#21AB4B" d="M76.279,43.095c0.335-0.275,0.851-0.599,1.504-0.959
			l-0.395,0.834l0.599-0.944c0.211-0.115,0.436-0.232,0.67-0.352l-0.34,1.495l0.459-1.556c0.177-0.09,0.36-0.181,0.549-0.273
			l-0.204,1.922l0.317-1.977c0.265-0.128,0.539-0.26,0.822-0.392l-0.236,2.448l0.348-2.502c0.297-0.138,0.602-0.277,0.914-0.419
			l-0.297,2.999l0.445-3.065c0.311-0.14,0.628-0.282,0.951-0.424l-0.334,3.73l0.525-3.814c0.382-0.167,0.772-0.336,1.168-0.505
			l-0.147,4.136l0.282-4.193c0.286-0.121,0.573-0.242,0.863-0.365l0.011,4.569l0.122-4.626c0.195-0.081,0.392-0.164,0.589-0.244
			l0.068,4.891l0.078-4.952c0.166-0.07,0.332-0.139,0.498-0.206l-0.033,4.98l0.191-5.047c0.26-0.106,0.519-0.213,0.777-0.318
			l-0.095,5.002l0.266-5.072c0.127-0.051,0.254-0.103,0.381-0.154l-0.035,5.266l0.202-5.333c0.204-0.082,0.406-0.165,0.609-0.245
			l-0.047,5.104l0.211-5.17l0.404-0.163l-0.101,4.971l0.27-5.038c0.197-0.078,0.391-0.156,0.584-0.232l-0.112,4.66l0.274-4.727
			l0.423-0.166l-0.255,4.639l0.417-4.705c0.177-0.069,0.353-0.138,0.524-0.206l-0.215,4.023l0.359-4.08l0.37-0.146l-0.16,3.502
			l0.393-3.593l0.495-0.181l-0.172-0.438c-0.189,0.078-0.389,0.177-0.586,0.26l-2.677-1.848l2.457,1.938l-0.242,0.099l-3.165-2.273
			l3.023,2.332l-0.577,0.238l-3.711-2.667l3.544,2.734l-0.471,0.193l-3.744-2.941l3.582,3.008L88.85,36.81l-3.756-2.952l3.594,3.018
			l-0.501,0.208l-4.03-3.166l3.856,3.238c-0.175,0.072-0.35,0.145-0.526,0.218l-4.138-3.049l3.959,3.123
			c-0.271,0.113-0.543,0.227-0.815,0.34l-3.901-3.063l3.732,3.136c-0.309,0.129-0.618,0.259-0.927,0.391l-3.312-2.603l3.171,2.664
			c-0.345,0.146-0.688,0.294-1.028,0.442l-3.215-2.526l3.078,2.586c-0.251,0.109-0.5,0.219-0.747,0.327l-2.887-2.129l2.765,2.183
			l0.013-0.005c-0.278,0.124-0.554,0.247-0.824,0.371l-2.756-2.033l2.639,2.085c-0.214,0.099-0.424,0.195-0.634,0.292l-2.583-1.912
			l2.477,1.963c-0.158,0.074-0.315,0.148-0.47,0.221l-2.238-1.586l2.102,1.651c-0.322,0.154-0.635,0.307-0.935,0.459l-1.93-1.212
			l1.827,1.264c-0.291,0.146-0.57,0.29-0.837,0.432l-1.652-0.985l1.546,1.045c-0.183,0.097-0.357,0.195-0.527,0.29l-1.368-0.502
			l1.256,0.568c-0.258,0.147-0.498,0.292-0.72,0.434l-0.798-0.125l0.691,0.193C76.948,42.463,76.527,42.797,76.279,43.095z"/>
	</g>
	<g>
		
			<linearGradient id="SVGID_8_" gradientUnits="userSpaceOnUse" x1="125.7466" y1="40.1704" x2="135.3012" y2="45.9114" gradientTransform="matrix(0.9855 0.1696 -0.1696 0.9855 -6.9797 -36.4239)">
			<stop  offset="0" style="stop-color:#1A6A36"/>
			<stop  offset="1" style="stop-color:#54B948"/>
		</linearGradient>
		<polygon fill-rule="evenodd" clip-rule="evenodd" fill="url(#SVGID_8_)" points="105.692,34.748 106.094,35.084 106.416,34.917 
			106.653,35.041 106.734,34.877 107.77,35.283 107.821,35.082 108.698,35.423 108.635,35.247 109.578,35.498 109.487,35.275 
			110.601,35.361 110.504,35.154 111.578,34.958 111.394,34.767 112.093,34.683 111.971,34.567 112.79,34.381 112.581,34.177 
			113.537,33.919 113.263,33.785 114.43,33.238 114.071,33.078 114.807,32.797 114.512,32.651 115.68,32.042 115.281,31.838 
			115.934,31.606 115.717,31.377 116.465,30.772 115.962,30.682 116.533,30.375 116.335,30.29 117.062,29.747 116.568,29.577 
			117.558,28.841 117.196,28.608 117.678,28.378 117.397,28.178 118.129,27.522 117.616,27.272 118.395,26.724 117.925,26.464 
			118.346,26.057 118.065,26.041 118.702,25.274 118.457,25.186 118.72,25.076 118.187,24.763 118.529,24.593 118.479,24.515 
			118.928,23.988 118.368,23.773 119.068,22.999 118.614,22.809 119.328,21.989 118.849,21.807 119.417,20.879 118.948,20.64 
			119.453,19.596 119.121,19.564 119.656,18.62 118.402,19.018 118.232,18.659 117.55,18.989 117.4,19.25 117.207,18.694 
			116.433,19.253 116.328,19.487 116.038,18.961 115.466,19.454 115.364,19.741 115.142,19.282 114.441,20.015 114.3,19.837 
			114.058,20.329 113.77,19.701 113.215,20.521 113.006,20.195 112.741,20.674 112.527,20.291 112.28,20.639 111.976,20.889 
			111.81,21.212 111.545,20.717 110.958,21.256 110.83,21.457 110.719,21.295 110.507,21.886 110.23,21.357 110.162,21.269 
			109.757,21.954 109.602,21.921 109.404,22.507 109.027,21.977 108.532,22.799 108.331,22.58 108.144,23.121 107.957,22.71 
			107.559,23.659 107.469,23.497 107.389,23.982 107.159,23.642 106.705,24.787 106.566,24.522 106.257,25.641 106.096,25.343 
			105.726,26.271 105.759,26.57 105.529,26.389 105.449,27.241 105.287,27.041 105.09,28.475 104.908,28.461 104.954,29.478 
			104.761,29.304 104.861,30.14 104.652,30.076 104.83,31.122 104.673,31.076 104.834,31.607 104.678,31.521 105.266,32.888 
			105.083,32.885 105.865,33.992 105.75,34.026 105.884,34.498 		"/>
		<path fill-rule="evenodd" clip-rule="evenodd" fill="#8EC74A" d="M119.656,18.62c-0.423,0.302-0.965,0.803-1.593,1.456
			l1.064-0.177l-1.261,0.38c-0.2,0.213-0.41,0.438-0.624,0.679l1.777,0.118l-1.887,0.001c-0.163,0.181-0.328,0.367-0.496,0.561
			l2.205,0.431l-2.307-0.314c-0.236,0.27-0.477,0.552-0.723,0.843l2.8,0.577l-2.898-0.463c-0.257,0.306-0.519,0.619-0.787,0.944
			l3.435,0.7l-3.561-0.546c-0.265,0.32-0.532,0.648-0.804,0.984l4.259,0.914l-4.418-0.716c-0.321,0.398-0.646,0.804-0.972,1.218
			l4.643,1.276l-4.755-1.136c-0.235,0.298-0.471,0.599-0.708,0.9l5.07,1.619l-5.179-1.479c-0.16,0.205-0.32,0.41-0.48,0.615
			l5.405,1.8l-5.524-1.646c-0.135,0.175-0.269,0.35-0.404,0.522l5.543,1.713l-5.67-1.547c-0.21,0.271-0.42,0.543-0.628,0.815
			l5.587,1.644l-5.724-1.464c-0.103,0.134-0.203,0.267-0.306,0.4l5.857,1.807l-5.991-1.632c-0.162,0.215-0.325,0.429-0.487,0.642
			l5.684,1.736l-5.814-1.563l-0.322,0.425l5.555,1.625l-5.689-1.446c-0.155,0.206-0.31,0.409-0.463,0.614l5.213,1.502l-5.342-1.33
			l-0.335,0.445l5.241,1.325l-5.369-1.154c-0.139,0.186-0.279,0.37-0.415,0.553l4.543,1.156l-4.657-1.004l-0.29,0.391l3.941,1.038
			l-4.125-0.793l-0.376,0.527l-0.424-0.359c0.153-0.197,0.331-0.401,0.492-0.609l-1.109-3.841l1.286,3.611l0.196-0.255l-1.412-4.575
			l1.526,4.429l0.466-0.605l-1.655-5.367l1.788,5.192l0.383-0.496l-1.951-5.5l2.081,5.331l0.5-0.649l-1.958-5.521l2.09,5.35
			l0.404-0.524l-2.1-5.922l2.242,5.738c0.141-0.182,0.282-0.365,0.426-0.55l-1.932-6.009l2.077,5.821
			c0.22-0.284,0.441-0.568,0.665-0.854l-2.033-5.732l2.17,5.557c0.253-0.322,0.507-0.644,0.761-0.969l-1.727-4.865l1.843,4.719
			c0.285-0.36,0.57-0.718,0.854-1.071l-1.676-4.725l1.789,4.582c0.21-0.261,0.418-0.52,0.627-0.774l-1.35-4.195l1.451,4.066
			l-0.01,0.013c0.235-0.29,0.471-0.573,0.701-0.854l-1.288-4.002l1.387,3.884c0.184-0.222,0.367-0.441,0.548-0.655l-1.215-3.755
			l1.308,3.646c0.138-0.163,0.275-0.324,0.41-0.484l-0.974-3.228l1.096,3.087c0.285-0.329,0.562-0.647,0.837-0.954l-0.666-2.727
			l0.758,2.622c0.266-0.295,0.524-0.576,0.776-0.845l-0.516-2.32l0.616,2.212c0.174-0.183,0.344-0.358,0.51-0.525l-0.077-1.811
			l0.188,1.698c0.254-0.256,0.5-0.492,0.734-0.706l0.142-0.997l-0.027,0.895C118.719,19.195,119.238,18.81,119.656,18.62z"/>
	</g>
	<g>
		<linearGradient id="SVGID_9_" gradientUnits="userSpaceOnUse" x1="174.8052" y1="20.3667" x2="184.8177" y2="23.8143">
			<stop  offset="0" style="stop-color:#1A6A36"/>
			<stop  offset="1" style="stop-color:#54B948"/>
		</linearGradient>
		<polygon fill-rule="evenodd" clip-rule="evenodd" fill="url(#SVGID_9_)" points="174.514,30.915 174.975,31.065 175.2,30.801 
			175.446,30.826 175.462,30.656 176.495,30.639 176.471,30.446 177.345,30.429 177.233,30.297 178.134,30.18 177.982,30.02 
			178.977,29.697 178.824,29.55 179.69,28.999 179.466,28.9 180.045,28.578 179.9,28.519 180.549,28.067 180.301,27.966 
			181.043,27.4 180.762,27.382 181.594,26.491 181.229,26.481 181.775,25.974 181.469,25.952 182.281,25.007 181.868,24.975 
			182.357,24.541 182.093,24.418 182.542,23.627 182.075,23.728 182.467,23.258 182.268,23.256 182.718,22.524 182.233,22.553 
			182.849,21.563 182.457,21.489 182.798,21.119 182.49,21.044 182.907,20.215 182.378,20.18 182.872,19.428 182.378,19.37 
			182.608,18.868 182.359,18.955 182.658,18.061 182.416,18.072 182.608,17.884 182.042,17.802 182.283,17.533 182.212,17.483 
			182.427,16.866 181.87,16.878 182.221,15.957 181.764,15.955 182.111,14.99 181.635,15.002 181.821,13.997 181.334,13.955 
			181.426,12.869 181.126,12.961 181.279,11.949 180.324,12.744 180.056,12.492 179.575,13.021 179.532,13.302 179.18,12.887 
			178.693,13.648 178.679,13.889 178.254,13.537 177.921,14.167 177.929,14.453 177.584,14.134 177.219,15.019 177.038,14.916 
			176.99,15.428 176.532,14.986 176.324,15.895 176.035,15.685 175.962,16.196 175.649,15.94 175.55,16.331 175.37,16.657 
			175.334,16.996 174.94,16.661 174.61,17.337 174.564,17.558 174.416,17.457 174.428,18.043 174.012,17.683 173.923,17.631 
			173.799,18.368 173.655,18.397 173.676,18.977 173.174,18.652 173.016,19.541 172.77,19.421 172.788,19.958 172.49,19.668 
			172.458,20.631 172.327,20.524 172.418,20.973 172.106,20.76 172.089,21.913 171.883,21.734 171.987,22.816 171.748,22.615 
			171.736,23.55 171.863,23.797 171.602,23.724 171.815,24.492 171.61,24.375 171.915,25.691 171.751,25.743 172.128,26.609 
			171.904,26.526 172.266,27.215 172.065,27.234 172.566,28.077 172.415,28.091 172.731,28.497 172.566,28.476 173.53,29.454 
			173.37,29.515 174.416,30.199 174.326,30.266 174.6,30.63 		"/>
		<path fill-rule="evenodd" clip-rule="evenodd" fill="#8EC74A" d="M181.279,11.949c-0.268,0.414-0.571,1.041-0.899,1.831
			l0.865-0.533l-0.967,0.78c-0.104,0.258-0.21,0.526-0.318,0.811l1.583-0.531l-1.638,0.675c-0.08,0.215-0.161,0.435-0.243,0.663
			l2.055-0.414l-2.104,0.55c-0.115,0.318-0.23,0.647-0.349,0.989l2.621-0.497l-2.668,0.631c-0.121,0.356-0.245,0.723-0.369,1.099
			l3.21-0.617l-3.27,0.797c-0.121,0.372-0.246,0.753-0.369,1.142l3.996-0.729l-4.069,0.957c-0.146,0.459-0.292,0.928-0.438,1.4
			l4.45-0.545l-4.5,0.706c-0.105,0.344-0.211,0.689-0.316,1.037l4.934-0.403l-4.98,0.562c-0.072,0.234-0.143,0.469-0.213,0.706
			l5.284-0.366l-5.337,0.541c-0.059,0.199-0.118,0.396-0.178,0.597l5.375-0.492l-5.431,0.682c-0.091,0.311-0.182,0.621-0.272,0.932
			l5.39-0.567l-5.449,0.771c-0.045,0.152-0.088,0.304-0.133,0.456l5.68-0.521l-5.737,0.72c-0.07,0.243-0.14,0.486-0.209,0.729
			l5.505-0.518l-5.562,0.716l-0.138,0.483l5.355-0.57l-5.414,0.774c-0.066,0.234-0.134,0.464-0.198,0.694l5.019-0.553l-5.074,0.748
			l-0.143,0.507l4.985-0.718l-5.039,0.911c-0.061,0.212-0.119,0.422-0.177,0.628l4.322-0.615l-4.37,0.787l-0.123,0.443l3.763-0.505
			l-3.842,0.784l-0.149,0.591l-0.487-0.163c0.067-0.226,0.155-0.465,0.225-0.701l-2.235-2.936l2.313,2.672l0.085-0.29l-2.742-3.465
			l2.792,3.297l0.204-0.692l-3.214-4.063l3.271,3.864l0.167-0.563l-3.517-4.076l3.573,3.881l0.219-0.741l-3.528-4.09l3.586,3.896
			l0.177-0.601l-3.784-4.387l3.846,4.179c0.062-0.21,0.125-0.42,0.188-0.63l-3.667-4.524l3.73,4.312
			c0.098-0.326,0.196-0.653,0.294-0.98l-3.663-4.246l3.724,4.047c0.112-0.37,0.226-0.742,0.34-1.111l-3.111-3.606l3.162,3.437
			c0.129-0.414,0.257-0.825,0.386-1.232l-3.02-3.503l3.071,3.338c0.095-0.301,0.19-0.601,0.285-0.897l-2.561-3.156l2.608,3.011
			l-0.005,0.014c0.108-0.333,0.216-0.664,0.324-0.989l-2.443-3.012l2.49,2.872c0.085-0.258,0.172-0.513,0.258-0.761l-2.299-2.825
			l2.343,2.694c0.065-0.188,0.131-0.378,0.196-0.563l-1.915-2.454l1.974,2.288c0.137-0.387,0.272-0.764,0.408-1.125l-1.482-2.128
			l1.528,2.004c0.132-0.35,0.263-0.688,0.393-1.009l-1.216-1.829l1.269,1.698c0.09-0.221,0.179-0.433,0.267-0.637l-0.667-1.543
			l0.727,1.405c0.137-0.312,0.271-0.604,0.403-0.874l-0.207-0.913l0.271,0.783C180.657,12.782,180.979,12.264,181.279,11.949z"/>
	</g>
	<g>
		<linearGradient id="SVGID_10_" gradientUnits="userSpaceOnUse" x1="95.4038" y1="11.6792" x2="104.1294" y2="17.5647">
			<stop  offset="0" style="stop-color:#1A6A36"/>
			<stop  offset="1" style="stop-color:#54B948"/>
		</linearGradient>
		<polygon fill-rule="evenodd" clip-rule="evenodd" fill="url(#SVGID_10_)" points="92.391,21.694 92.797,21.966 93.081,21.775 
			93.312,21.868 93.372,21.707 94.371,21.976 94.398,21.785 95.245,22.011 95.17,21.853 96.069,21.989 95.964,21.792 97.006,21.756 
			96.896,21.576 97.873,21.283 97.683,21.125 98.323,20.974 98.199,20.879 98.941,20.623 98.728,20.456 99.589,20.117 
			99.323,20.022 100.353,19.392 100.004,19.281 100.661,18.944 100.372,18.839 101.397,18.152 101.008,18.007 101.591,17.724 
			101.368,17.535 102.004,16.894 101.528,16.864 102.028,16.52 101.836,16.46 102.458,15.882 101.983,15.775 102.832,14.992 
			102.472,14.812 102.898,14.549 102.62,14.392 103.236,13.709 102.735,13.529 103.404,12.94 102.944,12.747 103.295,12.327 
			103.032,12.341 103.55,11.564 103.314,11.506 103.548,11.378 103.023,11.142 103.325,10.95 103.27,10.882 103.636,10.348 
			103.094,10.207 103.671,9.416 103.231,9.287 103.815,8.453 103.353,8.333 103.792,7.414 103.332,7.24 103.701,6.219 
			103.389,6.224 103.795,5.292 102.67,5.791 102.477,5.476 101.877,5.853 101.764,6.111 101.531,5.614 100.866,6.213 100.791,6.441 
			100.472,5.983 99.989,6.499 99.922,6.777 99.672,6.373 99.093,7.126 98.944,6.975 98.766,7.457 98.439,6.903 98.003,7.723 
			97.779,7.44 97.579,7.912 97.341,7.58 97.146,7.927 96.889,8.191 96.767,8.508 96.473,8.077 95.98,8.637 95.88,8.835 
			95.763,8.697 95.624,9.267 95.316,8.805 95.243,8.73 94.933,9.406 94.788,9.394 94.659,9.958 94.259,9.505 93.877,10.319 
			93.671,10.136 93.548,10.657 93.337,10.296 93.058,11.216 92.96,11.076 92.932,11.534 92.685,11.242 92.374,12.349 92.221,12.119 
			92.042,13.191 91.863,12.93 91.61,13.829 91.669,14.102 91.438,13.958 91.445,14.756 91.276,14.588 91.232,15.94 91.062,15.946 
			91.202,16.884 91.006,16.742 91.179,17.505 90.979,17.468 91.245,18.421 91.094,18.394 91.295,18.872 91.141,18.806 
			91.819,20.013 91.649,20.03 92.481,20.976 92.376,21.017 92.547,21.444 		"/>
		<path fill-rule="evenodd" clip-rule="evenodd" fill="#8EC74A" d="M103.795,5.292c-0.363,0.323-0.818,0.844-1.339,1.515
			l0.972-0.274l-1.133,0.484c-0.165,0.217-0.338,0.448-0.515,0.692l1.661-0.073l-1.75,0.197c-0.134,0.184-0.27,0.374-0.407,0.57
			l2.087,0.172l-2.17-0.055c-0.191,0.275-0.39,0.561-0.59,0.857l2.653,0.247l-2.732-0.131c-0.21,0.309-0.423,0.628-0.639,0.956
			l3.251,0.294l-3.354-0.139c-0.215,0.325-0.431,0.659-0.651,0.998l4.04,0.406l-4.169-0.206c-0.259,0.403-0.521,0.812-0.783,1.23
			l4.43,0.706l-4.52-0.566c-0.189,0.303-0.38,0.605-0.571,0.912l4.857,0.977l-4.943-0.837c-0.13,0.205-0.259,0.413-0.388,0.621
			l5.188,1.109l-5.282-0.955c-0.109,0.175-0.218,0.35-0.325,0.526l5.305,1.015l-5.407-0.848c-0.168,0.273-0.337,0.548-0.503,0.821
			l5.34,0.946l-5.45-0.766c-0.081,0.134-0.164,0.268-0.245,0.401l5.607,1.074l-5.715-0.897c-0.13,0.217-0.261,0.43-0.39,0.645
			l5.438,1.024l-5.544-0.85l-0.258,0.428l5.309,0.935l-5.417-0.754c-0.124,0.206-0.248,0.412-0.37,0.615l4.98,0.856l-5.083-0.684
			l-0.269,0.449l4.989,0.687L93.9,20.11c-0.112,0.188-0.223,0.373-0.332,0.559l4.324,0.602l-4.415-0.45l-0.232,0.391l3.757,0.559
			l-3.903-0.31L92.8,21.987l-0.428-0.29c0.124-0.2,0.269-0.405,0.397-0.615l-1.398-3.448l1.541,3.218l0.157-0.258l-1.75-4.098
			l1.842,3.95l0.374-0.611l-2.051-4.804l2.158,4.629l0.307-0.498l-2.338-4.902l2.442,4.729l0.401-0.652l-2.347-4.919l2.451,4.747
			l0.326-0.529L92.37,12.36L95,17.452c0.113-0.185,0.228-0.37,0.343-0.556l-2.368-5.373l2.484,5.187
			c0.178-0.286,0.355-0.574,0.535-0.862l-2.437-5.107l2.546,4.931c0.204-0.325,0.408-0.652,0.613-0.978l-2.068-4.336l2.163,4.188
			c0.229-0.365,0.458-0.725,0.688-1.083L95.49,9.253l2.101,4.065c0.169-0.264,0.339-0.525,0.507-0.784l-1.655-3.751l1.739,3.621
			l-0.008,0.013c0.189-0.292,0.379-0.58,0.567-0.862l-1.58-3.58l1.66,3.458c0.149-0.224,0.297-0.446,0.444-0.664l-1.488-3.356
			l1.564,3.246c0.111-0.165,0.223-0.329,0.334-0.491l-1.214-2.895l1.313,2.752c0.231-0.335,0.46-0.66,0.684-0.972l-0.881-2.461
			l0.957,2.354c0.217-0.301,0.431-0.59,0.638-0.863l-0.7-2.101l0.785,1.989c0.143-0.188,0.283-0.368,0.421-0.541l-0.246-1.671
			l0.338,1.556c0.212-0.264,0.418-0.508,0.615-0.73l0.034-0.939l0.061,0.832C102.98,5.922,103.426,5.512,103.795,5.292z"/>
	</g>
	<g>
		<linearGradient id="SVGID_11_" gradientUnits="userSpaceOnUse" x1="188.7876" y1="25.2485" x2="193.6411" y2="34.7741">
			<stop  offset="0" style="stop-color:#1A6A36"/>
			<stop  offset="1" style="stop-color:#54B948"/>
		</linearGradient>
		<polygon fill-rule="evenodd" clip-rule="evenodd" fill="url(#SVGID_11_)" points="181.485,32.546 181.716,32.985 182.053,32.958 
			182.214,33.153 182.34,33.042 183.095,33.773 183.208,33.617 183.847,34.234 183.855,34.059 184.582,34.623 184.581,34.396 
			185.513,34.879 185.5,34.666 186.493,34.892 186.398,34.66 187.031,34.844 186.965,34.699 187.735,34.84 187.625,34.587 
			188.537,34.717 188.348,34.5 189.542,34.456 189.288,34.186 190.019,34.215 189.813,33.978 191.03,33.883 190.754,33.563 
			191.397,33.602 191.289,33.327 192.141,33.078 191.739,32.814 192.335,32.758 192.194,32.615 193.007,32.411 192.638,32.083 
			193.745,31.814 193.511,31.479 194.006,31.458 193.833,31.182 194.689,30.886 194.332,30.479 195.191,30.293 194.875,29.897 
			195.376,29.699 195.138,29.583 195.953,29.156 195.771,28.99 196.035,28.992 195.682,28.524 196.037,28.506 196.02,28.419 
			196.587,28.129 196.175,27.737 197.046,27.327 196.719,26.996 197.615,26.551 197.265,26.217 198.073,25.625 197.749,25.247 
			198.542,24.533 198.265,24.382 199.052,23.763 197.833,23.646 197.809,23.274 197.107,23.309 196.889,23.479 196.913,22.928 
			196.052,23.125 195.881,23.288 195.812,22.728 195.151,22.944 194.965,23.154 194.93,22.675 194.074,23.051 194.013,22.845 
			193.635,23.181 193.603,22.533 192.842,23.037 192.775,22.679 192.381,22.994 192.327,22.584 191.996,22.794 191.648,22.897 
			191.395,23.118 191.335,22.592 190.644,22.841 190.464,22.967 190.424,22.789 190.041,23.218 189.982,22.661 189.954,22.559 
			189.37,23 189.247,22.917 188.874,23.35 188.731,22.753 188.022,23.282 187.924,23.016 187.577,23.416 187.556,22.994 
			186.889,23.665 186.868,23.492 186.632,23.88 186.549,23.502 185.766,24.323 185.738,24.043 185.087,24.897 185.051,24.58 
			184.415,25.245 184.341,25.514 184.204,25.274 183.842,25.979 183.772,25.747 183.111,26.914 182.959,26.835 182.651,27.728 
			182.544,27.508 182.344,28.265 182.186,28.133 181.982,29.1 181.862,29.003 181.819,29.522 181.714,29.388 181.753,30.786 
			181.597,30.715 181.893,31.958 181.783,31.944 181.737,32.403 		"/>
		<path fill-rule="evenodd" clip-rule="evenodd" fill="#8EC74A" d="M199.052,23.763c-0.47,0.104-1.108,0.34-1.874,0.671l0.979,0.238
			l-1.218-0.134c-0.245,0.109-0.504,0.227-0.771,0.354l1.494,0.757l-1.629-0.693c-0.201,0.097-0.408,0.197-0.62,0.3l1.755,1.184
			l-1.882-1.119c-0.295,0.146-0.6,0.301-0.913,0.461l2.22,1.528l-2.343-1.465c-0.325,0.169-0.66,0.344-1.002,0.524l2.725,1.866
			l-2.886-1.779c-0.338,0.179-0.683,0.364-1.03,0.556l3.362,2.352l-3.569-2.24c-0.412,0.226-0.831,0.456-1.254,0.692l3.57,2.812
			l-3.714-2.73c-0.305,0.171-0.612,0.343-0.92,0.519l3.821,3.259l-3.962-3.181c-0.209,0.119-0.417,0.236-0.625,0.355l4.049,3.541
			l-4.205-3.452c-0.176,0.101-0.352,0.201-0.526,0.303l4.196,3.514l-4.363-3.417c-0.275,0.155-0.548,0.314-0.82,0.473l4.258,3.471
			l-4.438-3.368c-0.134,0.078-0.268,0.156-0.401,0.235l4.437,3.713l-4.611-3.612c-0.214,0.125-0.427,0.251-0.639,0.374l4.31,3.588
			l-4.482-3.486l-0.424,0.249l4.237,3.443l-4.415-3.339c-0.205,0.119-0.407,0.24-0.608,0.357l3.983,3.216l-4.154-3.114l-0.441,0.263
			l4.069,3.07l-4.238-2.972c-0.185,0.109-0.367,0.219-0.547,0.325l3.523,2.669l-3.674-2.578l-0.385,0.229l3.047,2.345l-3.289-2.198
			l-0.504,0.316l-0.243-0.467c0.2-0.115,0.424-0.225,0.632-0.344l0.357-3.724l-0.125,3.59l0.256-0.148l0.346-4.467l-0.197,4.383
			l0.61-0.353l0.407-5.237l-0.232,5.137l0.498-0.288l0.198-5.464l-0.027,5.365l0.652-0.376l0.199-5.483l-0.027,5.384l0.53-0.304
			l0.214-5.88l-0.029,5.774c0.184-0.104,0.369-0.212,0.555-0.318l0.391-5.895l-0.2,5.787c0.287-0.164,0.576-0.329,0.866-0.493
			l0.206-5.693l-0.028,5.593c0.329-0.186,0.658-0.371,0.987-0.557l0.176-4.832l-0.023,4.748c0.368-0.206,0.736-0.409,1.103-0.61
			l0.169-4.693l-0.022,4.612c0.27-0.147,0.539-0.294,0.806-0.439l0.27-4.115l-0.138,4.042l-0.012,0.009
			c0.301-0.163,0.601-0.323,0.896-0.479l0.258-3.928l-0.132,3.862c0.234-0.124,0.467-0.245,0.697-0.364l0.234-3.688l-0.117,3.628
			c0.174-0.091,0.348-0.179,0.52-0.266l0.264-3.146l-0.111,3.067c0.358-0.179,0.709-0.352,1.048-0.517l0.358-2.597l-0.242,2.541
			c0.33-0.156,0.65-0.305,0.959-0.444l0.349-2.191l-0.224,2.136c0.211-0.095,0.417-0.183,0.618-0.266l0.554-1.592l-0.42,1.534
			c0.309-0.125,0.602-0.238,0.876-0.337l0.464-0.809l-0.33,0.761C198.045,23.916,198.625,23.773,199.052,23.763z"/>
	</g>
	<g>
		
			<linearGradient id="SVGID_12_" gradientUnits="userSpaceOnUse" x1="239.7554" y1="82.2974" x2="234.9785" y2="91.6724" gradientTransform="matrix(0.8371 0.5471 -0.5471 0.8371 23.8051 -157.2105)">
			<stop  offset="0" style="stop-color:#1A6A36"/>
			<stop  offset="1" style="stop-color:#54B948"/>
		</linearGradient>
		<polygon fill-rule="evenodd" clip-rule="evenodd" fill="url(#SVGID_12_)" points="171.963,35.608 171.554,35.869 171.598,36.215 
			171.417,36.393 171.532,36.517 170.868,37.337 171.023,37.445 170.461,38.141 170.631,38.139 170.126,38.921 170.342,38.909 
			169.925,39.9 170.131,39.875 169.965,40.915 170.185,40.805 170.039,41.468 170.176,41.392 170.081,42.197 170.318,42.07 
			170.242,43.022 170.44,42.814 170.543,44.049 170.792,43.77 170.801,44.529 171.018,44.304 171.175,45.558 171.468,45.256 
			171.464,45.924 171.724,45.798 172.007,46.668 172.241,46.237 172.326,46.852 172.457,46.698 172.695,47.53 172.991,47.131 
			173.309,48.263 173.619,48.003 173.666,48.515 173.922,48.32 174.25,49.192 174.625,48.8 174.849,49.68 175.214,49.333 
			175.43,49.843 175.531,49.589 175.985,50.409 176.136,50.213 176.146,50.485 176.578,50.097 176.615,50.462 176.699,50.439 
			177.006,51.012 177.362,50.567 177.804,51.446 178.104,51.089 178.581,51.995 178.882,51.615 179.494,52.42 179.841,52.065 
			180.573,52.848 180.703,52.556 181.34,53.336 181.388,52.07 181.747,52.024 181.676,51.301 181.5,51.083 182.034,51.079 
			181.797,50.199 181.631,50.031 182.167,49.93 181.926,49.255 181.713,49.075 182.171,49.013 181.766,48.146 181.961,48.072 
			181.619,47.7 182.242,47.63 181.715,46.872 182.056,46.783 181.733,46.392 182.125,46.312 181.906,45.98 181.787,45.626 
			181.562,45.376 182.064,45.286 181.79,44.583 181.66,44.405 181.831,44.353 181.395,43.979 181.929,43.89 182.026,43.854 
			181.57,43.273 181.643,43.143 181.208,42.778 181.774,42.599 181.23,41.892 181.478,41.777 181.076,41.439 181.482,41.393 
			180.801,40.739 180.966,40.708 180.579,40.485 180.938,40.379 180.109,39.611 180.375,39.567 179.519,38.939 179.823,38.883 
			179.15,38.26 178.886,38.197 179.111,38.042 178.413,37.705 178.632,37.62 177.474,36.997 177.542,36.834 176.666,36.562 
			176.875,36.44 176.134,36.273 176.252,36.102 175.307,35.942 175.397,35.813 174.895,35.794 175.019,35.679 173.674,35.793 
			173.734,35.627 172.552,35.999 172.56,35.883 172.116,35.86 		"/>
		<path fill-rule="evenodd" clip-rule="evenodd" fill="#8EC74A" d="M181.34,53.336c-0.127-0.479-0.386-1.128-0.744-1.903
			l-0.18,1.026l0.066-1.27c-0.118-0.247-0.246-0.509-0.381-0.779l-0.652,1.586l0.583-1.722c-0.103-0.205-0.21-0.412-0.323-0.626
			l-1.047,1.878l0.98-2.007c-0.156-0.298-0.32-0.606-0.492-0.921l-1.356,2.377l1.289-2.501c-0.18-0.329-0.365-0.665-0.557-1.01
			l-1.654,2.917l1.562-3.08c-0.19-0.34-0.388-0.687-0.589-1.037l-2.092,3.604l1.973-3.813c-0.239-0.415-0.484-0.837-0.732-1.261
			l-2.521,3.842l2.436-3.988c-0.181-0.306-0.362-0.616-0.547-0.925l-2.94,4.126l2.856-4.268c-0.125-0.21-0.249-0.42-0.374-0.629
			l-3.2,4.377l3.106-4.534c-0.106-0.176-0.212-0.353-0.318-0.53l-3.167,4.529l3.066-4.696c-0.167-0.275-0.334-0.55-0.5-0.825
			l-3.121,4.59l3.012-4.77c-0.083-0.135-0.164-0.269-0.245-0.402l-3.345,4.785l3.236-4.961c-0.131-0.217-0.262-0.432-0.393-0.643
			l-3.231,4.647l3.125-4.82l-0.262-0.427l-3.097,4.565l2.986-4.744c-0.126-0.207-0.252-0.41-0.378-0.611l-2.888,4.292l2.782-4.464
			L172.8,37.87l-2.746,4.371l2.641-4.542c-0.115-0.185-0.229-0.367-0.341-0.549l-2.387,3.787L172.258,37l-0.241-0.387l-2.101,3.275
			l1.949-3.519l-0.332-0.508l0.438-0.274c0.121,0.201,0.237,0.427,0.364,0.636l3.604,0.176l-3.463,0.06l0.155,0.255l4.322,0.127
			l-4.23,0.023l0.368,0.614l5.066,0.146l-4.96,0.029l0.303,0.5l5.273-0.079l-5.17,0.253l0.397,0.654l5.292-0.079l-5.188,0.252
			l0.321,0.532l5.675-0.084l-5.563,0.271c0.11,0.186,0.222,0.371,0.335,0.559l5.698,0.096l-5.585,0.095
			c0.173,0.289,0.348,0.579,0.521,0.871L181,41.412l-5.388,0.262c0.196,0.33,0.394,0.662,0.589,0.993l4.664-0.07l-4.575,0.222
			c0.218,0.371,0.434,0.742,0.646,1.111l4.529-0.07l-4.443,0.217c0.156,0.272,0.312,0.544,0.465,0.812l3.978,0.065l-3.902,0.069
			l-0.007-0.013c0.172,0.304,0.342,0.604,0.508,0.902l3.797,0.061l-3.726,0.066c0.131,0.236,0.259,0.471,0.386,0.702l3.563,0.052
			l-3.498,0.065c0.095,0.178,0.188,0.352,0.282,0.525l3.042,0.11l-2.96,0.044c0.191,0.361,0.376,0.715,0.552,1.057l2.521,0.236
			l-2.462-0.117c0.17,0.333,0.329,0.655,0.479,0.969l2.129,0.248l-2.068-0.122c0.101,0.215,0.197,0.424,0.288,0.627l1.561,0.489
			l-1.5-0.353c0.139,0.312,0.264,0.608,0.372,0.889l0.803,0.438l-0.75-0.302C181.14,52.305,181.306,52.896,181.34,53.336z"/>
	</g>
	<g>
		<linearGradient id="SVGID_13_" gradientUnits="userSpaceOnUse" x1="109.3726" y1="50.1821" x2="99.0689" y2="50.9026">
			<stop  offset="0" style="stop-color:#1A6A36"/>
			<stop  offset="1" style="stop-color:#54B948"/>
		</linearGradient>
		<polygon fill-rule="evenodd" clip-rule="evenodd" fill="url(#SVGID_13_)" points="105.798,40.304 105.318,40.35 105.208,40.679 
			104.971,40.755 105.019,40.919 104.073,41.346 104.166,41.514 103.364,41.876 103.515,41.955 102.727,42.419 102.927,42.51 
			102.128,43.204 102.323,43.276 101.727,44.129 101.969,44.133 101.554,44.661 101.709,44.657 101.277,45.332 101.544,45.327 
			101.067,46.144 101.333,46.049 100.896,47.204 101.236,47.068 100.919,47.752 101.209,47.65 100.809,48.845 101.204,48.711 
			100.912,49.308 101.2,49.314 101.079,50.223 101.472,49.946 101.283,50.535 101.467,50.458 101.323,51.312 101.759,51.094 
			101.556,52.252 101.947,52.164 101.768,52.643 102.081,52.589 102.001,53.52 102.503,53.342 102.325,54.234 102.802,54.092 
			102.775,54.647 102.973,54.468 103.027,55.411 103.248,55.305 103.139,55.554 103.693,55.407 103.569,55.75 103.652,55.769 
			103.682,56.424 104.193,56.19 104.208,57.182 104.632,57 104.668,58.032 105.103,57.83 105.303,58.833 105.767,58.677 
			106.084,59.717 106.327,59.515 106.56,60.508 107.149,59.398 107.49,59.524 107.738,58.842 107.674,58.567 108.153,58.81 
			108.321,57.913 108.244,57.684 108.767,57.842 108.841,57.126 108.73,56.867 109.166,57.024 109.175,56.061 109.381,56.085 
			109.236,55.591 109.823,55.818 109.68,54.894 110.023,54.974 109.901,54.474 110.286,54.585 110.233,54.187 110.279,53.814 
			110.187,53.487 110.673,53.639 110.729,52.882 110.691,52.662 110.866,52.697 110.637,52.158 111.153,52.327 111.254,52.338 
			111.097,51.608 111.218,51.524 110.987,50.998 111.57,51.098 111.385,50.215 111.66,50.228 111.445,49.738 111.826,49.886 
			111.499,48.985 111.66,49.033 111.409,48.654 111.778,48.725 111.366,47.654 111.624,47.739 111.127,46.782 111.423,46.873 
			111.087,46.001 110.879,45.825 111.147,45.79 110.667,45.165 110.899,45.189 110.131,44.096 110.262,43.984 109.594,43.335 
			109.833,43.321 109.243,42.83 109.422,42.731 108.648,42.15 108.782,42.076 108.34,41.83 108.5,41.782 107.249,41.261 
			107.373,41.142 106.157,40.926 106.213,40.827 105.825,40.601 		"/>
		<path fill-rule="evenodd" clip-rule="evenodd" fill="#8EC74A" d="M106.56,60.508c0.095-0.487,0.142-1.187,0.154-2.049
			l-0.602,0.838l0.604-1.105c0.001-0.277-0.001-0.569-0.006-0.874l-1.266,1.117l1.263-1.271c-0.004-0.23-0.011-0.467-0.02-0.71
			l-1.745,1.197l1.74-1.343c-0.012-0.338-0.025-0.689-0.043-1.052l-2.237,1.5l2.229-1.643c-0.019-0.376-0.04-0.765-0.064-1.162
			l-2.736,1.846l2.725-2.033c-0.023-0.393-0.051-0.794-0.079-1.201l-3.423,2.259l3.405-2.499c-0.035-0.482-0.073-0.974-0.113-1.47
			l-3.908,2.273l3.896-2.442c-0.029-0.357-0.06-0.718-0.091-1.082l-4.408,2.333l4.394-2.497c-0.021-0.245-0.043-0.49-0.064-0.736
			l-4.747,2.438l4.73-2.621c-0.02-0.208-0.038-0.414-0.057-0.621l-4.783,2.588l4.764-2.785c-0.029-0.324-0.061-0.646-0.091-0.97
			l-4.77,2.664l4.749-2.876c-0.017-0.158-0.03-0.314-0.046-0.473l-5.055,2.736l5.033-2.944c-0.024-0.253-0.05-0.506-0.075-0.758
			l-4.893,2.667l4.872-2.87l-0.052-0.502l-4.736,2.654l4.716-2.864c-0.025-0.243-0.051-0.483-0.074-0.723l-4.433,2.504l4.41-2.705
			l-0.056-0.524l-4.339,2.644l4.318-2.846c-0.022-0.218-0.047-0.435-0.069-0.649l-3.766,2.287l3.746-2.465l-0.049-0.459l-3.29,1.961
			l3.258-2.248l-0.079-0.605l0.51-0.045c0.021,0.236,0.03,0.491,0.052,0.738l3.151,1.822l-3.126-1.549l0.028,0.303l3.813,2.11
			l-3.797-1.936l0.067,0.721l4.47,2.475l-4.45-2.27l0.055,0.589l4.755,2.368l-4.734-2.165l0.071,0.77l4.771,2.377l-4.751-2.173
			l0.058,0.623l5.116,2.55l-5.097-2.332c0.021,0.219,0.04,0.437,0.06,0.657l5.059,2.72l-5.038-2.498
			c0.03,0.338,0.062,0.68,0.091,1.021l4.953,2.467l-4.936-2.257c0.034,0.387,0.066,0.773,0.098,1.16l4.205,2.095l-4.19-1.918
			c0.035,0.433,0.068,0.864,0.101,1.293l4.082,2.034l-4.068-1.862c0.023,0.315,0.046,0.63,0.066,0.94l3.531,1.899l-3.521-1.745
			l-0.002-0.014c0.024,0.352,0.046,0.699,0.066,1.043l3.371,1.811l-3.361-1.665c0.016,0.273,0.029,0.544,0.043,0.809l3.167,1.693
			l-3.16-1.558c0.01,0.202,0.02,0.401,0.027,0.6l2.677,1.506l-2.669-1.33c0.016,0.412,0.029,0.813,0.038,1.202l2.154,1.377
			l-2.15-1.243c0.008,0.375,0.011,0.738,0.01,1.087l1.799,1.207l-1.799-1.065c-0.002,0.238-0.005,0.471-0.011,0.695l1.186,1.158
			l-1.189-1.011c-0.012,0.344-0.027,0.667-0.051,0.97l0.529,0.761l-0.541-0.615C106.828,59.493,106.72,60.099,106.56,60.508z"/>
	</g>
	<g>
		
			<linearGradient id="SVGID_14_" gradientUnits="userSpaceOnUse" x1="191.6626" y1="53.1978" x2="191.4304" y2="39.8971" gradientTransform="matrix(0.5147 0.8574 -0.8574 0.5147 22.5415 -178.5495)">
			<stop  offset="0" style="stop-color:#1A6A36"/>
			<stop  offset="1" style="stop-color:#54B948"/>
		</linearGradient>
		<polygon fill-rule="evenodd" clip-rule="evenodd" fill="url(#SVGID_14_)" points="85.486,22.025 85.993,21.666 85.918,21.226 
			86.138,20.99 85.986,20.837 86.787,19.753 86.583,19.626 87.259,18.708 87.042,18.721 87.643,17.695 87.367,17.723 87.842,16.437 
			87.583,16.48 87.736,15.146 87.463,15.298 87.611,14.444 87.442,14.549 87.52,13.517 87.224,13.694 87.268,12.478 87.027,12.753 
			86.826,11.186 86.527,11.557 86.471,10.59 86.208,10.89 85.939,9.301 85.58,9.704 85.55,8.854 85.225,9.03 84.816,7.939 
			84.543,8.501 84.401,7.723 84.242,7.927 83.893,6.881 83.538,7.408 83.07,5.987 82.688,6.334 82.601,5.685 82.285,5.947 
			81.817,4.859 81.363,5.378 81.03,4.271 80.584,4.736 80.281,4.099 80.167,4.428 79.543,3.411 79.361,3.67 79.333,3.322 
			78.804,3.845 78.737,3.38 78.633,3.414 78.208,2.704 77.778,3.292 77.168,2.198 76.805,2.67 76.149,1.544 75.785,2.048 
			74.96,1.059 74.537,1.531 73.563,0.577 73.414,0.958 72.56,0 72.569,1.618 72.115,1.697 72.244,2.615 72.48,2.879 71.801,2.918 
			72.151,4.026 72.371,4.23 71.696,4.391 72.039,5.236 72.32,5.455 71.74,5.558 72.304,6.637 72.06,6.744 72.516,7.199 
			71.727,7.324 72.44,8.26 72.008,8.393 72.444,8.871 71.949,8.995 72.248,9.406 72.417,9.85 72.716,10.155 72.083,10.298 
			72.472,11.177 72.649,11.398 72.432,11.472 73.008,11.924 72.333,12.07 72.213,12.12 72.825,12.833 72.739,13.004 73.314,13.443 
			72.603,13.705 73.336,14.572 73.025,14.733 73.554,15.141 73.042,15.22 73.945,16.014 73.737,16.064 74.242,16.326 73.79,16.482 
			74.889,17.411 74.55,17.482 75.678,18.233 75.293,18.321 76.186,19.075 76.524,19.139 76.248,19.349 77.155,19.737 76.88,19.858 
			78.39,20.583 78.312,20.792 79.444,21.087 79.186,21.255 80.139,21.424 79.996,21.65 81.208,21.798 81.101,21.967 81.742,21.959 
			81.591,22.114 83.297,21.89 83.231,22.103 84.714,21.561 84.709,21.708 85.28,21.712 		"/>
		<path fill-rule="evenodd" clip-rule="evenodd" fill="#8EC74A" d="M72.56,0c0.186,0.605,0.552,1.416,1.053,2.382l0.172-1.318
			l-0.014,1.619c0.163,0.311,0.34,0.635,0.527,0.972l0.742-2.061l-0.646,2.231c0.142,0.253,0.29,0.513,0.444,0.776l1.229-2.454
			l-1.136,2.614c0.214,0.371,0.44,0.753,0.676,1.144l1.597-3.11l-1.503,3.264c0.245,0.408,0.502,0.827,0.765,1.254l1.948-3.814
			l-1.822,4.017c0.264,0.422,0.533,0.852,0.808,1.287l2.464-4.716l-2.3,4.974c0.327,0.515,0.662,1.036,1.002,1.564l2.998-5.045
			l-2.881,5.223c0.246,0.381,0.496,0.765,0.748,1.147l3.517-5.431l-3.403,5.607c0.171,0.258,0.343,0.518,0.513,0.777l3.832-5.767
			l-3.704,5.96c0.146,0.22,0.291,0.438,0.436,0.655l3.781-5.956l-3.644,6.165c0.227,0.341,0.454,0.682,0.684,1.021l3.721-6.034
			l-3.574,6.257c0.113,0.168,0.226,0.333,0.335,0.499l3.998-6.296l-3.851,6.515c0.18,0.265,0.358,0.53,0.536,0.793l3.86-6.113
			l-3.715,6.328l0.357,0.526l3.691-6l-3.542,6.222c0.173,0.255,0.347,0.506,0.516,0.756l3.44-5.64l-3.297,5.852l0.376,0.548
			l3.253-5.732l-3.11,5.943c0.158,0.228,0.312,0.455,0.468,0.679l2.827-4.966l-2.7,5.153l0.328,0.477l2.494-4.299l-2.287,4.601
			l0.453,0.625l-0.544,0.376c-0.165-0.249-0.325-0.529-0.498-0.789l-4.603-0.008l4.41-0.28l-0.213-0.318l-5.511,0.097l5.387-0.282
			l-0.504-0.759l-6.461,0.112l6.316-0.331l-0.414-0.618l-6.712,0.415l6.57-0.629l-0.543-0.812l-6.734,0.417l6.593-0.631
			l-0.438-0.659l-7.226,0.449l7.072-0.678c-0.151-0.229-0.304-0.461-0.456-0.692l-7.264,0.219l7.105-0.455
			c-0.234-0.357-0.472-0.717-0.709-1.077l-6.994,0.433l6.848-0.656c-0.269-0.408-0.535-0.819-0.803-1.23l-5.938,0.368l5.816-0.556
			c-0.298-0.459-0.593-0.919-0.885-1.375l-5.765,0.356l5.646-0.54c-0.213-0.336-0.426-0.673-0.638-1.006l-5.069,0.155l4.966-0.321
			l0.01,0.017c-0.235-0.376-0.468-0.75-0.697-1.12l-4.837,0.147l4.741-0.306c-0.181-0.292-0.358-0.583-0.531-0.87l-4.541,0.146
			l4.451-0.294c-0.131-0.218-0.262-0.435-0.389-0.65L72.158,7.48l3.77-0.234c-0.266-0.45-0.52-0.889-0.763-1.316L71.94,5.781
			l3.143,0.003c-0.232-0.414-0.453-0.816-0.663-1.205l-2.724-0.188l2.64,0.031c-0.14-0.268-0.276-0.529-0.403-0.781l-2.015-0.53
			l1.931,0.36c-0.192-0.389-0.368-0.76-0.522-1.11l-1.047-0.51l0.973,0.339C72.87,1.306,72.625,0.56,72.56,0z"/>
	</g>
	<g>
		
			<linearGradient id="SVGID_15_" gradientUnits="userSpaceOnUse" x1="282.9097" y1="93.9966" x2="287.2046" y2="97.0039" gradientTransform="matrix(0.5012 0.8654 -0.8654 0.5012 99.7394 -240.5606)">
			<stop  offset="0" style="stop-color:#1A6A36"/>
			<stop  offset="1" style="stop-color:#54B948"/>
		</linearGradient>
		<polygon fill-rule="evenodd" clip-rule="evenodd" fill="url(#SVGID_15_)" points="155.338,52.462 155.325,52.706 155.471,52.784 
			155.49,52.908 155.568,52.895 155.7,53.397 155.784,53.364 155.895,53.789 155.943,53.717 156.102,54.143 156.158,54.05 
			156.422,54.499 156.469,54.406 156.826,54.763 156.842,54.643 157.057,54.887 157.066,54.81 157.348,55.074 157.367,54.94 
			157.711,55.235 157.687,55.096 158.192,55.395 158.152,55.215 158.447,55.422 158.42,55.27 158.946,55.555 158.914,55.349 
			159.167,55.537 159.191,55.394 159.604,55.518 159.503,55.302 159.763,55.439 159.741,55.339 160.126,55.473 160.055,55.24 
			160.58,55.422 160.566,55.222 160.776,55.346 160.773,55.185 161.199,55.292 161.152,55.029 161.552,55.181 161.52,54.933 
			161.776,54.985 161.707,54.874 162.148,54.913 162.115,54.796 162.223,54.868 162.192,54.582 162.343,54.667 162.357,54.626 
			162.664,54.659 162.591,54.388 163.051,54.451 163,54.225 163.478,54.281 163.417,54.049 163.898,54.021 163.857,53.778 
			164.362,53.694 164.286,53.558 164.762,53.513 164.288,53.14 164.371,52.98 164.073,52.807 163.94,52.82 164.086,52.598 
			163.683,52.451 163.572,52.473 163.683,52.223 163.356,52.136 163.227,52.173 163.331,51.967 162.884,51.894 162.91,51.793 
			162.671,51.831 162.819,51.555 162.381,51.56 162.439,51.396 162.2,51.42 162.28,51.236 162.09,51.234 161.92,51.185 
			161.762,51.208 161.868,50.975 161.521,50.894 161.415,50.899 161.443,50.814 161.178,50.89 161.292,50.643 161.304,50.594 
			160.956,50.622 160.924,50.554 160.664,50.633 160.751,50.349 160.33,50.378 160.354,50.244 160.113,50.316 160.208,50.134 
			159.766,50.236 159.801,50.158 159.607,50.256 159.667,50.078 159.141,50.207 159.199,50.084 158.718,50.263 158.783,50.124 
			158.356,50.229 158.257,50.321 158.26,50.186 157.937,50.379 157.964,50.264 157.404,50.571 157.36,50.497 157.012,50.785 
			157.024,50.665 156.753,50.923 156.719,50.828 156.395,51.173 156.37,51.101 156.224,51.304 156.214,51.22 155.884,51.807 
			155.837,51.737 155.653,52.329 155.609,52.292 155.477,52.47 		"/>
		<path fill-rule="evenodd" clip-rule="evenodd" fill="#8EC74A" d="M164.762,53.513c-0.22-0.081-0.541-0.155-0.938-0.223l0.343,0.36
			l-0.469-0.381c-0.128-0.021-0.263-0.04-0.404-0.059l0.429,0.71l-0.5-0.72c-0.109-0.013-0.217-0.027-0.331-0.041l0.432,0.956
			l-0.499-0.964c-0.16-0.018-0.323-0.035-0.49-0.052l0.534,1.221l-0.603-1.228c-0.176-0.018-0.356-0.034-0.544-0.049l0.663,1.494
			l-0.751-1.503c-0.184-0.015-0.372-0.03-0.562-0.045l0.805,1.865l-0.917-1.873c-0.227-0.018-0.457-0.032-0.69-0.048l0.779,2.108
			l-0.858-2.114c-0.168-0.011-0.336-0.021-0.508-0.031l0.77,2.362l-0.847-2.366c-0.115-0.008-0.231-0.014-0.347-0.021l0.795,2.539
			l-0.88-2.543c-0.098-0.006-0.196-0.011-0.293-0.016l0.863,2.566l-0.957-2.572c-0.152-0.007-0.303-0.015-0.454-0.022l0.897,2.566
			l-0.998-2.57c-0.074-0.005-0.148-0.008-0.223-0.013l0.911,2.714l-1.009-2.717c-0.118-0.007-0.237-0.012-0.355-0.017l0.89,2.628
			l-0.986-2.632l-0.236-0.01l0.896,2.549l-0.996-2.554c-0.114-0.005-0.228-0.009-0.341-0.014l0.848,2.388l-0.942-2.392l-0.246-0.009
			l0.918,2.351l-1.015-2.354c-0.103-0.005-0.203-0.009-0.305-0.012l0.794,2.039l-0.878-2.044l-0.216-0.007l0.676,1.779l-0.812-1.782
			l-0.287-0.004l0.018-0.258c0.11,0.005,0.228,0.02,0.344,0.025l1.069-1.44l-0.939,1.448l0.144,0.008l1.247-1.753l-1.165,1.757
			l0.337,0.018l1.465-2.054l-1.365,2.058l0.276,0.014l1.434-2.202l-1.34,2.208l0.363,0.018l1.439-2.21l-1.346,2.215l0.296,0.016
			l1.543-2.37l-1.441,2.376c0.102,0.005,0.204,0.012,0.308,0.016l1.62-2.329l-1.516,2.335c0.16,0.009,0.319,0.018,0.48,0.028
			l1.494-2.296l-1.396,2.3c0.181,0.012,0.364,0.023,0.545,0.034l1.27-1.947l-1.187,1.953c0.202,0.014,0.405,0.027,0.607,0.041
			l1.23-1.892L160,52.725c0.147,0.011,0.297,0.021,0.442,0.033l1.13-1.627l-1.058,1.633l-0.008-0.001
			c0.164,0.014,0.328,0.027,0.489,0.041l1.078-1.552l-1.011,1.559c0.127,0.01,0.254,0.022,0.377,0.035l1.012-1.459l-0.948,1.465
			c0.096,0.01,0.189,0.019,0.282,0.028l0.887-1.228l-0.806,1.237c0.192,0.021,0.379,0.043,0.562,0.065l0.791-0.978l-0.729,0.984
			c0.174,0.024,0.344,0.048,0.505,0.072l0.688-0.812l-0.622,0.821c0.11,0.019,0.217,0.036,0.32,0.056l0.623-0.51l-0.553,0.521
			c0.156,0.031,0.307,0.061,0.444,0.094l0.392-0.211l-0.325,0.228C164.311,53.307,164.583,53.403,164.762,53.513z"/>
	</g>
	<g>
		<linearGradient id="SVGID_16_" gradientUnits="userSpaceOnUse" x1="202.6147" y1="36.188" x2="198.3721" y2="47.8446">
			<stop  offset="0" style="stop-color:#5B8E3F"/>
			<stop  offset="1" style="stop-color:#88C540"/>
		</linearGradient>
		<polygon fill-rule="evenodd" clip-rule="evenodd" fill="url(#SVGID_16_)" points="191.532,38.383 191.591,38.92 191.939,39.036 
			192.024,39.298 192.195,39.241 192.663,40.292 192.835,40.183 193.235,41.074 193.312,40.902 193.818,41.774 193.906,41.547 
			194.652,42.425 194.721,42.206 195.627,42.854 195.625,42.581 196.185,43.033 196.177,42.86 196.894,43.327 196.882,43.029 
			197.748,43.543 197.642,43.247 198.856,43.708 198.708,43.329 199.43,43.668 199.317,43.343 200.573,43.763 200.424,43.325 
			201.053,43.638 201.053,43.315 202.003,43.425 201.704,42.992 202.325,43.189 202.24,42.984 203.135,43.125 202.895,42.64 
			204.109,42.837 204.008,42.404 204.512,42.59 204.449,42.241 205.42,42.307 205.224,41.749 206.159,41.926 205.999,41.393 
			206.578,41.41 206.385,41.192 207.37,41.107 207.252,40.865 207.516,40.977 207.348,40.362 207.708,40.492 207.727,40.397 
			208.41,40.348 208.152,39.78 209.187,39.737 208.989,39.268 210.062,39.2 209.842,38.718 210.884,38.467 210.709,37.949 
			211.787,37.568 211.569,37.301 212.598,37.015 211.423,36.381 211.546,35.997 210.831,35.735 210.544,35.813 210.785,35.27 
			209.844,35.105 209.61,35.196 209.761,34.606 209.012,34.542 208.743,34.673 208.896,34.179 207.889,34.194 207.912,33.961 
			207.401,34.136 207.622,33.474 206.662,33.657 206.735,33.27 206.216,33.42 206.322,32.986 205.907,33.054 205.518,33.013 
			205.179,33.125 205.326,32.575 204.534,32.532 204.305,32.582 204.337,32.383 203.782,32.653 203.943,32.069 203.953,31.956 
			203.195,32.151 203.105,32.015 202.559,32.292 202.651,31.632 201.734,31.861 201.74,31.556 201.234,31.81 201.378,31.377 
			200.448,31.766 200.494,31.585 200.105,31.875 200.17,31.461 199.061,31.952 199.144,31.66 198.156,32.24 198.244,31.907 
			197.344,32.303 197.164,32.542 197.12,32.244 196.481,32.796 196.5,32.536 195.379,33.424 195.258,33.281 194.598,34.045 
			194.578,33.781 194.08,34.454 193.973,34.256 193.385,35.138 193.306,34.991 193.058,35.492 193.006,35.316 192.495,36.731 
			192.366,36.595 192.173,37.965 192.068,37.904 191.841,38.344 		"/>
		<path fill-rule="evenodd" clip-rule="evenodd" fill="#DBE120" d="M212.598,37.015c-0.51-0.095-1.242-0.13-2.141-0.122l0.889,0.654
			l-1.169-0.649c-0.289,0.006-0.593,0.015-0.912,0.028l1.2,1.391l-1.361-1.385c-0.24,0.013-0.486,0.025-0.74,0.039l1.294,1.93
			l-1.444-1.919c-0.354,0.021-0.721,0.047-1.098,0.076l1.623,2.471l-1.772-2.461c-0.393,0.031-0.795,0.066-1.21,0.104l1.996,3.022
			l-2.192-3.004c-0.409,0.037-0.826,0.076-1.25,0.119l2.442,3.784l-2.695-3.76c-0.502,0.052-1.012,0.107-1.529,0.165L205,41.826
			l-2.647-4.309c-0.373,0.043-0.75,0.086-1.127,0.129l2.546,4.887l-2.719-4.865c-0.254,0.03-0.51,0.062-0.766,0.092l2.665,5.262
			l-2.855-5.238c-0.217,0.026-0.433,0.053-0.649,0.08l2.824,5.298l-3.028-5.273c-0.338,0.041-0.673,0.084-1.009,0.128l2.901,5.283
			l-3.123-5.255c-0.165,0.021-0.329,0.043-0.492,0.064l2.982,5.6l-3.199-5.571c-0.264,0.033-0.525,0.068-0.787,0.103l2.907,5.422
			l-3.12-5.393l-0.521,0.069l2.89,5.247l-3.11-5.216c-0.254,0.033-0.504,0.067-0.752,0.101l2.727,4.909l-2.937-4.88l-0.546,0.075
			l2.869,4.801l-3.077-4.771c-0.229,0.031-0.455,0.063-0.677,0.095l2.482,4.166l-2.669-4.142l-0.475,0.068l2.129,3.642l-2.431-3.601
			l-0.631,0.105l-0.058-0.57c0.246-0.031,0.512-0.046,0.768-0.076l1.824-3.582l-1.538,3.545l0.313-0.039l2.107-4.331l-1.923,4.309
			l0.748-0.095l2.471-5.078l-2.254,5.052l0.61-0.077l2.352-5.395l-2.141,5.368l0.804-0.101l2.357-5.413l-2.147,5.386l0.651-0.08
			l2.53-5.806l-2.305,5.777c0.227-0.027,0.455-0.056,0.683-0.083l2.713-5.743l-2.48,5.715c0.354-0.043,0.707-0.086,1.062-0.127
			l2.451-5.619l-2.23,5.592c0.4-0.045,0.806-0.093,1.208-0.138l2.08-4.771l-1.896,4.751c0.451-0.052,0.899-0.099,1.346-0.146
			l2.019-4.631l-1.84,4.612c0.329-0.034,0.657-0.067,0.982-0.099l1.889-4.012l-1.729,3.995l-0.016,0.002
			c0.365-0.037,0.729-0.069,1.088-0.101l1.804-3.829l-1.651,3.815c0.282-0.025,0.563-0.048,0.842-0.07l1.687-3.597l-1.546,3.586
			c0.21-0.016,0.419-0.03,0.625-0.045l1.504-3.041l-1.319,3.028c0.429-0.03,0.848-0.055,1.252-0.074l1.384-2.452l-1.244,2.444
			c0.393-0.017,0.771-0.03,1.135-0.039l1.215-2.049l-1.068,2.047c0.25-0.007,0.492-0.007,0.727-0.007l1.181-1.359l-1.023,1.359
			c0.356,0.005,0.696,0.015,1.01,0.033l0.784-0.615l-0.632,0.623C211.531,36.741,212.167,36.846,212.598,37.015z"/>
		<polygon fill-rule="evenodd" clip-rule="evenodd" fill="#DBE120" points="191.262,38.422 191.532,38.365 191.591,38.92 
			191.364,38.957 		"/>
	</g>
	<g>
		
			<linearGradient id="SVGID_17_" gradientUnits="userSpaceOnUse" x1="230.3774" y1="96.812" x2="224.9033" y2="105.5725" gradientTransform="matrix(0.5841 0.8117 -0.8117 0.5841 64.7945 -189.5002)">
			<stop  offset="0" style="stop-color:#5B8E3F"/>
			<stop  offset="1" style="stop-color:#88C540"/>
		</linearGradient>
		<polygon fill-rule="evenodd" clip-rule="evenodd" fill="url(#SVGID_17_)" points="115.288,45.908 114.907,46.139 114.94,46.459 
			114.772,46.619 114.874,46.734 114.249,47.475 114.39,47.576 113.861,48.202 114.017,48.204 113.54,48.911 113.739,48.903 
			113.337,49.804 113.527,49.784 113.355,50.735 113.558,50.64 113.412,51.246 113.539,51.179 113.435,51.915 113.657,51.803 
			113.567,52.674 113.752,52.489 113.827,53.623 114.058,53.373 114.053,54.07 114.255,53.868 114.375,55.021 114.651,54.75 
			114.635,55.362 114.875,55.251 115.119,56.055 115.341,55.665 115.407,56.231 115.531,56.092 115.733,56.86 116.013,56.5 
			116.284,57.543 116.574,57.313 116.605,57.783 116.843,57.611 117.131,58.416 117.48,58.066 117.668,58.877 118.011,58.564 
			118.199,59.036 118.295,58.807 118.696,59.569 118.838,59.391 118.845,59.641 119.246,59.294 119.274,59.629 119.351,59.611 
			119.623,60.143 119.958,59.741 120.345,60.557 120.628,60.236 121.047,61.075 121.333,60.732 121.879,61.484 122.205,61.166 
			122.86,61.899 122.986,61.631 123.554,62.362 123.624,61.201 123.952,61.167 123.902,60.5 123.745,60.298 124.234,60.304 
			124.034,59.493 123.885,59.334 124.376,59.253 124.169,58.63 123.978,58.458 124.399,58.413 124.044,57.608 124.222,57.545 
			123.917,57.196 124.489,57.146 124.021,56.438 124.336,56.363 124.046,55.998 124.407,55.934 124.212,55.625 124.111,55.297 
			123.909,55.064 124.372,54.992 124.131,54.341 124.015,54.174 124.173,54.131 123.781,53.778 124.273,53.708 124.362,53.676 
			123.956,53.134 124.025,53.015 123.632,52.671 124.155,52.52 123.668,51.861 123.899,51.76 123.537,51.442 123.91,51.41 
			123.297,50.795 123.449,50.769 123.098,50.557 123.43,50.467 122.684,49.745 122.93,49.71 122.156,49.118 122.435,49.073 
			121.829,48.487 121.589,48.424 121.796,48.287 121.164,47.962 121.367,47.888 120.316,47.294 120.381,47.147 119.583,46.878 
			119.776,46.772 119.1,46.602 119.211,46.45 118.35,46.282 118.433,46.167 117.971,46.139 118.086,46.037 116.853,46.113 
			116.91,45.962 115.82,46.279 115.83,46.173 115.421,46.143 		"/>
		<path fill-rule="evenodd" clip-rule="evenodd" fill="#DBE120" d="M123.554,62.362c-0.106-0.442-0.331-1.043-0.646-1.762
			l-0.184,0.938l0.085-1.162c-0.104-0.229-0.216-0.472-0.336-0.723l-0.627,1.443l0.565-1.569c-0.089-0.189-0.185-0.383-0.282-0.581
			l-0.998,1.702l0.939-1.821c-0.139-0.277-0.283-0.562-0.434-0.854l-1.29,2.153l1.229-2.269c-0.158-0.306-0.323-0.619-0.492-0.938
			l-1.574,2.643l1.493-2.795c-0.168-0.316-0.343-0.638-0.521-0.964l-1.985,3.264l1.88-3.458c-0.21-0.385-0.429-0.775-0.648-1.171
			l-2.384,3.473l2.31-3.608c-0.161-0.284-0.321-0.572-0.484-0.86l-2.776,3.726l2.702-3.856c-0.11-0.195-0.222-0.39-0.333-0.585
			l-3.016,3.95l2.933-4.095c-0.093-0.165-0.187-0.329-0.281-0.493l-2.99,4.09l2.901-4.246c-0.147-0.256-0.296-0.512-0.443-0.766
			l-2.95,4.147l2.854-4.315c-0.072-0.125-0.145-0.25-0.218-0.374l-3.159,4.322l3.064-4.486c-0.117-0.201-0.233-0.399-0.349-0.598
			l-3.054,4.199l2.959-4.36l-0.232-0.395l-2.927,4.125l2.83-4.293c-0.112-0.19-0.225-0.38-0.336-0.568l-2.73,3.879l2.638-4.037
			L116.012,48l-2.602,3.955l2.508-4.114c-0.102-0.172-0.203-0.343-0.304-0.511l-2.259,3.426l2.177-3.565l-0.215-0.359l-1.989,2.964
			l1.854-3.19l-0.294-0.471l0.407-0.245c0.106,0.188,0.209,0.396,0.32,0.593l3.304,0.233l-3.179-0.018l0.138,0.24l3.963,0.203
			l-3.884-0.063l0.329,0.569l4.645,0.237l-4.55-0.074l0.269,0.465l4.838,0.035l-4.746,0.125l0.351,0.61l4.856,0.033l-4.763,0.127
			l0.282,0.496l5.208,0.036l-5.107,0.136c0.098,0.173,0.195,0.346,0.297,0.52l5.224,0.204l-5.124-0.028
			c0.153,0.27,0.306,0.54,0.461,0.812l5.042,0.033l-4.949,0.134c0.174,0.307,0.35,0.614,0.521,0.922l4.281,0.03l-4.203,0.111
			c0.192,0.345,0.385,0.688,0.571,1.031l4.156,0.028l-4.081,0.109c0.14,0.253,0.277,0.505,0.413,0.753l3.647,0.141l-3.58-0.016
			l-0.007-0.013c0.152,0.281,0.303,0.562,0.448,0.839l3.482,0.134l-3.42-0.016c0.116,0.22,0.229,0.437,0.343,0.652l3.268,0.118
			l-3.212-0.01c0.085,0.165,0.167,0.326,0.25,0.486l2.788,0.164l-2.716-0.02c0.17,0.335,0.331,0.664,0.486,0.981l2.308,0.267
			l-2.256-0.157c0.149,0.309,0.289,0.608,0.42,0.898l1.948,0.271l-1.895-0.153c0.09,0.198,0.173,0.393,0.254,0.58l1.422,0.481
			l-1.368-0.355c0.12,0.289,0.229,0.564,0.324,0.822l0.728,0.418l-0.684-0.291C123.392,61.411,123.532,61.957,123.554,62.362z"/>
		<polygon fill-rule="evenodd" clip-rule="evenodd" fill="#DBE120" points="115.166,45.704 115.301,45.902 114.907,46.139 
			114.8,45.97 		"/>
	</g>
	<g>
		
			<linearGradient id="SVGID_18_" gradientUnits="userSpaceOnUse" x1="97.6006" y1="-60.9253" x2="89.1373" y2="-54.0719" gradientTransform="matrix(0.6973 -0.7168 0.7168 0.6973 102.22 145.9253)">
			<stop  offset="0" style="stop-color:#5B8E3F"/>
			<stop  offset="1" style="stop-color:#88C540"/>
		</linearGradient>
		<polygon fill-rule="evenodd" clip-rule="evenodd" fill="url(#SVGID_18_)" points="117.651,37.859 117.817,38.304 118.138,38.322 
			118.266,38.528 118.4,38.439 119.024,39.228 119.148,39.096 119.677,39.762 119.706,39.596 120.324,40.224 120.351,40.012 
			121.173,40.59 121.186,40.385 122.096,40.728 122.036,40.497 122.61,40.752 122.566,40.608 123.276,40.842 123.203,40.59 
			124.049,40.83 123.896,40.6 125.031,40.716 124.823,40.427 125.508,40.549 125.344,40.3 126.504,40.367 126.285,40.03 
			126.885,40.15 126.816,39.875 127.652,39.752 127.303,39.451 127.874,39.476 127.757,39.32 128.55,39.237 128.242,38.878 
			129.321,38.768 129.142,38.42 129.61,38.465 129.481,38.183 130.326,38.015 130.038,37.583 130.872,37.521 130.621,37.105 
			131.119,36.984 130.908,36.842 131.729,36.545 131.578,36.365 131.826,36.402 131.551,35.915 131.886,35.941 131.881,35.858 
			132.452,35.66 132.112,35.235 132.984,34.961 132.715,34.607 133.615,34.302 133.325,33.942 134.16,33.489 133.899,33.088 
			134.734,32.516 134.492,32.337 135.31,31.857 134.174,31.588 134.195,31.232 133.53,31.174 133.302,31.307 133.39,30.788 
			132.555,30.864 132.375,30.994 132.376,30.456 131.726,30.574 131.524,30.749 131.55,30.292 130.695,30.534 130.662,30.333 
			130.265,30.599 130.313,29.982 129.534,30.36 129.514,30.013 129.103,30.258 129.101,29.866 128.762,30.021 128.421,30.074 
			128.157,30.247 128.164,29.744 127.481,29.887 127.296,29.984 127.281,29.808 126.865,30.166 126.877,29.629 126.863,29.531 
			126.258,29.872 126.153,29.778 125.749,30.137 125.684,29.556 124.951,29.96 124.891,29.7 124.514,30.03 124.547,29.629 
			123.835,30.175 123.834,30.011 123.567,30.347 123.533,29.979 122.693,30.649 122.702,30.383 121.983,31.105 121.987,30.799 
			121.305,31.346 121.205,31.591 121.102,31.345 120.675,31.964 120.638,31.737 119.872,32.751 119.738,32.658 119.339,33.461 
			119.264,33.239 118.984,33.927 118.85,33.782 118.54,34.67 118.438,34.562 118.334,35.046 118.252,34.908 118.121,36.232 
			117.981,36.145 118.109,37.357 118.006,37.33 117.907,37.757 		"/>
		<path fill-rule="evenodd" clip-rule="evenodd" fill="#DBE120" d="M135.31,31.857c-0.455,0.037-1.087,0.175-1.851,0.389
			l0.896,0.353l-1.133-0.285c-0.246,0.07-0.503,0.15-0.772,0.235l1.321,0.91l-1.456-0.869c-0.202,0.065-0.41,0.133-0.622,0.203
			l1.514,1.346l-1.641-1.302c-0.297,0.101-0.604,0.206-0.92,0.315l1.912,1.733l-2.034-1.688c-0.33,0.115-0.667,0.237-1.012,0.363
			l2.349,2.118l-2.511-2.058c-0.342,0.126-0.688,0.256-1.042,0.391l2.892,2.661l-3.099-2.581c-0.418,0.159-0.842,0.321-1.268,0.489
			l3.029,3.12l-3.177-3.064c-0.309,0.122-0.619,0.245-0.931,0.37l3.212,3.578l-3.355-3.522c-0.211,0.086-0.423,0.17-0.633,0.256
			l3.393,3.872l-3.552-3.81c-0.179,0.072-0.356,0.145-0.535,0.216l3.539,3.868l-3.707-3.797c-0.278,0.112-0.556,0.226-0.834,0.339
			l3.603,3.836l-3.783-3.761c-0.136,0.056-0.271,0.111-0.406,0.168l3.738,4.086l-3.915-4.013c-0.219,0.091-0.435,0.18-0.651,0.269
			l3.636,3.954l-3.81-3.88l-0.431,0.179l3.583,3.808l-3.764-3.73c-0.208,0.086-0.414,0.173-0.619,0.259l3.371,3.556l-3.543-3.481
			l-0.448,0.188l3.469,3.432l-3.642-3.36c-0.188,0.079-0.373,0.158-0.557,0.237l3.004,2.979l-3.156-2.914l-0.392,0.166l2.593,2.613
			l-2.841-2.509l-0.513,0.234l-0.174-0.473c0.204-0.082,0.427-0.156,0.639-0.242l0.79-3.47l-0.553,3.374l0.258-0.106l0.87-4.174
			l-0.719,4.113l0.619-0.252l1.02-4.895l-0.842,4.822l0.505-0.208l0.852-5.135l-0.678,5.065l0.662-0.27l0.854-5.154l-0.682,5.082
			l0.539-0.218l0.915-5.527l-0.729,5.45c0.188-0.075,0.375-0.151,0.564-0.226l1.084-5.517l-0.892,5.438
			c0.291-0.117,0.583-0.234,0.878-0.352l0.887-5.351l-0.707,5.277c0.334-0.132,0.668-0.263,1.001-0.395l0.752-4.543l-0.598,4.482
			c0.372-0.146,0.744-0.291,1.115-0.434l0.73-4.409l-0.583,4.352c0.273-0.104,0.545-0.208,0.814-0.309l0.754-3.853l-0.62,3.801
			l-0.012,0.006c0.304-0.113,0.605-0.226,0.904-0.335l0.719-3.676l-0.592,3.629c0.236-0.086,0.47-0.17,0.702-0.253l0.67-3.451
			l-0.553,3.409c0.177-0.062,0.352-0.123,0.523-0.183l0.632-2.936l-0.478,2.883c0.359-0.123,0.711-0.241,1.053-0.351l0.654-2.406
			l-0.537,2.369c0.328-0.105,0.647-0.205,0.957-0.294l0.597-2.026l-0.471,1.989c0.211-0.061,0.417-0.117,0.616-0.171l0.715-1.432
			l-0.581,1.396c0.306-0.078,0.595-0.148,0.868-0.206l0.535-0.703l-0.402,0.677C134.342,31.869,134.906,31.812,135.31,31.857z"/>
		<polygon fill-rule="evenodd" clip-rule="evenodd" fill="#DBE120" points="117.431,37.955 117.648,37.844 117.817,38.304 
			117.631,38.387 		"/>
	</g>
	<g>
		
			<linearGradient id="SVGID_19_" gradientUnits="userSpaceOnUse" x1="251.2603" y1="88.7144" x2="246.5266" y2="92.4127" gradientTransform="matrix(0.8285 0.56 -0.56 0.8285 29.9524 -167.3901)">
			<stop  offset="0" style="stop-color:#5B8E3F"/>
			<stop  offset="1" style="stop-color:#88C540"/>
		</linearGradient>
		<polygon fill-rule="evenodd" clip-rule="evenodd" fill="url(#SVGID_19_)" points="185.228,42.008 185.003,42.149 185.024,42.337 
			184.924,42.431 184.987,42.5 184.618,42.939 184.701,43 184.39,43.371 184.481,43.373 184.201,43.792 184.318,43.787 
			184.083,44.321 184.196,44.309 184.095,44.873 184.215,44.815 184.131,45.173 184.207,45.134 184.146,45.572 184.277,45.503 
			184.226,46.02 184.337,45.91 184.381,46.582 184.519,46.431 184.517,46.845 184.637,46.723 184.71,47.408 184.874,47.246 
			184.866,47.608 185.008,47.542 185.154,48.016 185.284,47.785 185.324,48.121 185.398,48.039 185.519,48.491 185.683,48.279 
			185.845,48.896 186.017,48.758 186.038,49.036 186.179,48.933 186.351,49.409 186.556,49.201 186.67,49.68 186.872,49.496 
			186.984,49.774 187.041,49.637 187.281,50.088 187.364,49.983 187.368,50.131 187.606,49.924 187.623,50.122 187.668,50.111 
			187.831,50.423 188.027,50.186 188.258,50.667 188.426,50.476 188.676,50.975 188.844,50.769 189.169,51.213 189.361,51.022 
			189.75,51.458 189.825,51.297 190.164,51.729 190.201,51.04 190.396,51.019 190.365,50.625 190.271,50.505 190.561,50.509 
			190.441,50.028 190.35,49.935 190.642,49.886 190.517,49.518 190.404,49.417 190.655,49.388 190.442,48.914 190.547,48.875 
			190.364,48.668 190.704,48.637 190.424,48.219 190.611,48.176 190.439,47.96 190.651,47.92 190.536,47.738 190.474,47.545 
			190.355,47.408 190.628,47.363 190.484,46.979 190.417,46.879 190.509,46.855 190.277,46.647 190.567,46.602 190.62,46.584 
			190.378,46.264 190.418,46.193 190.186,45.993 190.494,45.901 190.205,45.511 190.342,45.451 190.125,45.265 190.346,45.243 
			189.982,44.881 190.073,44.865 189.864,44.741 190.059,44.687 189.616,44.261 189.762,44.24 189.302,43.891 189.468,43.863 
			189.108,43.518 188.965,43.482 189.088,43.4 188.712,43.211 188.833,43.166 188.209,42.816 188.248,42.73 187.774,42.573 
			187.886,42.509 187.487,42.413 187.553,42.32 187.042,42.224 187.091,42.155 186.818,42.139 186.886,42.078 186.156,42.127 
			186.19,42.037 185.544,42.228 185.55,42.165 185.309,42.148 		"/>
		<path fill-rule="evenodd" clip-rule="evenodd" fill="#DBE120" d="M190.164,51.729c-0.064-0.262-0.199-0.617-0.387-1.042
			l-0.107,0.557l0.048-0.69c-0.062-0.135-0.129-0.278-0.201-0.426l-0.368,0.855l0.333-0.93c-0.054-0.112-0.111-0.227-0.17-0.343
			l-0.586,1.01l0.552-1.081c-0.084-0.163-0.17-0.332-0.26-0.505l-0.759,1.279l0.723-1.347c-0.096-0.181-0.192-0.365-0.295-0.554
			l-0.924,1.567l0.878-1.658c-0.102-0.187-0.205-0.377-0.312-0.568l-1.167,1.937l1.104-2.052c-0.127-0.228-0.257-0.458-0.388-0.691
			l-1.402,2.062l1.358-2.142c-0.096-0.169-0.192-0.339-0.288-0.508l-1.634,2.213l1.588-2.29c-0.065-0.114-0.131-0.23-0.197-0.346
			l-1.775,2.347l1.726-2.432c-0.057-0.097-0.112-0.195-0.169-0.292l-1.759,2.43l1.707-2.521c-0.089-0.151-0.177-0.302-0.265-0.453
			l-1.736,2.464l1.679-2.562c-0.043-0.075-0.087-0.148-0.13-0.223l-1.86,2.568l1.804-2.665c-0.07-0.116-0.139-0.234-0.207-0.352
			l-1.797,2.493l1.739-2.588l-0.138-0.233l-1.723,2.45l1.664-2.549c-0.066-0.113-0.134-0.225-0.2-0.336l-1.606,2.304l1.552-2.397
			l-0.146-0.243l-1.528,2.348l1.474-2.441c-0.061-0.102-0.122-0.201-0.182-0.302l-1.329,2.035l1.28-2.118l-0.128-0.212l-1.169,1.759
			l1.088-1.892l-0.175-0.279l0.24-0.146c0.062,0.111,0.125,0.235,0.192,0.349l1.954,0.131l-1.881-0.002l0.081,0.142l2.347,0.11
			l-2.298-0.029l0.195,0.338l2.75,0.128l-2.694-0.031l0.161,0.274l2.864,0.008l-2.811,0.088l0.21,0.359l2.875,0.006l-2.819,0.088
			l0.169,0.293l3.083,0.007l-3.024,0.094c0.059,0.103,0.118,0.205,0.177,0.308l3.094,0.107l-3.033-0.003
			c0.093,0.158,0.184,0.317,0.275,0.479l2.984,0.008l-2.929,0.09c0.104,0.183,0.207,0.364,0.311,0.546L190,45.89l-2.487,0.077
			c0.114,0.204,0.229,0.405,0.341,0.609l2.461,0.005l-2.415,0.076c0.082,0.149,0.164,0.297,0.245,0.445l2.159,0.073h-2.119
			l-0.004-0.009c0.091,0.168,0.18,0.332,0.268,0.496l2.061,0.07h-2.023c0.068,0.131,0.138,0.258,0.203,0.384l1.937,0.062
			l-1.902,0.004c0.05,0.097,0.1,0.191,0.149,0.288l1.651,0.087l-1.607-0.002c0.101,0.197,0.198,0.39,0.291,0.578l1.367,0.151
			l-1.338-0.087c0.09,0.184,0.173,0.359,0.251,0.531l1.154,0.155l-1.121-0.086c0.054,0.117,0.103,0.231,0.15,0.343l0.845,0.28
			l-0.812-0.206c0.07,0.171,0.137,0.334,0.193,0.485l0.432,0.246l-0.405-0.17C190.064,51.165,190.15,51.488,190.164,51.729z"/>
		<polygon fill-rule="evenodd" clip-rule="evenodd" fill="#DBE120" points="185.156,41.891 185.236,42.006 185.003,42.149 
			184.94,42.047 		"/>
	</g>
	<path fill="#150608" d="M42.588,39.269c19.778,0.04-16.925-1.196,51.293-9.993c6.809-2.148,14.604-2.047,22.131-2.315
		c10.786-0.382,21.831-0.68,32.908,0.909c5.177,0.743,10.366,2.088,15.48,3.611c11.216,3.339,20.813,8.525,30.405,14.964
		l0.886-1.349c-6.974-5.481-13.671-7.654-21.233-12.233c2.047-0.646,4.817-0.539,7.151-0.38c-0.582-0.354-1.451-1.51-1.738-2.312
		c-12.404,0.969-23.302-6.578-35.696-8.114c-10.932-1.283-20.422,0.191-30.628-0.338c6.565-0.732-28.31,1.074-37.36,2.5
		C6.008,34.243,80.111,24.01,13.98,31.39c-1.752,0.195-10.973,1.067-12.284,1.212L0,43.954L42.588,39.269z"/>
	<path fill="#150608" d="M100.381,31.295c7.55,2.493-6.489-1.636,19.337,10.807c2.544,1.786,5.523,2.73,8.389,3.803
		c4.107,1.532,8.318,3.066,12.588,3.79c1.995,0.338,4.009,0.418,6.001,0.413c4.365-0.008,8.161-1.017,11.986-2.562l0.301,0.689
		c-2.801,1.47-5.41,1.551-8.412,2.556c0.766,0.537,1.825,0.845,2.723,1.071c-0.234,0.078-0.594,0.464-0.727,0.771
		c-4.711-1.99-9.061-0.133-13.829-1.047c-4.204-0.836-7.79-2.675-11.701-3.746c2.489,1.149-10.78-4.054-14.201-5.816
		c-26.544-13.216,1.489,0.588-23.57-10.979c-0.666-0.307-4.166-1.853-4.663-2.08l-0.358-5.089L100.381,31.295z"/>
</g>
</svg>
